<?xml version="1.0" encoding="UTF-8" standalone="no"?>
<!-- Created with Inkscape (http://www.inkscape.org/) -->

<svg
   width="508.76001mm"
   height="73.797997mm"
   viewBox="0 0 508.76002 73.797999"
   version="1.1"
   id="svg162186"
   inkscape:version="1.1.2 (0a00cf5339, 2022-02-04)"
   sodipodi:docname="Bottom.svg"
   xmlns:inkscape="http://www.inkscape.org/namespaces/inkscape"
   xmlns:sodipodi="http://sodipodi.sourceforge.net/DTD/sodipodi-0.dtd"
   xmlns="http://www.w3.org/2000/svg"
   xmlns:svg="http://www.w3.org/2000/svg">
  <sodipodi:namedview
     id="namedview162188"
     pagecolor="#505050"
     bordercolor="#eeeeee"
     borderopacity="1"
     inkscape:pageshadow="0"
     inkscape:pageopacity="0"
     inkscape:pagecheckerboard="0"
     inkscape:document-units="mm"
     showgrid="false"
     inkscape:zoom="0.19888536"
     inkscape:cx="98.046432"
     inkscape:cy="1377.6781"
     inkscape:window-width="1920"
     inkscape:window-height="1011"
     inkscape:window-x="0"
     inkscape:window-y="0"
     inkscape:window-maximized="1"
     inkscape:current-layer="g169161" />
  <defs
     id="defs162183" />
  <g
     inkscape:label="Layer 1"
     inkscape:groupmode="layer"
     id="layer1">
    <g
       id="g169161"
       transform="translate(-316.38599,-125.54939)">
      <g
         id="g172394"
         transform="translate(-68.403195,-164.7642)">
        <rect
           style="display:inline;fill:#1a2941;fill-opacity:1;fill-rule:evenodd;stroke:none;stroke-width:0.255488;stroke-linecap:round;stroke-linejoin:round;stroke-dashoffset:2.84519;paint-order:stroke markers fill"
           id="rect47196"
           width="508"
           height="63.018494"
           x="384.78918"
           y="301.09262"
           inkscape:label="MainBackground" />
        <g
           id="g2540599"
           inkscape:label="Ground"
           style="display:inline"
           transform="translate(385.476,78.442787)">
          <path
             id="polygon1751"
             style="opacity:1;fill:#172439;fill-opacity:1"
             d="m 1711.2951,939.56596 c -7.1258,0.12661 -14.9171,-3.46307 -20.8105,-7.34766 -3.3323,-2.19643 -3.4903,-7.71175 -6.9004,-9.78516 -2.731,-1.66049 -6.7932,0.39884 -9.5,-1.30078 -2.6465,-1.66167 -2.8853,-5.69109 -5.1797,-7.8125 -4.6002,-4.25321 -11.1792,-5.70879 -16.4297,-9.12695 -7.2477,-4.71843 -12.5016,-12.89301 -20.7012,-15.64258 -36.831,-12.3505 -77.6925,0 -116.5391,0 h -33.6699 c -9.9266,0 -19.9506,-1.3909 -29.7793,0 -8.1555,1.15412 -15.6837,5.14371 -23.7402,6.85742 -32.3967,6.89117 -65.3551,15.60719 -98.4199,13.66992 -12.2459,-0.71746 -23.5282,-7.17024 -35.6114,-9.28515 -40.4006,-7.07134 -81.5383,-12.64054 -122.5293,-11.24219 -14.3644,0.49002 -28.2432,5.71102 -42.5703,6.85742 -9.6923,0.77556 -19.4466,0 -29.1699,0 -16.8199,0 -33.7367,1.80956 -50.459,0 -10.6219,-1.14943 -20.6886,-5.70799 -31.3105,-6.85742 -15.1615,-1.64065 -30.68957,-2.3966 -45.75002,0 -23.49613,3.73897 -44.05804,22.26034 -67.84961,22.15625 -4.213,-0.0189 -7.83528,-3.27634 -11.98047,-4.0293 -23.29657,-4.23163 -47.36878,-0.85245 -70.99024,-2.48437 -54.77006,-3.78383 -59.5368,-32.63667 -112.35351,-17.6543 -59.86938,21.59238 -146.87133,38.33943 -176.60743,26.85156 -34.38869,-15.02837 -74.73745,-16.14579 -111.98828,-11.58398 -0.039,0.004 -0.0763,0.0139 -0.11524,0.0215 v -49.33593 c 545.25521,-139.16797 1307.0546,9.83789 1917.9453,26.47656 v 29.95898 c -6.5032,-3.36434 -13.0548,-6.55403 -19.7617,-9.13476 -10.2819,-3.95633 -20.2287,-9.33999 -31.0801,-11.24219 -23.5245,-4.12376 -47.7651,0 -71.6484,0 -14.4767,0 -29.2102,-2.70625 -43.4316,0 -13.9453,2.65368 -25.6048,13.3229 -39.6094,15.64258 -30.2824,5.01588 -62.4731,4.05535 -91.9805,-4.40039 -7.3741,-2.11313 -12.4741,-10.24629 -20.0801,-11.24219 -15.0193,-1.9666 -29.7692,6.13382 -44.0293,11.24219 -11.8161,4.23288 -21.6349,14.49767 -34.0996,15.9707 -19.0232,2.24814 -44.1861,3.27581 -56.291,-11.57031 -3.2947,-4.04084 3.6867,-11.95588 0,-15.64258 -9.4987,-9.49877 -26.8655,0 -40.2988,0 -33.8466,0 -72.5292,-17.43283 -101.541,0 -16.0255,9.62943 -9.3879,41.61766 -26.3301,49.52344 -2.1322,0.99492 -4.4334,1.45004 -6.8086,1.49219 z"
             transform="matrix(0.26458333,0,0,-0.26458333,-110.94314,493.67207)"
             inkscape:label="Darker" />
          <path
             id="polygon1749"
             style="display:inline;opacity:1;fill:#19273e;fill-opacity:1;stroke-width:0.264583"
             d="m 507.72819,243.46074 c -41.45643,7.26945 -73.44627,12.37909 -99.37295,11.55611 -100.29612,-3.18365 -96.20245,1.82709 -166.77878,6.66087 l 56.16816,3.02927 10.31099,-1.8495 61.60813,1.07694 -40.71948,3.18585 54.29281,1.84381 124.49112,-1.49913 z"
             sodipodi:nodetypes="cscccccccc"
             inkscape:label="Fog" />
          <path
             id="path11567"
             style="fill:#1a2941;fill-opacity:1;stroke:none;stroke-width:0.233552px;stroke-linecap:butt;stroke-linejoin:miter;stroke-opacity:1"
             d="m 70.857251,259.68724 c -3.039597,-1.3353 -33.834817,-6.5542 -47.764774,-2.43986 -6.137038,1.81262 -14.5372029,2.69726 -22.4756311,3.80913 v 24.45661 H 508.0732 v -40.32775 c -16.91076,1.34234 -36.07026,11.85385 -50.26876,14.29675 -29.50427,5.07631 -52.01241,10.7821 -84.80465,3.65372 -32.76228,-7.12187 -77.36273,4 -113.98529,-1.35052 -23.29366,-3.40317 -34.61028,1.69157 -54.02826,1.86375 -15.78833,0.13999 -40.59649,-8.6333 -62.8125,-9.81824 -21.71447,-1.15819 -49.643642,15.37735 -71.316489,5.85641 z"
             sodipodi:nodetypes="ssccccssssss"
             inkscape:label="Ground" />
          <path
             id="path1786"
             style="display:inline;fill:#172439;fill-opacity:1;stroke-width:0.264583"
             d="m 27.35647,275.55372 c -1.066661,-0.003 -2.049302,0.0841 -2.354895,0.25425 -0.159718,0.0898 -0.229899,0.178 -0.230994,0.26355 -10e-6,3.5e-4 8e-6,6.9e-4 0,10e-4 -3.9e-5,0.006 3.47e-4,0.0124 0.001,0.0186 0.01278,0.13489 0.195671,0.26285 0.470772,0.37827 l 0.02635,0.0103 c 0.740829,0.30163 2.098515,0.51384 2.564184,0.51884 0.521116,0.003 1.933453,-0.18295 2.576587,-0.47388 h 5.17e-4 c 0.05787,-0.0267 0.109847,-0.0547 0.153996,-0.0832 0.02213,-0.0143 0.0422,-0.0287 0.06046,-0.0434 0.03652,-0.0294 0.0649,-0.0597 0.08423,-0.0904 0.0031,-0.005 0.0061,-0.01 0.0088,-0.015 v -5.2e-4 c 0.0026,-0.005 0.0056,-0.01 0.0078,-0.015 v -5.1e-4 c 0.0022,-0.005 0.004,-0.0102 0.0057,-0.0155 0.0016,-0.005 0.003,-0.0107 0.0041,-0.016 0.0011,-0.005 0.0015,-0.0103 0.0021,-0.0155 v -5.2e-4 c 5.29e-4,-0.005 0.001,-0.0103 0.001,-0.0155 v -5.2e-4 c -1.9e-5,-0.005 -4.73e-4,-0.0103 -0.001,-0.0155 v -5.2e-4 c -5.61e-4,-0.005 -0.0015,-0.0104 -0.0026,-0.0155 -7e-5,-3.2e-4 7.3e-5,-7.1e-4 0,-10e-4 -0.01066,-0.049 -0.0455,-0.099 -0.108004,-0.15038 -0.388439,-0.31849 -1.898664,-0.47227 -3.270084,-0.47646 z m 72.588851,1.65158 c -0.620969,-3e-5 -1.256619,0.003 -1.897042,0.008 -0.0019,2e-5 -0.0038,-2e-5 -0.0057,0 -0.0034,3e-5 -0.0069,-3e-5 -0.01033,0 -0.634507,0.005 -1.273755,0.0136 -1.908411,0.0238 -0.0045,7e-5 -0.009,-7e-5 -0.01344,0 -0.0059,10e-5 -0.01169,4.2e-4 -0.01757,5.2e-4 -1.269453,0.0206 -2.519743,0.0499 -3.676262,0.0868 -0.324144,0.0103 -0.639991,0.0216 -0.947746,0.0331 -0.781438,0.029 -1.503431,0.0611 -2.141471,0.0961 -0.05392,0.003 -0.106473,0.006 -0.159163,0.009 -0.566138,0.0322 -1.054592,0.0663 -1.456242,0.10232 -0.285582,0.0256 -0.533598,0.0521 -0.718819,0.0791 -0.0391,0.006 -0.07377,0.0113 -0.108004,0.0171 -0.01019,0.002 -0.02229,0.003 -0.03204,0.005 -7.92e-4,1.4e-4 -0.0018,3.8e-4 -0.0026,5.2e-4 -0.08383,0.0149 -0.15156,0.0298 -0.201022,0.045 -7.26e-4,2.2e-4 -0.0019,2.9e-4 -0.0026,5.1e-4 -0.38894,0.11906 -0.177219,0.30419 0.439249,0.51057 1.883836,0.62177 7.524796,1.4341 10.758,1.12189 1.055688,-0.0979 6.709822,-0.60862 8.908502,-1.27537 0.32809,-0.10054 0.58196,-0.20112 0.73277,-0.30696 0.0186,-0.0185 0.0398,-0.0316 0.061,-0.0501 v -5.1e-4 c 0.007,-0.006 0.013,-0.0123 0.0176,-0.0186 v -5.1e-4 c 0.009,-0.0127 0.0132,-0.0251 0.0124,-0.0372 v -5.2e-4 c -3.9e-4,-0.006 -0.002,-0.0117 -0.005,-0.0176 -0.001,-0.002 -0.004,-0.005 -0.005,-0.007 -0.002,-0.004 -0.004,-0.007 -0.007,-0.0109 -0.002,-0.003 -0.006,-0.006 -0.009,-0.008 -0.0161,-0.0146 -0.0387,-0.0286 -0.0698,-0.0424 -0.0735,-0.0326 -0.18815,-0.0627 -0.33952,-0.0904 -0.20181,-0.037 -0.46946,-0.0698 -0.79271,-0.0987 -0.24244,-0.0217 -0.51633,-0.0411 -0.81752,-0.0584 -0.40159,-0.0231 -0.85144,-0.0425 -1.34049,-0.0584 -1.22263,-0.0397 -2.68818,-0.0578 -4.245218,-0.0579 z m -39.976372,0.17674 c -1.06666,-0.003 -2.049301,0.0836 -2.354895,0.25373 -0.16004,0.09 -0.230176,0.17816 -0.230993,0.26355 -10e-6,3.4e-4 7e-6,6.9e-4 0,0.001 -1.8e-5,0.006 3.65e-4,0.0121 0.001,0.0181 0.01273,0.13441 0.195628,0.26229 0.470773,0.3793 l 0.02687,0.008 c 0.74083,0.30162 2.097999,0.51383 2.563668,0.51883 0.52123,0.003 1.934164,-0.18283 2.577104,-0.47387 0.07674,-0.0357 0.142211,-0.0731 0.194303,-0.11162 0.0065,-0.005 0.01304,-0.01 0.01912,-0.0145 0.01835,-0.0147 0.03439,-0.0294 0.04858,-0.0444 0.0046,-0.005 0.0093,-0.01 0.01344,-0.0145 8.9e-5,-1.1e-4 -8.8e-5,-4.1e-4 0,-5.2e-4 0.0042,-0.005 0.0081,-0.01 0.01189,-0.015 0.0038,-0.005 0.007,-0.0103 0.01033,-0.0155 0.0032,-0.005 0.0066,-0.01 0.0093,-0.015 0.0055,-0.0104 0.0096,-0.021 0.01292,-0.0315 0.0016,-0.005 0.003,-0.01 0.0041,-0.015 3.7e-5,-1.7e-4 -3.6e-5,-3.5e-4 0,-5.2e-4 0.0011,-0.005 0.002,-0.01 0.0026,-0.015 3.7e-5,-3.4e-4 -3.5e-5,-7e-4 0,-10e-4 5.36e-4,-0.005 9.92e-4,-0.01 0.001,-0.015 10e-7,-3.4e-4 2e-6,-7e-4 0,-0.001 7e-6,-0.005 -5.35e-4,-0.01 -0.001,-0.015 -3.6e-5,-3.4e-4 3.8e-5,-7e-4 0,-10e-4 -5.34e-4,-0.005 -0.0015,-0.01 -0.0026,-0.015 -7e-5,-3.3e-4 7.2e-5,-7.1e-4 0,-10e-4 -0.0011,-0.005 -0.0025,-0.01 -0.0041,-0.015 -0.01387,-0.0439 -0.04737,-0.0889 -0.103353,-0.13488 -0.38844,-0.31849 -1.898664,-0.47226 -3.270085,-0.47645 z"
             inkscape:label="Flecken" />
        </g>
        <g
           id="g5237957"
           inkscape:label="Midhills"
           style="display:inline"
           transform="translate(385.476,78.442787)">
          <path
             id="path4448038"
             style="display:inline;fill:#141f31;fill-opacity:1;stroke:none;stroke-width:0.264583px;stroke-linecap:butt;stroke-linejoin:miter;stroke-opacity:1"
             inkscape:label="DarkHils"
             d="m 326.72424,216.09275 c -20.55414,-0.25678 -41.24664,5.98532 -61.86754,4.89014 -7.96787,-0.42317 -15.62376,-4.04755 -23.60269,-3.99045 -16.1999,0.11589 -31.59999,8.71824 -47.80019,8.78654 -13.15942,0.0555 -25.74333,-6.16343 -38.88703,-6.8094 -5.3459,-0.26273 -10.67744,0.76915 -16.01194,1.20561 -14.66051,1.1995 -29.25962,4.46751 -43.957523,3.884 -8.071761,-0.32045 -15.917012,-2.70714 -23.869344,-4.21111 l 2.578137,12.06955 c 85.81772,0.40919 157.22982,1.58311 236.06621,2.11046 -2.7e-4,-0.008 3.5e-4,-0.0163 0,-0.0248 -0.18796,-4.64022 -13.96945,2.41896 -13.7542,-2.22002 0.45436,-9.79246 19.54302,-1.71042 29.3424,-1.97663 11.11761,-0.30202 27.28341,-6.30969 38.62503,-6.24199 5.94083,0.0354 12.00165,1.07855 12.21321,6.90035 0.31073,8.55087 -24.01678,-6.21861 -25.5757,2.1947 -0.26778,1.44517 1.08417,2.07461 2.95589,2.4412 0.82691,0.10897 1.65876,0.23325 2.49029,0.35656 1.51302,0.1742 3.06138,0.32952 4.24522,0.66818 0.33627,0.0568 0.67315,0.1154 1.00924,0.17156 0.90435,0.0472 4.93557,0.28133 8.20415,0.37621 h 4.37441 c 3.54356,-0.11662 7.08515,-0.44997 10.62881,-0.36019 1.42683,0.0362 2.84614,0.20832 4.26692,0.35812 l -0.16433,-13.82138 2.36058,-0.11265 15.5608,0.22738 -0.006,-0.7798 22.34644,0.78135 c 0,0 27.41183,-0.30096 38.52943,0.001 9.79937,0.26621 28.88804,-0.97645 29.3424,8.816 0.21523,4.63897 -13.56624,-2.4202 -13.7542,2.22002 -3.5e-4,0.008 2.7e-4,0.0168 0,0.0248 8.58651,-0.0574 16.97566,-0.1303 25.38656,-0.20154 V 220.2956 c -14.26609,-1.4636 -28.5356,-4.37977 -42.73899,-4.20233 -2.93631,0.0367 -5.86992,0.20601 -8.79998,0.54829 -6.88878,0.80472 -12.9855,5.72734 -19.91455,6.02857 -6.70203,0.29136 -17.23918,-4.13722 -19.69544,-4.13722 -1.11581,0 -5.43695,-0.73473 -10.73732,-1.34565 l -5.2e-4,-0.0382 c -0.32445,-0.0658 -0.37449,-0.063 -0.68781,-0.12816 -2.67262,-0.55536 -5.93501,-0.69262 -9.31675,-0.60875 -3.46564,-0.0966 -6.81424,0.041 -9.54877,0.60927 -0.31332,0.0651 -0.36285,0.0624 -0.6873,0.12816 l -5.1e-4,0.046 c -5.27993,0.6099 -9.62516,1.33687 -10.73785,1.33687 -2.45626,0 -12.99339,4.42857 -19.69544,4.13721 -6.92905,-0.30123 -13.02576,-5.22385 -19.91454,-6.02857 -2.93007,-0.34228 -5.86316,-0.5116 -8.79947,-0.54829 z" />
          <path
             id="rect3171267"
             style="display:inline;fill:#172339;fill-opacity:1;fill-rule:evenodd;stroke:none;stroke-width:1.42301;stroke-linecap:square;stroke-linejoin:bevel;stroke-dasharray:none;stroke-dashoffset:2.84519;stroke-opacity:1;paint-order:stroke markers fill"
             inkscape:label="MidHills"
             d="m 85.325024,211.87751 c -0.620032,0.028 -1.224557,0.14542 -1.794722,0.37775 -3.555664,1.44884 -3.527182,7.46637 -6.9665,9.17308 -1.651284,0.81945 -3.385571,1.28481 -5.170744,1.53324 l 0.0047,0.0207 c 152.186172,9.93264 210.530222,0.0685 315.876842,-0.0176 h 0.015 L 508,222.96934 v -2.08618 c -1.21212,0.2311 -2.42565,0.45163 -3.65352,0.54518 -4.02324,0.30652 -8.09527,0.45243 -12.10469,0 -6.0996,-0.68825 -11.8136,-4.12352 -17.95188,-4.10362 -1.08549,0.004 -2.09319,0.6078 -3.16983,0.74621 -6.2115,0.79852 -12.52699,0.15771 -18.78232,0.46043 -14.46965,0.70025 -29.18111,6.16792 -43.3467,3.13521 -4.63223,-0.99171 -7.9118,-5.60927 -12.51242,-6.7386 -1.27096,-0.31199 -3.08004,-0.42227 -4.84518,-0.43822 -2.09659,-0.0189 -4.08599,0.0936 -5.08186,0.16071 -1.60927,-0.11369 -7.02077,-0.43185 -9.91051,0.27751 -4.60059,1.12933 -8.45587,5.67041 -13.08809,6.66212 -14.1656,3.03271 -28.30135,-2.35848 -42.77103,-3.05873 -6.2553,-0.30272 -12.57079,0.33809 -18.78232,-0.46043 -1.07661,-0.13841 -2.08434,-0.7427 -3.16983,-0.74621 -6.13825,-0.0199 -11.8523,3.41537 -17.95187,4.10362 -4.00945,0.45243 -8.08148,0.30652 -12.10469,0 -2.78559,-0.21223 -5.49866,-1.05746 -8.28425,-1.26969 -4.43751,-0.33805 -8.90078,0 -13.35112,0 -2.57263,0 -5.1493,-0.14432 -7.71788,0 -3.77209,0.21195 -7.4859,1.17879 -11.26288,1.26969 -10.82567,0.26054 -21.67185,-0.76053 -32.41972,-2.08204 -3.16858,-0.38959 -6.232,-1.58636 -9.42165,-1.71979 -8.71338,-0.36449 -17.41486,1.2445 -26.04027,2.53214 -2.11269,0.3154 -4.15578,1.05702 -6.28127,1.26969 -2.61332,0.26148 -5.25274,0 -7.87911,0 h -8.9085 c -10.27824,0 -20.85922,2.47587 -30.83481,0 -2.00441,-0.49745 -3.59838,-2.03839 -5.47667,-2.89698 -1.414015,-0.64638 -3.056541,-0.8237 -4.347018,-1.69085 -0.551487,-0.37058 -0.773836,-1.15559 -1.370976,-1.44694 -0.756447,-0.36908 -1.751554,0.11669 -2.513541,-0.24081 -0.77619,-0.36417 -1.058735,-1.42811 -1.825212,-1.81229 -1.651239,-0.82766 -3.653257,-1.54708 -5.513359,-1.46296 z" />
          <path
             style="display:inline;fill:#1d2e48;fill-opacity:1;stroke:none;stroke-width:0.264583px;stroke-linecap:butt;stroke-linejoin:miter;stroke-opacity:1"
             d="m 393.70391,228.13254 c -2.81065,-2.07038 6.60948,-4.3483 12.40925,-3.60443 3.91339,0.53816 7.84334,1.13469 11.79346,1.16307 5.25808,0.0378 10.46262,-1.1877 15.71911,-1.32243 4.71959,-0.12097 9.4428,0.18662 14.15586,0.46279 3.39412,0.19889 6.76361,0.86427 10.16355,0.85964 1.59559,-0.002 3.48467,0.53086 4.76864,-0.41643 1.0224,-0.75431 1.43727,-3.53028 1.43727,-3.53028 l -23.8483,0.34293 -19.82491,0.51142 H 399.9213 c 0.41884,0 -10.5814,0.12005 -10.5814,0.12005 l -8.10128,-0.12005 c 0,0 10.37974,6.55979 10.85033,6.55979 0.47059,0 0.92847,-1.05662 1.55699,-1.06377 0.0231,-2.6e-4 0.0367,0.0466 0.058,0.0377 z"
             id="path2246359"
             sodipodi:nodetypes="ccsssssccccccssc"
             inkscape:label="Highlight" />
        </g>
        <path
           style="display:inline;opacity:0.81;fill:#4cb4dc;stroke-width:0.264583"
           d="m 424.24668,306.39585 a 0.31485419,0.333375 0 0 0 0.31485,0.33337 0.31485419,0.333375 0 0 0 0.31485,-0.33337 0.31485419,0.333375 0 0 0 -0.31485,-0.33338 0.31485419,0.333375 0 0 0 -0.31485,0.33338 z"
           id="path3618837" />
        <path
           style="display:inline;fill:#4cb4dc;stroke-width:0.264583"
           d="m 563.42013,301.26028 a 0.31485419,0.333375 0 0 0 0.31485,0.33337 0.31485419,0.333375 0 0 0 0.31486,-0.33337 0.31485419,0.333375 0 0 0 -0.31486,-0.33338 0.31485419,0.333375 0 0 0 -0.31485,0.33338 z"
           id="path3618849" />
        <path
           id="path3618861"
           style="display:inline;fill:#19203d;fill-opacity:1;stroke-width:0.264583"
           d="m 400.66267,307.78435 v 7.33185 h 102.05165 l 2.836,-0.15296 z" />
        <path
           id="path3618858"
           style="display:inline;fill:#1d2e48;fill-opacity:1;stroke-width:0.264583"
           d="m 400.33659,300.98941 -0.057,14.16284 158.32741,-0.0361 h -75.3225 l 3.72329,-0.35709 6.84454,-0.97358 -24.75973,-1.33842 -19.13733,-0.80202 -9.94306,-0.59789 c 0,0 -16.80074,2.0145 -23.92361,-1.61127 -1.85528,-0.9444 -4.25387,-2.72445 -4.00595,-4.79144 0.23012,-1.9187 4.66483,-3.44217 4.66483,-3.44217 l 39.60792,-0.20516 z m 214.88198,0.03 -41.97005,4.92683 c -8.68591,1.60202 28.16847,1.3039 46.58527,1.77508 -11.8269,3.41904 -29.63253,2.8453 -47.56712,2.1854 -10.18371,0.0519 -20.55674,1.04789 -30.54078,-1.10588 -8.65011,-0.62748 -17.17644,-0.67971 -25.3602,0.8599 -3.88452,1.33389 25.52172,5.26785 39.52368,2.88923 6.99472,-0.59789 12.07757,-0.60862 13.26586,0.57671 -5.43299,0.23308 -7.62546,0.64581 -8.81704,1.11414 0.48078,0.14234 2.01369,0.58909 2.99,0.71158 1.87315,0.23501 3.77544,0.0638 5.66322,0.0651 2.95994,0.002 5.9193,-0.0563 8.87905,-0.0894 3.37123,-0.0377 6.74263,-0.13455 10.11411,-0.12506 2.97056,0.008 5.93955,0.13867 8.91005,0.1602 4.62278,0.0335 9.24565,-0.0784 13.8684,-0.0481 3.23985,0.0212 6.47942,0.11641 9.71879,0.20102 h 15.51172 c 5.1929,-0.20109 10.38225,-0.55729 15.57837,-0.64647 5.10728,-0.0877 10.25309,-0.51993 15.36599,-0.52762 3.06774,-0.005 6.12345,0.14362 9.15241,0.61082 0.7253,0.11186 1.76492,0.10994 2.70578,0.1943 3.78,-1.86044 16.25149,2.61749 16.05225,-2.30115 -0.18796,-4.64022 -13.96945,2.41897 -13.7542,-2.22002 0.45436,-9.79247 19.54301,-1.71042 29.3424,-1.97663 11.11762,-0.30202 27.2834,-6.30969 38.62503,-6.24199 5.94084,0.0354 12.00165,1.07854 12.21321,6.90035 0.31073,8.55088 -24.01678,-6.21862 -25.5757,2.1947 -0.59874,3.23136 6.88221,2.39232 10.19989,3.64216 0.0328,-0.0153 0.067,-0.0258 0.10439,-0.0258 0.15106,0 4.98346,0.29239 8.60051,0.39739 h 4.37441 c 3.54357,-0.11662 7.08515,-0.44997 10.62881,-0.36019 1.4329,0.0363 2.85819,0.20995 4.285,0.36019 h 9.51519 c 1.99974,-0.20276 3.9984,-0.52218 5.99188,-0.34158 0.44526,0.0403 1.06532,0.19372 1.59422,0.34158 h 0.88831 c -0.75775,-2.64614 -1.10715,-1.99701 -2.17351,-3.00705 -0.61688,-0.49327 -14.65255,-6.09053 -15.92357,-11.06754 z"
           sodipodi:nodetypes="cccccccccssccccccccccccssscssccscscsssssscsccsccsccccc" />
        <path
           id="path3618864"
           style="display:inline;fill:#1a2941;fill-opacity:1;stroke-width:0.264583"
           d="m 622.74683,300.13572 -205.99931,1.0666 c 0,0 -4.43471,1.52347 -4.66483,3.44217 -0.24792,2.067 2.15068,3.84704 4.00596,4.79144 7.12287,3.62578 23.9236,1.61127 23.9236,1.61127 l 9.94306,0.59789 19.13734,0.80202 24.75972,1.33842 -6.84454,0.97358 -3.72329,0.35709 h 75.50754 c 1.27284,-0.78417 1.67337,-1.61673 10.36319,-1.98954 -1.18829,-1.18533 -6.27113,-1.1746 -13.26586,-0.57671 -14.00197,2.37862 -43.40821,-1.55534 -39.52369,-2.88923 8.18377,-1.53961 16.71009,-1.48738 25.36021,-0.8599 9.98405,2.15377 20.35706,1.15776 30.54078,1.10588 17.93461,0.6599 35.74021,1.23364 47.56712,-2.1854 -18.41682,-0.47118 -55.27119,-0.17305 -46.58527,-1.77508 z"
           sodipodi:nodetypes="ccssccccccccccccccc" />
        <path
           id="path3618882"
           style="display:inline;opacity:0.5;fill:#263c5c;fill-opacity:1;stroke-width:0.31853"
           d="m 568.52499,296.02072 c -7.40359,0.0791 -14.79142,1.37501 -22.12681,2.48202 1.19212,2.10753 7.49517,-1.44773 10.54199,-0.25011 0.92121,0.3621 1.32539,1.61267 2.26704,1.91771 3.89152,1.26063 9.23394,1.85306 12.23698,-0.92449 0.75416,-0.69752 1.32185,-1.93648 1.41077,-3.09077 -0.35314,-0.0388 -0.70702,-0.0709 -1.06299,-0.0858 -1.08917,-0.0456 -2.1783,-0.0602 -3.26698,-0.0486 z" />
        <path
           id="path3008253"
           style="display:inline;fill:#1d2e48;fill-opacity:1;stroke-width:0.264583"
           d="m 400.33659,300.98941 -0.0568,14.16296 158.32728,-0.0362 H 483.2845 l 3.72329,-0.35709 6.84454,-0.97358 -24.75973,-1.33842 -19.13733,-0.80202 -9.94306,-0.59789 c 0,0 -16.80074,2.0145 -23.92361,-1.61127 -1.85528,-0.9444 -4.25387,-2.72445 -4.00595,-4.79144 0.23012,-1.9187 4.66483,-3.44217 4.66483,-3.44217 l 39.60792,-0.20516 z m 214.88198,0.03 -41.97005,4.92683 c -8.68591,1.60202 28.16847,1.3039 46.58527,1.77508 -11.8269,3.41904 -29.63253,2.8453 -47.56712,2.1854 -10.18371,0.0519 -20.55674,1.04789 -30.54078,-1.10588 -8.65011,-0.62748 -17.17644,-0.67971 -25.3602,0.8599 -3.88452,1.33389 25.52172,5.26785 39.52368,2.88923 6.99472,-0.59789 12.07757,-0.60862 13.26586,0.57671 -5.43299,0.23308 -7.62546,0.64581 -8.81704,1.11414 0.48078,0.14234 2.01369,0.58909 2.99,0.71158 1.87315,0.23501 3.77544,0.0638 5.66322,0.0651 2.95994,0.002 5.9193,-0.0563 8.87905,-0.0894 3.37123,-0.0377 6.74263,-0.13455 10.11411,-0.12506 2.97056,0.008 5.93955,0.13867 8.91005,0.1602 4.62278,0.0335 9.24565,-0.0784 13.8684,-0.0481 3.23985,0.0212 6.47942,0.11641 9.71879,0.20102 h 15.51172 c 5.1929,-0.20109 10.38225,-0.55729 15.57837,-0.64647 5.10728,-0.0877 10.25309,-0.51993 15.36599,-0.52762 3.06774,-0.005 6.12345,0.14362 9.15241,0.61082 0.7253,0.11186 1.76492,0.10994 2.70578,0.1943 3.78,-1.86044 16.25149,2.61749 16.05225,-2.30115 -0.18796,-4.64022 -13.96945,2.41897 -13.7542,-2.22002 0.45436,-9.79247 19.54301,-1.71042 29.3424,-1.97663 11.11762,-0.30202 27.2834,-6.30969 38.62503,-6.24199 5.94084,0.0354 12.00165,1.07854 12.21321,6.90035 0.31073,8.55088 -24.01678,-6.21862 -25.5757,2.1947 -0.59874,3.23136 6.88221,2.39232 10.19989,3.64216 0.0328,-0.0153 0.067,-0.0258 0.10439,-0.0258 0.15106,0 4.98346,0.29239 8.60051,0.39739 h 4.37441 c 3.54357,-0.11662 7.08515,-0.44997 10.62881,-0.36019 1.4329,0.0363 2.85819,0.20995 4.285,0.36019 h 9.51519 c 1.99974,-0.20276 3.9984,-0.52218 5.99188,-0.34158 0.44526,0.0403 1.06532,0.19372 1.59422,0.34158 h 0.88831 c -0.75775,-2.64614 -1.10715,-1.99701 -2.17351,-3.00705 -0.48552,-0.38823 -9.28342,-3.93817 -13.628,-7.85898 -1.17545,-1.0608 -2.02492,-2.14874 -2.29557,-3.20856 z"
           sodipodi:nodetypes="cccccccccssccccccccccccssscssccscscsssssscsccsccscccscc" />
        <path
           id="rect3008250"
           style="display:inline;fill:#1a2941;fill-opacity:1;fill-rule:evenodd;stroke:none;stroke-width:0.256011;stroke-linecap:square;stroke-linejoin:bevel;stroke-dasharray:none;stroke-dashoffset:2.84519;stroke-opacity:1;paint-order:stroke markers fill"
           d="m 400.37018,300.98536 v 0.004 l 55.98521,0.008 -39.60791,0.20516 c 0,0 -4.43471,1.52347 -4.66483,3.44217 -0.24792,2.06698 2.15068,3.84704 4.00595,4.79144 7.12286,3.62576 23.92361,1.61127 23.92361,1.61127 l 9.94306,0.59789 19.13733,0.80202 24.75973,1.33842 -6.84454,0.97358 -3.72329,0.35709 h 75.32253 l -158.32741,0.0359 c 130.40574,0.008 260.90336,-0.0361 391.30958,-0.0361 v 0 h -0.59583 c -0.5289,-0.14786 -1.14896,-0.30128 -1.59422,-0.34158 -1.99348,-0.1806 -3.99215,0.13882 -5.99188,0.34158 h -9.51519 c -1.4268,-0.15024 -2.85211,-0.32389 -4.285,-0.36019 -3.54366,-0.0898 -7.08525,0.24357 -10.62881,0.36019 h -4.37441 c -3.61705,-0.105 -8.44945,-0.39739 -8.60051,-0.39739 -0.0374,0 -0.0716,0.0105 -0.10439,0.0258 -3.31768,-1.24984 -10.79863,-0.4108 -10.19989,-3.64216 1.55892,-8.41331 25.88643,6.35617 25.5757,-2.1947 -0.21156,-5.8218 -6.27238,-6.86495 -12.21321,-6.90035 -11.34162,-0.0677 -27.50742,5.93997 -38.62503,6.24199 -9.79938,0.26621 -28.88804,-7.81583 -29.3424,1.97663 -0.21525,4.63898 13.56624,-2.4202 13.7542,2.22002 0.19924,4.91863 -12.27225,0.44071 -16.05225,2.30115 -0.94086,-0.0844 -1.98048,-0.0824 -2.70578,-0.1943 -3.02895,-0.4672 -6.08467,-0.61582 -9.15241,-0.61082 -5.1129,0.008 -10.25871,0.43992 -15.36599,0.52762 -5.19611,0.0892 -10.38548,0.44538 -15.57837,0.64647 h -15.51172 c -3.23937,-0.0846 -6.47894,-0.17982 -9.71879,-0.20102 -4.62274,-0.0303 -9.24562,0.0816 -13.8684,0.0481 -2.9705,-0.0215 -5.93949,-0.1522 -8.91005,-0.1602 -3.37148,-0.009 -6.74289,0.0874 -10.11411,0.12506 -2.95975,0.0331 -5.91911,0.0914 -8.87905,0.0894 -1.88777,-10e-4 -3.79007,0.16989 -5.66322,-0.0651 -0.97631,-0.12249 -2.50922,-0.56924 -2.99,-0.71158 1.19158,-0.46833 3.38405,-0.88106 8.81704,-1.11414 -1.18829,-1.18533 -6.27115,-1.1746 -13.26586,-0.57671 -14.00195,2.37862 -43.4082,-1.55534 -39.52368,-2.88923 8.18375,-1.53961 16.7101,-1.48738 25.3602,-0.8599 9.98403,2.15377 20.35708,1.15776 30.54078,1.10588 17.93457,0.6599 35.74023,1.23364 47.56712,-2.1854 -18.41678,-0.47118 -55.27117,-0.17307 -46.58527,-1.77508 l 41.97005,-4.92683 158.56603,0.0222 c 1.27102,4.977 15.30669,10.57427 15.92357,11.06754 0.91911,0.87056 1.30662,0.51928 1.88103,2.09703 v -12.81715 z"
           sodipodi:nodetypes="ccccssccccccccccccccsccscsscssscscsccsscssscccccccccccccc" />
      </g>
    </g>
  </g>
</svg>
