<?xml version="1.0" encoding="UTF-8" standalone="no"?>
<!-- Created with Inkscape (http://www.inkscape.org/) -->

<svg
   width="366.51801mm"
   height="32.938mm"
   viewBox="0 0 366.51801 32.938001"
   version="1.1"
   id="svg162186"
   inkscape:version="1.1.2 (0a00cf5339, 2022-02-04)"
   sodipodi:docname="FelsenUntenOBS.svg"
   xmlns:inkscape="http://www.inkscape.org/namespaces/inkscape"
   xmlns:sodipodi="http://sodipodi.sourceforge.net/DTD/sodipodi-0.dtd"
   xmlns="http://www.w3.org/2000/svg"
   xmlns:svg="http://www.w3.org/2000/svg">
  <sodipodi:namedview
     id="namedview162188"
     pagecolor="#505050"
     bordercolor="#eeeeee"
     borderopacity="1"
     inkscape:pageshadow="0"
     inkscape:pageopacity="0"
     inkscape:pagecheckerboard="0"
     inkscape:document-units="mm"
     showgrid="false"
     inkscape:zoom="0.41476498"
     inkscape:cx="710.04066"
     inkscape:cy="284.49847"
     inkscape:window-width="1920"
     inkscape:window-height="1011"
     inkscape:window-x="0"
     inkscape:window-y="0"
     inkscape:window-maximized="1"
     inkscape:current-layer="layer1" />
  <defs
     id="defs162183" />
  <g
     inkscape:label="Layer 1"
     inkscape:groupmode="layer"
     id="layer1">
    <g
       id="g168818">
      <path
         style="fill:#1a2941;fill-opacity:1;stroke:none;stroke-width:0.264583px;stroke-linecap:butt;stroke-linejoin:miter;stroke-opacity:1"
         d="m 166.13615,32.787124 h 131.90914 l -24.13712,-27.2704497 -9.0669,3.4872655 -9.94832,16.2846802 -10.26156,0.72725 -16.08788,-6.755951 -14.90423,5.208489 -17.21062,2.854848 -8.06832,-3.816416 -13.397,-9.965882 -13.56235,3.292122 -1.49603,10.734259 z"
         id="path164732" />
      <g
         id="g164314"
         transform="translate(78.401049,-162.5454)">
        <path
           id="path1227032"
           style="display:inline;fill:#19253c;fill-opacity:1;stroke-width:0.264583"
           inkscape:label="GroundShadow"
           d="m 212.19722,162.54747 c -8.8e-4,2.2e-4 -0.002,3e-4 -0.003,5.1e-4 l 0.22996,0.46251 c -16.46749,4.24908 -23.9422,8.53539 -23.9422,8.53539 l -0.42737,0.70073 c -0.019,-0.008 -0.0442,-0.018 -0.0687,-0.0279 0.0115,0.005 0.0218,0.009 0.0331,0.014 0.0122,0.005 0.0246,0.0103 0.0357,0.015 l 5.2e-4,-0.001 c 0.54318,0.22944 1.23004,0.50978 1.95182,0.79686 0.14583,0.0579 0.28535,0.11417 0.43615,0.17311 0.41171,0.16127 0.86609,0.32278 1.30379,0.48576 0.39245,0.14597 0.76484,0.29291 1.16737,0.43408 0.58882,0.20628 1.1816,0.404 1.7632,0.58395 0.24786,0.0767 0.49049,0.14607 0.73277,0.21549 0.23701,0.0678 0.47048,0.13216 0.6997,0.19172 0.27964,0.0727 0.55403,0.14046 0.81804,0.19843 0.11072,0.0243 0.22028,0.0478 0.32763,0.0693 0.34163,0.0681 0.67066,0.12529 0.97203,0.1602 0.014,0.002 0.0291,0.005 0.0424,0.006 l -1.39165,10.46396 1.39165,1.64331 v 7.73079 h 34.25476 l -14.07356,-14.72261 -2.82464,-7.68015 -0.001,-5.2e-4 -1.82831,-7.24142 z m 3.50418,10.48411 17.30541,9.37359 0.0181,12.99404 h 55.09225 l -19.11925,-6.83783 -4.45296,-4.70669 -22.61929,-3.59306 -19.89646,-4.21215 z m -59.26305,6.9789 6.30401,5.63532 -0.001,5.1e-4 5.1e-4,5.2e-4 -0.002,5.2e-4 0.001,0.001 c 0,0 -0.12303,0.0488 -0.12971,0.0517 -0.10059,0.0436 -0.62477,0.26409 -1.55546,0.61805 -0.16072,0.0613 -0.20836,0.0789 -0.39016,0.14624 -0.4541,0.16884 -0.96395,0.34787 -1.53324,0.54157 -0.15096,0.0513 -0.2736,0.0956 -0.4315,0.1478 -0.75647,0.25055 -1.57197,0.50465 -2.45669,0.7524 -0.0115,0.003 -0.0206,0.007 -0.032,0.01 -0.62916,0.17572 -1.28327,0.34468 -1.95389,0.50178 -0.0211,0.005 -0.0421,0.01 -0.063,0.0145 -1.13866,0.26502 -2.31893,0.4907 -3.5016,0.64647 -0.0552,0.007 -0.11019,0.0172 -0.16536,0.0243 -0.25196,0.0318 -0.50275,0.0543 -0.75396,0.0791 -0.16857,0.0169 -0.33794,0.04 -0.50591,0.0532 -0.001,-4.3e-4 -0.002,-6e-4 -0.003,-10e-4 -3.4e-4,3e-5 -6.9e-4,-3e-5 -0.001,0 -0.0178,-0.007 -0.0359,-0.0139 -0.0537,-0.0212 -1.20481,-0.49231 -2.45624,-0.9802 -3.49591,-1.35754 -0.002,-7e-4 -0.004,-0.002 -0.006,-0.003 -5.9e-4,-2.2e-4 -9.7e-4,-3.1e-4 -0.002,-5.2e-4 -0.52837,-0.19177 -1.0022,-0.35518 -1.38752,-0.47697 h -5.1e-4 c -0.38539,-0.12181 -0.68211,-0.20167 -0.8568,-0.22635 l -1.56631,3.9486 3.28197,1.1281 0.35553,1.16995 7.1975,1.93735 -14.38052,-0.0961 c 0,0 0.007,-0.0278 0.007,-0.0294 h -5.1e-4 v 5.1e-4 h -0.21653 l -0.0734,0.19069 h 35.61592 l -7.45226,-6.83731 h 0.002 l -0.002,-0.002 0.002,5.2e-4 -5.2e-4,-0.001 h -5.2e-4 z m -98.60328,2.24638 1.11518,2.5988 2.04018,1.16944 H 48.35399 l -4.51393,7.72304 -2.91042,-0.4811 -1.59783,1.09089 c -0.21346,-0.61925 -0.46614,-1.15742 -0.72761,-1.25367 -0.64004,-0.23627 -5.21728,-0.58145 -6.42545,-0.56948 -0.0805,8e-4 -0.14639,0.003 -0.19482,0.007 -0.1768,0.015 -0.61301,0.25176 -1.18287,0.60719 -0.72997,0.45659 -1.67365,1.10737 -2.56728,1.74098 l -5.82239,-3.0949 -11.57552,3.4029 v -0.96584 l -15.24558,0.96584 -4.22506,-0.96584 -10.73682,-0.60306 1.3255,-0.13333 0.0274,-0.003 52.66707,-5.29425 -54.01996,5.42913 -20.32796,-0.8599 -38.701509,2.62981 107.591369,5.2e-4 -0.15348,-0.0817 h 8.88989 l -0.11937,0.0817 h 31.90658 l 0.46251,-0.0817 h -2.91559 c -1.28617,-0.42995 -2.47717,-1.03583 -3.55172,-1.85518 l -0.44597,-0.24133 c 3.50539,-2.70328 5.63543,-4.92565 7.80159,-6.42907 l -1.39629,-0.44441 z m -5.3697,0.57826 -7.88169,0.85007 7.87446,-0.84801 z m 78.74197,2.63808 -2.16628,2.19676 -8.93279,0.58343 4.34289,0.95756 3.01739,3.6587 1.16737,-3.85817 0.40514,-1.33893 5.2e-4,-0.002 5.1e-4,-5.2e-4 0.0543,-0.0553 z m 47.5852,3.32486 2.60915,1.09141 6.06784,0.73328 -6.06733,-0.73483 z m -1.04438,2.41691 -0.77773,4.18372 h 19.05052 l -3.65197,-4.18269 -0.009,-0.001 z m -76.55295,3.99252 v 5.1e-4 l 5.2e-4,-5.1e-4 z m 0,5.1e-4 h -1.99264 l -2.07998,0.19069 h 29.58063 l 0.0579,-0.19069 h -18.66966 l -0.0279,0.10904 h -3.44682 l -3.42563,-0.0816 z" />
        <path
           id="path2181"
           style="display:inline;fill:#162237;fill-opacity:1;stroke-width:0.264583"
           inkscape:label="GroundShadow"
           d="m 92.02936,169.2778 c 0,0 -0.33166,0.10762 -0.45475,0.14366 0.29695,-0.0714 0.50902,-0.1142 0.50902,-0.1142 l 1.52187,0.67748 z m 5.2524,2.35593 c -0.0176,0.0289 -3.44897,5.66669 -7.7711,6.91793 -4.33507,1.25447 -6.51072,0.82682 -6.51072,0.82682 l -2.19315,-3.12539 c 1.94253,-2.10162 3.88825,-3.5701 5.60845,-4.60592 -1.94574,1.08773 -4.04097,2.5829 -5.66271,4.57646 v 10.89495 l -1.94303,2.09134 -0.002,0.008 0.007,0.003 -0.28629,1.01079 -0.43977,1.59991 -0.0269,0.0971 -0.52141,1.89704 -2.69338,0.66766 -4.66896,0.82372 h 27.83499 l 1.18959,-0.10904 h 1.99264 l 0.26252,-1.65002 -11.37915,-1.61954 1.53737,-0.72502 -9.82679,0.51831 -0.37,-1.64641 0.0842,0.0279 5.08031,-0.0884 -0.41703,-0.33745 -0.54053,-5.71955 -2.70113,-1.28467 14.83837,-1.91306 0.30851,-0.10646 0.63975,7.38922 11.30112,-1.97249 9.99836,2.17971 0.0961,-0.006 -2.08101,-0.45888 -3.13728,-0.73329 -4.92941,-1.00976 -3.29438,-6.78098 -5.82703,-3.14555 -3.46025,-4.4483 z m 89.36819,0.008 c 0.22514,0.0999 0.65801,0.29088 1.38802,0.59893 -0.82775,-0.34952 -1.23937,-0.53324 -1.38802,-0.59893 z m 1.40301,0.60617 -9.50536,15.58612 -1.75803,0.12403 -0.29766,-0.12403 v 5.2e-4 l 0.29611,0.12402 h -0.002 l 4.61574,1.92753 10.96677,1.32809 3.58169,4.10259 h 2.31872 v -7.64759 l -1.39164,-1.64331 1.39164,-10.46397 c -2.8259,-0.31481 -7.69771,-2.25133 -10.21591,-3.314 z m 27.573,0.74362 2.82566,7.68325 13.99656,14.642 h 0.57568 l -0.0176,-12.91136 -17.35191,-9.39839 -0.016,-0.008 z m -70.99774,5.24619 -10.24744,4.01629 -5.3392,5.41621 -1.57303,5.2002 -2.92696,-3.54862 0.80719,1.77405 h -10.68669 -5.51026 l -1.06091,4.11189 h 18.67017 l -0.0331,0.10904 h 11.36985 l 0.0419,-0.10904 h 0.21756 c 0.005,-0.0197 0.0316,-0.13022 0.0889,-0.35605 0.0263,-0.0906 0.0873,-0.31419 0.0873,-0.31419 l 4.79558,-7.38353 c 0,0 0.0877,-0.006 0.1297,-0.006 h 0.004 l -5.2e-4,5.2e-4 c 0.69875,0.0987 3.35324,1.0829 5.80223,2.08514 6.44077,-0.50575 13.47721,-3.58738 13.47721,-3.58738 l -6.4642,-5.77845 z m -86.79418,4.01681 -13.25036,1.42885 7.88686,-0.84956 -8.11733,1.90273 -8.44548,3.98425 -9.78184,1.16944 -20.25871,2.10891 -1.38389,0.54261 -22.50199,0.95136 -1.35289,0.13591 10.73682,0.60306 4.22506,0.96584 15.24558,-0.96584 v 0.96584 l 11.57552,-3.4029 5.82239,3.0949 c 0.89362,-0.63361 1.83731,-1.28439 2.56728,-1.74098 0.56986,-0.35542 1.00607,-0.59215 1.18287,-0.60719 0.0484,-0.004 0.11428,-0.006 0.19482,-0.007 1.20817,-0.012 5.78541,0.3332 6.42545,0.56947 0.26147,0.0962 0.51415,0.63442 0.72761,1.25367 l 1.59783,-1.09089 2.91042,0.48111 4.51393,-7.72304 h 12.63644 l -2.04018,-1.16944 z m 108.397,6.30504 7.36492,6.75721 h 3.38946 l 0.76274,-4.10362 z m -42.58087,0.47491 -0.0398,0.0103 0.85731,0.18655 -0.017,-0.0202 z" />
        <path
           id="polygon2189"
           style="display:inline;fill:#203657;fill-opacity:1;stroke-width:0.264583"
           inkscape:label="GroundHL"
           d="m 212.19464,162.5454 c -17.74541,4.39729 -25.76742,8.99842 -25.76742,8.99842 l 0.002,10e-4 c 0,1e-5 0.009,0.004 0.009,0.004 1.9e-4,1e-4 0.002,5.2e-4 0.002,5.2e-4 0.0105,0.004 0.63508,0.28532 1.61385,0.69815 l 0.42944,-0.70383 c 0,0 0.46717,-0.26766 1.42523,-0.73588 0.95804,-0.46822 2.40673,-1.13703 4.37028,-1.93838 0.98175,-0.40067 2.09266,-0.83433 3.33468,-1.29294 1.24203,-0.45863 2.61556,-0.9421 4.12378,-1.44178 1.50825,-0.49968 3.15109,-1.01559 4.93148,-1.53944 1.78038,-0.52386 3.69833,-1.05583 5.75675,-1.58698 l -0.22996,-0.46251 z m -120.1105,6.76134 c 0,0 -5.70364,0.87333 -11.30641,6.93494 l 2.21699,3.13949 c 0,0 2.18139,0.42444 6.51645,-0.83003 4.33328,-1.25446 7.77731,-6.92723 7.77731,-6.92723 z m 123.54233,3.68453 0.0124,0.008 5.83272,2.78175 z m 6.40685,3.05666 19.89284,4.21163 22.61929,3.59306 z m -124.26942,4.72168 -14.83837,1.91306 2.70112,1.28468 0.14403,1.78071 0.18365,-0.37453 0.19614,-1.64332 7.22042,-1.44803 z m -39.92935,1.48466 12.1419,4.68034 -6.71329,6.28592 1.05627,0.67541 1.40198,0.79737 1.53944,0.62373 2.68407,0.0408 4.90203,-0.86455 2.69338,-0.66766 1.25935,-4.55114 0.0155,-0.0543 z m -5.36349,0.5793 -7.88686,0.84956 -9.93531,4.51393 -52.69446,5.29684 22.52937,-0.9524 1.3839,-0.5426 20.25871,-2.10892 9.78183,-1.16944 8.44548,-3.98425 z m 57.54222,3.24631 -11.30112,1.97249 -4.12998,1.83244 -7.99796,0.13953 -5.08031,0.0884 -0.0842,-0.0279 0.37,1.64641 9.82679,-0.51831 -1.53737,0.72502 11.37915,1.61954 0.11265,-0.70538 h -0.76016 v -3.16519 l 8.34161,0.74104 v 0.66766 h 5.51026 10.68668 l -0.84439,-1.85621 -0.894,-0.19482 5.43068,-1.37408 -9.02994,0.58911 z m 66.47811,1.75441 -8.36021,0.59015 v 5.2e-4 l 0.15503,0.13435 8.50232,-0.60099 -0.29662,-0.12403 z m -34.59272,3.26389 3.27991,1.12809 0.35553,1.16944 7.19698,1.93735 4.44624,0.15038 v -5.2e-4 c 0,0 -2.77768,-3.50822 -3.37809,-4.12946 0,0 -0.74519,0.66176 -3.6773,0.49248 -2.9248,-0.17459 -8.2039,-0.74565 -8.22327,-0.74776 z m 11.90057,0.25528 h 5.1e-4 v -5.2e-4 c -0.009,-0.01 -0.02,-0.0199 -0.0331,-0.031 0.0129,0.0108 0.0234,0.022 0.0326,0.0315 z M 32.1772,192.53633 c -0.0805,8e-4 -0.14639,0.004 -0.19482,0.008 l -0.55448,2.18695 c 0,0 5.30538,0.10545 7.92716,-0.30644 -0.21816,-0.64886 -0.47971,-1.22047 -0.75241,-1.31827 -0.64006,-0.23627 -5.21728,-0.58196 -6.42545,-0.56999 z"
           sodipodi:nodetypes="cccccccssssscccccccccccccccccccccccccccccccccccccccccccccccccccccccccccccccccccccccccccccccccccccsccccsccccscc" />
        <path
           id="polygon1850037"
           style="display:inline;fill:#253044;fill-opacity:1;stroke-width:0.264583"
           inkscape:label="GroundShadowWarm"
           d="m 186.4298,171.54382 -9.93789,16.29048 -10.26036,0.72501 12.06943,5e-5 z m -41.799,6.69674 -10.25001,4.0137 -5.33921,5.41624 -9.02994,0.58909 0.47335,0.10335 10.61227,-0.69244 5.33921,-5.41624 9.70794,-3.80182 z"
           sodipodi:nodetypes="cccccccccccccc" />
      </g>
    </g>
  </g>
</svg>
