<?xml version="1.0" encoding="UTF-8" standalone="no"?>
<!-- Created with Inkscape (http://www.inkscape.org/) -->

<svg
   width="98.275002mm"
   height="29.58mm"
   viewBox="0 0 98.275003 29.580001"
   version="1.1"
   id="svg162186"
   inkscape:version="1.2.2 (b0a8486541, 2022-12-01)"
   sodipodi:docname="FireShonkText.svg"
   xmlns:inkscape="http://www.inkscape.org/namespaces/inkscape"
   xmlns:sodipodi="http://sodipodi.sourceforge.net/DTD/sodipodi-0.dtd"
   xmlns:xlink="http://www.w3.org/1999/xlink"
   xmlns="http://www.w3.org/2000/svg"
   xmlns:svg="http://www.w3.org/2000/svg">
  <sodipodi:namedview
     id="namedview162188"
     pagecolor="#505050"
     bordercolor="#eeeeee"
     borderopacity="1"
     inkscape:pageshadow="0"
     inkscape:pageopacity="0"
     inkscape:pagecheckerboard="0"
     inkscape:document-units="mm"
     showgrid="false"
     inkscape:zoom="1.3294071"
     inkscape:cx="231.68224"
     inkscape:cy="43.252365"
     inkscape:window-width="1920"
     inkscape:window-height="1011"
     inkscape:window-x="0"
     inkscape:window-y="0"
     inkscape:window-maximized="1"
     inkscape:current-layer="g169161"
     inkscape:showpageshadow="0"
     inkscape:deskcolor="#505050" />
  <defs
     id="defs162183">
    <linearGradient
       inkscape:collect="always"
       id="linearGradient124493">
      <stop
         style="stop-color:#e7ac00;stop-opacity:1;"
         offset="0"
         id="stop124489" />
      <stop
         style="stop-color:#e74900;stop-opacity:1;"
         offset="1"
         id="stop124491" />
    </linearGradient>
    <filter
       inkscape:collect="always"
       style="color-interpolation-filters:sRGB"
       id="filter1733772"
       x="-0.012270187"
       y="-0.10502762"
       width="1.0245404"
       height="1.2100552">
      <feGaussianBlur
         inkscape:collect="always"
         stdDeviation="0.4628334"
         id="feGaussianBlur1733774" />
    </filter>
    <linearGradient
       inkscape:collect="always"
       xlink:href="#linearGradient124493"
       id="linearGradient171072"
       gradientUnits="userSpaceOnUse"
       gradientTransform="matrix(0.78995629,-0.02139044,0.02139044,0.78995629,184.89293,-191.63652)"
       x1="221.97623"
       y1="434.97144"
       x2="234.3083"
       y2="379.4502" />
    <linearGradient
       inkscape:collect="always"
       xlink:href="#linearGradient124493"
       id="linearGradient171074"
       gradientUnits="userSpaceOnUse"
       gradientTransform="matrix(0.78995629,-0.02139044,0.02139044,0.78995629,184.89293,-191.63652)"
       x1="221.97623"
       y1="434.97144"
       x2="234.3083"
       y2="379.4502" />
    <linearGradient
       inkscape:collect="always"
       xlink:href="#linearGradient124493"
       id="linearGradient171076"
       gradientUnits="userSpaceOnUse"
       gradientTransform="matrix(0.78995629,-0.02139044,0.02139044,0.78995629,184.89293,-191.63652)"
       x1="221.97623"
       y1="434.97144"
       x2="234.3083"
       y2="379.4502" />
    <linearGradient
       inkscape:collect="always"
       xlink:href="#linearGradient124493"
       id="linearGradient171078"
       gradientUnits="userSpaceOnUse"
       gradientTransform="matrix(0.78995629,-0.02139044,0.02139044,0.78995629,184.89293,-191.63652)"
       x1="221.97623"
       y1="434.97144"
       x2="234.3083"
       y2="379.4502" />
    <linearGradient
       inkscape:collect="always"
       xlink:href="#linearGradient124493"
       id="linearGradient171080"
       gradientUnits="userSpaceOnUse"
       gradientTransform="matrix(0.78995629,-0.02139044,0.02139044,0.78995629,184.89293,-191.63652)"
       x1="221.97623"
       y1="434.97144"
       x2="234.3083"
       y2="379.4502" />
    <linearGradient
       inkscape:collect="always"
       xlink:href="#linearGradient124493"
       id="linearGradient171082"
       gradientUnits="userSpaceOnUse"
       gradientTransform="matrix(0.78995629,-0.02139044,0.02139044,0.78995629,184.89293,-191.63652)"
       x1="221.97623"
       y1="434.97144"
       x2="234.3083"
       y2="379.4502" />
    <linearGradient
       inkscape:collect="always"
       xlink:href="#linearGradient124493"
       id="linearGradient171084"
       gradientUnits="userSpaceOnUse"
       gradientTransform="matrix(0.78995629,-0.02139044,0.02139044,0.78995629,184.89293,-191.63652)"
       x1="221.97623"
       y1="434.97144"
       x2="234.3083"
       y2="379.4502" />
    <linearGradient
       inkscape:collect="always"
       xlink:href="#linearGradient124493"
       id="linearGradient171086"
       gradientUnits="userSpaceOnUse"
       gradientTransform="matrix(0.78995629,-0.02139044,0.02139044,0.78995629,184.89293,-191.63652)"
       x1="221.97623"
       y1="434.97144"
       x2="234.3083"
       y2="379.4502" />
    <linearGradient
       inkscape:collect="always"
       xlink:href="#linearGradient124493"
       id="linearGradient171088"
       gradientUnits="userSpaceOnUse"
       gradientTransform="matrix(0.78995629,-0.02139044,0.02139044,0.78995629,184.89293,-191.63652)"
       x1="221.97623"
       y1="434.97144"
       x2="234.3083"
       y2="379.4502" />
    <linearGradient
       inkscape:collect="always"
       xlink:href="#linearGradient124493"
       id="linearGradient171090"
       gradientUnits="userSpaceOnUse"
       gradientTransform="matrix(0.78995629,-0.02139044,0.02139044,0.78995629,184.89293,-191.63652)"
       x1="221.97623"
       y1="434.97144"
       x2="234.3083"
       y2="379.4502" />
  </defs>
  <g
     inkscape:label="Layer 1"
     inkscape:groupmode="layer"
     id="layer1">
    <g
       id="g169161"
       transform="translate(-316.38599,-125.54939)">
      <g
         aria-label="Fire Shonks"
         transform="rotate(-1.5510761)"
         id="text100263"
         style="font-size:27.3329px;line-height:17.0831px;letter-spacing:0px;word-spacing:0px;display:inline;fill:#e6e7e7;stroke:#121c2d;stroke-width:1.98506;paint-order:stroke markers fill">
        <path
           d="m 322.89928,149.12699 q 0,0.347 -0.0267,1.09439 0,0.74738 -0.0267,1.68161 -0.0267,0.93423 -0.0801,1.94854 -0.0267,0.98761 -0.10677,1.81507 -0.0801,0.80077 -0.18684,1.33462 -0.0801,0.53384 -0.21354,0.53384 -0.40039,0 -0.77408,-0.56053 -0.347,-0.58723 -0.72069,-1.25454 -0.0801,-0.16016 -0.18684,-0.93423 -0.0801,-0.80077 -0.18685,-2.00192 -0.0801,-1.20116 -0.16015,-2.66923 -0.0801,-1.46808 -0.16016,-2.98954 -0.0801,-1.52146 -0.13346,-2.98953 -0.0267,-1.46808 -0.0534,-2.64254 -0.0267,-1.17446 0,-1.94854 0.0267,-0.80076 0.10676,-0.93423 0.10677,-0.18684 0.74739,-0.26692 0.64061,-0.10677 1.54815,-0.10677 0.93423,0 2.00192,0.0534 1.06769,0.0534 1.97523,0.16015 0.93423,0.0801 1.54815,0.18685 0.64062,0.10677 0.7207,0.18684 0.10677,0.10677 0.0267,0.58723 -0.0534,0.45377 -0.21354,1.01431 -0.13346,0.53384 -0.347,1.01431 -0.18685,0.48046 -0.32031,0.61392 -0.13346,0.13346 -1.25453,-0.0267 -1.09439,-0.16016 -3.52339,-0.3737 v 4.45762 q 1.86846,0.16015 2.90946,0.29361 1.06769,0.13346 1.12108,0.18685 0.10677,0.10677 0.0801,0.42707 -0.0267,0.32031 -0.13347,0.694 -0.10676,0.347 -0.26692,0.66731 -0.16015,0.29362 -0.32031,0.40038 -0.0801,0.0534 -0.96092,0.16016 -0.85415,0.10677 -2.429,0.18684 z"
           style="font-family:'Jolly Lodger';-inkscape-font-specification:'Jolly Lodger'"
           id="path491" />
        <path
           d="m 331.25397,145.9773 q 0.0534,0.13347 0.0534,0.85416 0.0267,0.694 0,1.7083 0,0.98762 -0.0534,2.13539 -0.0534,1.12107 -0.13346,2.13538 -0.0534,0.98761 -0.13346,1.70831 -0.0801,0.69399 -0.16016,0.82746 -0.24023,0.37369 -0.72069,0.48046 -0.48046,0.0801 -0.694,0.0267 -0.10677,0 -0.24023,-0.61392 -0.10677,-0.61393 -0.21354,-1.54816 -0.10677,-0.93423 -0.18684,-2.02861 -0.0801,-1.09438 -0.13346,-2.082 -0.0534,-1.0143 -0.0534,-1.76169 0,-0.74738 0.0534,-0.96092 0.0801,-0.347 0.45376,-0.61392 0.40039,-0.26693 0.82746,-0.40039 0.45377,-0.13346 0.82747,-0.10677 0.40038,0 0.50715,0.24023 z m 0.13346,-4.32415 q 0.10677,0.21354 0.0801,0.58723 0,0.3737 -0.0801,0.77408 -0.0801,0.40039 -0.21354,0.77408 -0.13346,0.37369 -0.26692,0.58723 -0.26692,0.37369 -0.80077,0.48046 -0.50715,0.0801 -0.74738,0.0267 -0.18685,-0.0267 -0.3737,-0.24023 -0.18684,-0.24023 -0.3203,-0.56054 -0.13346,-0.347 -0.18685,-0.74738 -0.0534,-0.40039 0.0267,-0.74739 0.0801,-0.347 0.50716,-0.61392 0.42707,-0.29361 0.90753,-0.42707 0.48047,-0.16016 0.90754,-0.13347 0.42708,0 0.56054,0.24023 z"
           style="font-family:'Jolly Lodger';-inkscape-font-specification:'Jolly Lodger'"
           id="path493" />
        <path
           d="m 339.12819,142.90769 q 0.21354,0.13346 0.40039,0.53385 0.21354,0.37369 0.37369,0.88084 0.18685,0.48046 0.29361,1.041 0.13347,0.56054 0.21354,1.041 0.10677,0.48046 0.13346,0.82746 0.0267,0.32031 0,0.40039 -0.0534,0.10677 -0.3203,0.21353 -0.24023,0.10677 -0.7207,0.24023 -0.48046,0.13347 -1.33461,0.29362 -0.0534,-1.46808 -0.21354,-2.21546 -0.16015,-0.77408 -0.347,-1.09438 -0.21354,-0.3737 -0.45377,-0.3737 -0.24023,0.10677 -0.42707,0.26693 -0.18685,0.13346 -0.32031,0.29361 -0.16015,0.18685 -0.29362,0.40039 -0.0534,0.0801 -0.10676,0.37369 -0.0534,0.29361 -0.10677,0.88084 0,0.18685 -0.0267,0.77408 0,0.58723 -0.0267,1.36131 0,0.77407 -0.0267,1.62823 0,0.85415 -0.0267,1.60153 0,0.7207 -0.0267,1.22785 0,0.50715 -0.0267,0.58723 -0.0534,0.13346 -0.26692,0.37369 -0.21354,0.24023 -0.48046,0.45377 -0.26692,0.18685 -0.50715,0.32031 -0.24024,0.10677 -0.32031,-0.0267 -0.0801,-0.0801 -0.16016,-0.69399 -0.0801,-0.61393 -0.18684,-1.49477 -0.0801,-0.90754 -0.18685,-1.97523 -0.10677,-1.06769 -0.18684,-2.05531 -0.0801,-0.98761 -0.13347,-1.76169 -0.0534,-0.80077 -0.0801,-1.14777 -0.0267,-0.50715 -0.0534,-1.12107 -0.0267,-0.61393 -0.0534,-1.14777 0,-0.56054 0,-0.96092 0.0267,-0.42708 0.10677,-0.50716 0.0534,-0.0801 0.347,-0.0267 0.32031,0.0267 0.6673,0.16016 0.3737,0.10676 0.694,0.29361 0.32031,0.18685 0.42708,0.347 0.0801,0.13346 0.16015,0.40038 0.50716,-0.26692 0.96093,-0.48046 0.48046,-0.24023 0.90753,-0.347 0.45377,-0.10677 0.88085,-0.0534 0.42708,0.0267 0.85415,0.26692 z"
           style="font-family:'Jolly Lodger';-inkscape-font-specification:'Jolly Lodger'"
           id="path495" />
        <path
           d="m 343.47904,149.74092 q 0.42707,-0.16016 0.96092,-0.347 0.56054,-0.21354 1.06769,-0.3737 0.50715,-0.18684 0.90754,-0.3203 0.40038,-0.13346 0.58723,-0.21354 -0.0267,-0.29362 -0.0801,-0.66731 -0.0267,-0.40038 -0.0801,-0.74738 -0.0534,-0.37369 -0.13346,-0.64062 -0.0801,-0.26692 -0.16015,-0.3203 -0.21354,-0.0801 -0.72069,-0.13347 -0.48046,-0.0801 -1.01431,0.0267 -0.50715,0.10677 -0.93423,0.40038 -0.42708,0.29362 -0.48046,0.93423 -0.0534,0.42708 -0.0267,1.06769 0.0267,0.64062 0.10677,1.33462 z m 5.79222,0.42707 q -0.0267,0.0534 -0.64061,0.21354 -0.61393,0.16015 -1.46808,0.347 -0.85415,0.16015 -1.81507,0.347 -0.96093,0.16015 -1.65493,0.26692 0.13346,1.06769 0.32031,1.92185 0.18685,0.82746 0.32031,1.041 0.13346,0.18684 0.347,0.347 0.18684,0.13346 0.45377,0.26692 0.29361,0.10677 0.694,0.16015 0.29361,0.0801 0.56053,-0.21354 0.21354,-0.26692 0.3737,-0.93422 0.18684,-0.66731 0.18684,-2.1087 0.82746,-0.13346 1.28123,-0.16015 0.48046,-0.0267 0.694,0 0.26692,0.0267 0.32031,0.0801 0.0267,0.0801 0,0.40038 -0.0267,0.32031 -0.13346,0.80077 -0.0801,0.45377 -0.21354,1.01431 -0.10677,0.53384 -0.26692,1.041 -0.16016,0.48046 -0.347,0.88084 -0.18685,0.37369 -0.40039,0.53385 -0.64061,0.48046 -1.60153,0.48046 -0.96093,-0.0267 -1.89516,-0.26692 -0.93423,-0.26693 -1.68161,-0.61393 -0.74738,-0.37369 -0.93423,-0.61392 -0.13346,-0.16015 -0.24023,-0.80077 -0.10677,-0.6673 -0.18685,-1.60153 -0.0534,-0.93423 -0.0801,-2.05531 -0.0267,-1.12108 0.0267,-2.18877 0.0801,-1.06769 0.21354,-1.97523 0.16015,-0.90753 0.42707,-1.46807 0.40039,-0.80077 1.30792,-1.30792 0.90754,-0.50716 1.92185,-0.694 1.01431,-0.18685 1.92184,-0.0534 0.93423,0.13346 1.388,0.58723 0.26693,0.26692 0.48046,1.06769 0.21354,0.77408 0.26693,1.89516 0,0.10676 0.0267,0.61392 0.0267,0.50715 0.0267,1.09438 0.0267,0.56054 0.0267,1.06769 0,0.50716 -0.0267,0.58723 z"
           style="font-family:'Jolly Lodger';-inkscape-font-specification:'Jolly Lodger'"
           id="path497" />
        <path
           d="m 362.32649,141.30615 q 0.0267,0.40039 -0.10677,1.20116 -0.10677,0.80077 -0.37369,1.60153 -0.26693,0.80077 -0.694,1.4147 -0.40039,0.58723 -0.93423,0.58723 -0.26693,0 -0.45377,-0.32031 -0.18685,-0.32031 -0.32031,-0.82746 -0.13346,-0.50716 -0.21354,-1.12108 -0.0801,-0.64061 -0.16015,-1.22784 -0.0534,-0.58723 -0.10677,-1.06769 -0.0267,-0.50716 -0.0534,-0.74739 -0.10676,-0.16015 -0.40038,-0.32031 -0.26692,-0.18684 -0.48046,-0.18684 -0.24023,0 -0.58723,0.45377 -0.32031,0.45377 -0.61392,1.06769 -0.29362,0.61392 -0.48046,1.22784 -0.18685,0.58723 -0.16016,0.90754 0,0.21354 0.40039,0.74738 0.42707,0.53385 1.041,1.25454 0.61392,0.72069 1.33461,1.57485 0.72069,0.82746 1.33461,1.65492 0.61393,0.82746 1.041,1.57484 0.42708,0.74739 0.45377,1.28123 0.0534,0.64062 -0.29361,1.65492 -0.32031,0.98762 -0.82746,1.92185 -0.50716,0.93423 -1.09439,1.62823 -0.56054,0.66731 -1.0143,0.694 -0.29362,0.0267 -0.77408,-0.26693 -0.48046,-0.26692 -1.041,-0.72069 -0.56054,-0.45377 -1.14777,-0.98761 -0.56054,-0.56054 -1.06769,-1.09439 -0.48046,-0.53384 -0.82746,-0.96092 -0.32031,-0.45377 -0.37369,-0.6673 -0.10677,-0.32031 -0.13346,-0.85416 0,-0.56054 0.0534,-1.06769 0.0801,-0.53384 0.18685,-0.90754 0.13346,-0.40038 0.3203,-0.40038 0.13347,0 0.42708,0.347 0.32031,0.347 0.72069,0.88084 0.40039,0.53385 0.85416,1.17446 0.48046,0.61393 0.90753,1.14777 0.42708,0.53385 0.77408,0.90754 0.347,0.347 0.56054,0.32031 0.16015,0 0.347,-0.24023 0.18684,-0.26693 0.347,-0.61392 0.16015,-0.3737 0.26692,-0.74739 0.10677,-0.37369 0.10677,-0.58723 -0.0267,-0.32031 -0.53385,-0.90754 -0.48046,-0.61392 -1.22784,-1.3613 -0.72069,-0.77408 -1.57485,-1.60154 -0.82746,-0.82746 -1.57484,-1.57485 -0.72069,-0.77407 -1.22785,-1.38799 -0.48046,-0.61393 -0.50715,-0.93423 -0.0267,-0.32031 0.18685,-0.98762 0.21353,-0.694 0.56053,-1.54815 0.3737,-0.85415 0.82746,-1.735 0.45377,-0.88084 0.93423,-1.62823 0.48047,-0.74738 0.93423,-1.20115 0.45377,-0.48046 0.80077,-0.48046 0.45377,0 1.041,0.21354 0.58723,0.18684 1.20115,0.53384 0.64062,0.32031 1.22785,0.74739 0.61392,0.42707 1.09438,0.88084 0.48046,0.42708 0.77408,0.88085 0.29361,0.42707 0.32031,0.80076 z"
           style="font-family:'Jolly Lodger';-inkscape-font-specification:'Jolly Lodger'"
           id="path499" />
        <path
           d="m 369.72025,145.31 q 0.26692,0.16015 0.50715,0.58723 0.26693,0.42707 0.48046,0.98761 0.21354,0.53385 0.347,1.17446 0.13347,0.61393 0.13347,1.17446 0,0.37369 -0.10677,1.12108 -0.10677,0.72069 -0.26693,1.60154 -0.16015,0.85415 -0.347,1.76169 -0.18684,0.90753 -0.347,1.65492 -0.16015,0.74738 -0.29361,1.25454 -0.13346,0.50715 -0.16016,0.56053 -0.0534,0.0801 -0.3203,0.10677 -0.24023,0.0267 -0.53385,-0.0267 -0.26692,-0.0534 -0.50715,-0.16015 -0.24023,-0.10677 -0.29362,-0.26693 -0.0267,-0.10677 -0.0267,-0.6673 0.0267,-0.58723 0.0534,-1.388 0.0534,-0.80077 0.10676,-1.735 0.0801,-0.93423 0.13347,-1.735 0.0534,-0.82746 0.0801,-1.41469 0.0534,-0.58723 0.0534,-0.694 0.0267,-0.42708 -0.0801,-0.82746 -0.0801,-0.42708 -0.24023,-0.72069 -0.13346,-0.29362 -0.32031,-0.45377 -0.16015,-0.16015 -0.3203,-0.10677 -0.24024,0.0534 -0.48047,0.13346 -0.21353,0.0801 -0.37369,0.13346 -0.21354,0.0801 -0.37369,0.16016 -0.0267,1.97523 -0.0801,3.87038 -0.0534,1.89515 -0.13346,3.41661 -0.0801,1.49477 -0.18684,2.429 -0.0801,0.90754 -0.18685,0.93423 -0.21354,0.0267 -0.48046,-0.18685 -0.24023,-0.21354 -0.48046,-0.53384 -0.24023,-0.29362 -0.42708,-0.64062 -0.16015,-0.347 -0.21354,-0.58723 -0.21354,-2.61584 -0.347,-4.67115 -0.13346,-2.082 -0.21353,-3.68353 -0.0801,-1.60154 -0.13347,-2.776 -0.0267,-1.17446 -0.0267,-2.00192 -0.0267,-1.94854 0.0534,-2.69592 0.10677,-0.56054 0.48046,-1.06769 0.37369,-0.53385 0.80077,-0.93423 0.45376,-0.40039 0.82746,-0.58723 0.40038,-0.21354 0.53384,-0.10677 0.0801,0.0801 0.13346,0.74738 0.0801,0.64061 0.10677,1.735 0.0267,1.06769 0.0267,2.48238 0,1.388 -0.0267,2.93615 1.06769,-0.42707 1.97523,-0.53384 0.93423,-0.10677 1.49477,0.24023 z"
           style="font-family:'Jolly Lodger';-inkscape-font-specification:'Jolly Lodger'"
           id="path501" />
        <path
           d="m 378.36855,142.85431 q 0.18685,0.16015 0.347,0.61392 0.18685,0.45377 0.32031,1.09438 0.13346,0.64062 0.24023,1.388 0.10677,0.74739 0.18684,1.46808 0.0801,0.72069 0.10677,1.3613 0.0534,0.61393 0.0801,1.01431 0.0267,0.48046 0.0267,1.01431 0.0267,0.50715 0,0.98761 0,0.45377 -0.0534,0.82746 -0.0267,0.3737 -0.10677,0.56054 -0.16015,0.40039 -0.56054,0.56054 -0.37369,0.13346 -0.85415,0.18685 -0.24023,0.0267 -0.82746,0.0267 -0.56054,-0.0267 -1.22785,-0.0534 -0.64061,-0.0534 -1.22784,-0.10677 -0.58723,-0.0534 -0.88085,-0.10677 -0.58723,-0.13346 -0.85415,-0.347 -0.24023,-0.21353 -0.48046,-0.61392 -0.0801,-0.16015 -0.13346,-0.80077 -0.0534,-0.6673 -0.0801,-1.57484 0,-0.93423 0.0267,-2.00192 0.0267,-1.06769 0.0801,-2.02862 0.0801,-0.96092 0.16015,-1.68161 0.10677,-0.72069 0.26692,-0.96092 0.26693,-0.37369 0.90754,-0.694 0.66731,-0.32031 1.20116,-0.50715 0.26692,-0.0801 0.69399,-0.10677 0.45377,-0.0534 0.93423,0 0.50716,0.0267 0.96093,0.16015 0.45377,0.10677 0.74738,0.32031 z m -1.49477,8.27461 q 0.0534,-0.10677 0.10677,-0.64062 0.0801,-0.56054 0.10677,-1.33461 0.0534,-0.77408 0.0534,-1.65493 0.0267,-0.88084 0.0267,-1.62822 0,-0.74739 -0.0534,-1.25454 -0.0534,-0.53385 -0.13346,-0.61392 -0.13346,-0.10677 -0.40038,-0.0801 -0.24023,0 -0.50716,0.0801 -0.26692,0.0534 -0.48046,0.16015 -0.21354,0.0801 -0.29361,0.16015 -0.347,0.29362 -0.37369,0.96092 0,0.18685 -0.0534,1.0677 -0.0267,0.85415 -0.0267,1.86846 0,0.98761 0.0267,1.84176 0.0534,0.85416 0.18685,1.041 0.13346,0.18685 0.37369,0.29362 0.26692,0.0801 0.53384,0.0801 0.29362,0 0.53385,-0.0801 0.26692,-0.10677 0.37369,-0.26692 z"
           style="font-family:'Jolly Lodger';-inkscape-font-specification:'Jolly Lodger'"
           id="path503" />
        <path
           d="m 388.69847,146.27092 q 0,0.42708 -0.10677,1.22784 -0.0801,0.80077 -0.24023,1.7617 -0.16016,0.93423 -0.347,1.94853 -0.16016,0.98762 -0.347,1.81508 -0.16016,0.82746 -0.29362,1.388 -0.10677,0.56053 -0.13346,0.61392 -0.0534,0.0801 -0.29361,0.10677 -0.21354,0 -0.50716,-0.0534 -0.26692,-0.0534 -0.50715,-0.16015 -0.21354,-0.10677 -0.26692,-0.26692 -0.0267,-0.10677 -0.0267,-0.74739 0.0267,-0.64061 0.0534,-1.52146 0.0534,-0.90754 0.10677,-1.92184 0.0534,-1.041 0.10677,-1.92185 0.0801,-0.90753 0.10677,-1.54815 0.0534,-0.64061 0.0534,-0.77408 0,-0.48046 -0.10677,-0.90753 -0.0801,-0.45377 -0.21354,-0.77408 -0.13346,-0.32031 -0.32031,-0.48046 -0.16015,-0.18685 -0.29361,-0.13346 -0.347,0.0534 -0.58723,0.18684 -0.24023,0.10677 -0.40038,0.24023 -0.18685,0.16016 -0.29362,0.3737 -0.0267,0.0534 -0.10677,0.3203 -0.0534,0.26693 -0.0534,0.61393 0,0.10677 0,0.77407 0,0.64062 -0.0267,1.54816 0,0.90753 -0.0267,1.97522 0,1.041 -0.0267,1.94854 0,0.88085 -0.0267,1.52146 -0.0267,0.64062 -0.0534,0.72069 -0.0534,0.16016 -0.26692,0.45377 -0.21354,0.26692 -0.48046,0.50716 -0.26692,0.24023 -0.50715,0.37369 -0.24024,0.10677 -0.32031,-0.0534 -0.0801,-0.0801 -0.16016,-0.77407 -0.0801,-0.72069 -0.18684,-1.735 -0.0801,-1.041 -0.18685,-2.24215 -0.10677,-1.22785 -0.18684,-2.34892 -0.0801,-1.12108 -0.13347,-2.02862 -0.0534,-0.90754 -0.0801,-1.30792 -0.0267,-0.56054 -0.0534,-1.25454 -0.0267,-0.72069 -0.0534,-1.33461 0,-0.64062 0,-1.09439 0.0267,-0.48046 0.10677,-0.58723 0.0534,-0.10676 0.347,-0.0534 0.32031,0.0534 0.6673,0.21354 0.3737,0.13346 0.694,0.347 0.32031,0.18684 0.42708,0.37369 0.0534,0.16015 0.13346,0.37369 0.0801,0.18685 0.13346,0.64062 0.45377,-0.26693 0.98762,-0.48046 0.53384,-0.24024 1.041,-0.347 0.53384,-0.13347 1.0143,-0.0801 0.48047,0.0267 0.85416,0.26692 0.24023,0.18685 0.48046,0.64062 0.26692,0.45377 0.45377,1.06769 0.21354,0.61392 0.3203,1.30792 0.13347,0.66731 0.13347,1.28123 z"
           style="font-family:'Jolly Lodger';-inkscape-font-specification:'Jolly Lodger'"
           id="path505" />
        <path
           d="m 394.35723,148.19276 q 0.21354,0.3737 0.64061,1.12108 0.45377,0.74738 0.96093,1.65492 0.50715,0.90754 1.04099,1.86846 0.53385,0.96092 0.93423,1.76169 0.40039,0.80077 0.61393,1.33462 0.24023,0.53384 0.16015,0.58723 -0.13346,0.0801 -0.40038,0.0801 -0.26693,-0.0267 -0.56054,-0.0801 -0.29362,-0.0801 -0.56054,-0.18685 -0.24023,-0.13346 -0.347,-0.24023 -0.90754,-1.22785 -1.62823,-2.26884 -0.694,-1.041 -1.22784,-1.81508 -0.61393,-0.88084 -1.09439,-1.62823 -0.0801,1.25454 -0.16015,2.37561 -0.0801,1.12108 -0.16015,2.00193 -0.0801,0.85415 -0.18685,1.38799 -0.0801,0.50716 -0.16015,0.53385 -0.21354,0.0267 -0.45377,-0.16015 -0.24023,-0.21354 -0.45377,-0.50716 -0.21354,-0.3203 -0.40039,-0.64061 -0.16015,-0.347 -0.18684,-0.58723 -0.16016,-2.429 -0.26692,-4.35084 -0.0801,-1.94854 -0.16016,-3.44331 -0.0534,-1.49477 -0.0801,-2.58915 0,-1.12108 0,-1.89515 0,-1.84177 0.10677,-2.53577 0.10677,-0.53385 0.48046,-1.01431 0.40039,-0.50715 0.85416,-0.88084 0.45377,-0.37369 0.85415,-0.56054 0.40039,-0.18685 0.53385,-0.10677 0.10677,0.0801 0.13346,0.93423 0.0267,0.85415 0,2.18877 0,1.30792 -0.0534,2.93615 -0.0534,1.62823 -0.10677,3.25646 0.48047,-0.72069 0.93423,-1.44139 0.45377,-0.74738 0.85416,-1.33461 0.40038,-0.61392 0.694,-1.01431 0.3203,-0.40038 0.48046,-0.48046 0.18684,-0.10677 0.58723,-0.16015 0.42707,-0.0801 0.85415,-0.10677 0.42708,-0.0267 0.77408,0.0267 0.37369,0.0534 0.45377,0.18685 0.0801,0.0801 -0.29362,0.66731 -0.37369,0.56053 -0.98761,1.38799 -0.61393,0.82746 -1.41469,1.81508 -0.80077,0.98761 -1.60154,1.92184 z"
           style="font-family:'Jolly Lodger';-inkscape-font-specification:'Jolly Lodger'"
           id="path507" />
        <path
           d="m 406.71576,144.32238 q 0.0267,0.29362 -0.10677,0.90754 -0.10677,0.61392 -0.347,1.22785 -0.21354,0.61392 -0.58723,1.06769 -0.347,0.45377 -0.80077,0.45377 -0.32031,0 -0.53384,-0.50716 -0.18685,-0.50715 -0.29362,-1.17446 -0.0801,-0.694 -0.13346,-1.3613 -0.0534,-0.66731 -0.10677,-0.93423 -0.0801,-0.13347 -0.32031,-0.24024 -0.21354,-0.13346 -0.42707,-0.13346 -0.21354,0 -0.48046,0.347 -0.26693,0.347 -0.53385,0.80077 -0.24023,0.45377 -0.42708,0.90754 -0.16015,0.45377 -0.13346,0.66731 0,0.16015 0.347,0.56053 0.347,0.40039 0.85415,0.96093 0.53385,0.53384 1.12108,1.17446 0.61392,0.61392 1.12108,1.25453 0.50715,0.61393 0.85415,1.17446 0.37369,0.56054 0.40038,0.96093 0.0267,0.48046 -0.26692,1.22784 -0.26692,0.74739 -0.694,1.44139 -0.42708,0.69399 -0.90754,1.20115 -0.48046,0.50715 -0.85415,0.53384 -0.37369,0.0267 -1.09438,-0.40038 -0.694,-0.45377 -1.41469,-1.041 -0.694,-0.61392 -1.25454,-1.20115 -0.53385,-0.58723 -0.61392,-0.85416 -0.0801,-0.24023 -0.10677,-0.64061 0,-0.40038 0.0267,-0.80077 0.0534,-0.40038 0.16015,-0.66731 0.10677,-0.29361 0.26693,-0.29361 0.16015,0 0.64061,0.56054 0.48046,0.53384 1.041,1.22784 0.56054,0.66731 1.09438,1.22785 0.53385,0.53384 0.77408,0.53384 0.13346,0 0.29361,-0.18684 0.16016,-0.21354 0.29362,-0.48046 0.13346,-0.26693 0.21354,-0.53385 0.10677,-0.29361 0.10677,-0.45377 -0.0267,-0.24023 -0.42708,-0.694 -0.40038,-0.45377 -1.01431,-1.0143 -0.61392,-0.56054 -1.33461,-1.17447 -0.72069,-0.64061 -1.33461,-1.20115 -0.61393,-0.56054 -1.01431,-1.0143 -0.40039,-0.45377 -0.42708,-0.694 -0.0267,-0.24023 0.16016,-0.74739 0.18684,-0.53384 0.48046,-1.14777 0.29361,-0.64061 0.6673,-1.30792 0.40039,-0.66731 0.80077,-1.22784 0.40039,-0.56054 0.77408,-0.90754 0.40038,-0.37369 0.694,-0.37369 0.58723,0 1.388,0.3203 0.82746,0.32031 1.57484,0.80077 0.74739,0.45377 1.28123,0.96093 0.53385,0.50715 0.56054,0.90753 z"
           style="font-family:'Jolly Lodger';-inkscape-font-specification:'Jolly Lodger'"
           id="path509" />
      </g>
      <path
         d="m 366.01862,131.44689 q 0.0375,0.39952 -0.0742,1.20361 -0.0851,0.80337 -0.3302,1.61106 -0.24516,0.8077 -0.65546,1.43297 -0.38434,0.59785 -0.91799,0.6123 -0.26683,0.007 -0.46227,-0.30791 -0.19545,-0.31513 -0.34259,-0.81849 -0.14714,-0.50336 -0.24381,-1.11489 -0.0974,-0.6382 -0.19333,-1.22305 -0.0693,-0.58557 -0.13563,-1.06441 -0.0404,-0.50625 -0.0736,-0.74567 -0.11105,-0.1572 -0.4089,-0.30936 -0.27188,-0.17954 -0.48534,-0.17376 -0.24015,0.006 -0.57474,0.4695 -0.30791,0.46227 -0.58479,1.08391 -0.2769,0.62165 -0.44705,1.2404 -0.17089,0.59207 -0.13554,0.91154 0.006,0.21346 0.42048,0.73627 0.44136,0.52209 1.07457,1.2259 0.63321,0.70381 1.37675,1.53815 0.74283,0.80765 1.37892,1.61819 0.6361,0.81054 1.08325,1.54608 0.44715,0.73556 0.48828,1.26848 0.0707,0.63894 -0.24871,1.66226 -0.29346,0.99593 -0.77513,1.94355 -0.48169,0.94761 -1.04992,1.65725 -0.54227,0.68224 -0.99514,0.7212 -0.29279,0.0346 -0.78102,-0.24588 -0.48751,-0.25381 -1.06013,-0.69224 -0.57262,-0.43844 -1.17408,-0.95618 -0.57551,-0.54517 -1.09692,-1.06509 -0.49474,-0.52064 -0.85317,-0.93817 -0.33248,-0.44494 -0.39162,-0.65694 -0.1154,-0.31731 -0.15653,-0.85024 -0.0152,-0.56033 0.0245,-1.06874 0.0656,-0.53581 0.16222,-0.91227 0.12257,-0.40384 0.30934,-0.4089 0.13343,-0.004 0.43632,0.33531 0.32959,0.3382 0.74427,0.86101 0.41469,0.52282 0.88564,1.15091 0.4969,0.6007 0.93826,1.12279 0.44138,0.52209 0.79836,0.88625 0.35627,0.33748 0.56901,0.30502 0.16009,-0.004 0.34037,-0.24953 0.17954,-0.27189 0.33025,-0.62309 0.14998,-0.3779 0.2466,-0.75434 0.0966,-0.37645 0.0908,-0.58991 -0.0354,-0.31947 -0.55822,-0.89276 -0.4969,-0.60069 -1.26424,-1.32756 -0.74138,-0.75429 -1.61762,-1.55833 -0.84955,-0.80476 -1.61689,-1.53164 -0.74138,-0.75428 -1.26497,-1.35425 -0.4969,-0.6007 -0.53225,-0.92016 -0.0354,-0.31947 0.16005,-0.99231 0.19466,-0.69953 0.51841,-1.56276 0.35045,-0.86395 0.7802,-1.75676 0.42976,-0.8928 0.88981,-1.65292 0.46007,-0.76011 0.90138,-1.226 0.4406,-0.49257 0.78747,-0.50196 0.4536,-0.0123 1.0464,0.18528 0.59207,0.17088 1.21516,0.50114 0.64905,0.30285 1.24763,0.71388 0.62525,0.41029 1.11782,0.85089 0.49184,0.41392 0.79764,0.85958 0.30506,0.41896 0.34187,0.79179 z"
         style="font-size:27.3329px;line-height:17.0831px;font-family:'Jolly Lodger';-inkscape-font-specification:'Jolly Lodger';letter-spacing:0px;word-spacing:0px;fill:url(#linearGradient171080);stroke-width:1.98506;paint-order:stroke markers fill"
         id="path171041" />
      <path
         style="display:inline;mix-blend-mode:normal;fill:#121c2d;fill-opacity:1;stroke:none;stroke-width:0.209799px;stroke-linecap:butt;stroke-linejoin:miter;stroke-opacity:1;filter:url(#filter1733772)"
         d="m 10.797708,275.84754 c 1.786713,-1.47219 5.236953,-1.13946 6.228045,-0.24966 l 2.976317,-0.30457 c 0.624075,-1.13468 3.31867,-1.49405 4.958718,-0.69581 2.258007,-1.75781 4.588943,-1.14848 6.140413,0.32934 l 1.722742,0.37683 c 1.559734,-0.59668 6.945056,-1.14806 10.142206,0.13197 l 3.223395,0.41069 c 1.82632,-0.84114 5.894473,-1.46429 8.479035,0.0912 2.019943,-1.07408 5.512354,-1.88283 8.62111,-0.12093 l 0.833932,-3.15839 c 1.754654,-0.76958 5.026871,-1.27272 8.493048,-0.23753 2.216819,-0.19483 4.773631,-1.23435 8.361181,0.9415 0.119512,-1.09405 6.359369,1.75524 10.031705,1.27501 0.872751,-0.11413 6.800597,-3.47014 9.387055,-1.23613 l 0.92948,8.30822 -90.445369,0.70239 z"
         id="path1733770"
         sodipodi:nodetypes="cccccccccccccscccc"
         transform="rotate(-1.5510761,-4576.6304,-11309.215)" />
      <path
         d="m 326.81755,140.33209 q 0.009,0.34687 0.003,1.09471 0.0202,0.7471 0.0188,1.68171 -0.001,0.93461 -0.0273,1.95 4e-5,0.98797 -0.0576,1.81729 -0.0584,0.80265 -0.15064,1.33919 -0.0656,0.53581 -0.19902,0.53943 -0.40024,0.0108 -0.78897,-0.53938 -0.36276,-0.57762 -0.75438,-1.23457 -0.0844,-0.15793 -0.21206,-0.92883 -0.10174,-0.79831 -0.24097,-1.99613 -0.11258,-1.19855 -0.23234,-2.66391 -0.11981,-1.46538 -0.24102,-2.98411 -0.12126,-1.51874 -0.21434,-2.98483 -0.0664,-1.46682 -0.1249,-2.64012 -0.0585,-1.17331 -0.0528,-1.94783 0.005,-0.80119 0.0814,-0.93678 0.10167,-0.18966 0.73989,-0.28705 0.63748,-0.12407 1.54469,-0.14863 0.93389,-0.0253 2.00263,-8.1e-4 1.06875,0.0245 1.97884,0.10662 0.93606,0.0548 1.55264,0.14488 0.64328,0.0894 0.7255,0.16726 0.10962,0.10384 0.0426,0.5863 -0.0411,0.45504 -0.186,1.01971 -0.11897,0.53726 -0.31942,1.02333 -0.17378,0.48535 -0.30358,0.62237 -0.1298,0.13702 -1.25479,0.007 -1.09832,-0.13048 -3.53221,-0.27819 l 0.12066,4.45598 q 1.87211,0.10952 2.91634,0.21475 1.07091,0.10451 1.12572,0.15644 0.10962,0.10384 0.0916,0.42474 -0.018,0.32092 -0.11463,0.69736 -0.0973,0.34976 -0.24876,0.67429 -0.15214,0.29785 -0.30936,0.40891 -0.0786,0.0555 -0.95623,0.18611 -0.85095,0.12985 -2.42305,0.25252 z"
         style="font-size:27.3329px;line-height:17.0831px;font-family:'Jolly Lodger';-inkscape-font-specification:'Jolly Lodger';letter-spacing:0px;word-spacing:0px;fill:url(#linearGradient171072);stroke-width:1.98506;paint-order:stroke markers fill"
         id="path171033" />
      <path
         d="m 335.08392,136.9574 q 0.057,0.13198 0.0765,0.85241 0.0455,0.69302 0.0462,1.70767 0.0267,0.98726 0.004,2.13605 -0.023,1.12211 -0.0756,2.13821 -0.0267,0.9887 -0.0872,1.7113 -0.0613,0.6959 -0.1377,0.83149 -0.23003,0.38006 -0.70742,0.49979 -0.47812,0.0931 -0.69303,0.0455 -0.10673,0.003 -0.25676,-0.60719 -0.12334,-0.61082 -0.25536,-1.54182 -0.13202,-0.93099 -0.24168,-2.02281 -0.1097,-1.09181 -0.18977,-2.07762 -0.0808,-1.01248 -0.10107,-1.7596 -0.0202,-0.74711 0.0274,-0.96201 0.0707,-0.34904 0.43698,-0.62598 0.39302,-0.27767 0.81632,-0.42264 0.44999,-0.14569 0.82427,-0.12913 0.40024,-0.0108 0.51347,0.22641 z m 0.0164,-4.32617 q 0.11251,0.21057 0.096,0.58484 0.0101,0.37357 -0.0591,0.77597 -0.0692,0.40241 -0.19251,0.77957 -0.12329,0.37717 -0.25092,0.59424 -0.25671,0.38078 -0.78747,0.50196 -0.5048,0.0938 -0.74639,0.0469 -0.1875,-0.0216 -0.38006,-0.23002 -0.19328,-0.23509 -0.33536,-0.55167 -0.1428,-0.34326 -0.20701,-0.74205 -0.0642,-0.39879 0.006,-0.74784 0.0707,-0.34904 0.49036,-0.62742 0.41896,-0.30506 0.89563,-0.45148 0.47596,-0.1731 0.9036,-0.15798 0.42692,-0.0116 0.56684,0.22497 z"
         style="font-size:27.3329px;line-height:17.0831px;font-family:'Jolly Lodger';-inkscape-font-specification:'Jolly Lodger';letter-spacing:0px;word-spacing:0px;fill:url(#linearGradient171074);stroke-width:1.98506;paint-order:stroke markers fill"
         id="path171035" />
      <path
         d="m 342.87217,133.67578 q 0.21707,0.12763 0.41469,0.52282 0.22358,0.36777 0.3974,0.8704 0.19978,0.47522 0.32168,1.03267 0.14859,0.55672 0.24164,1.03484 0.11973,0.47739 0.15581,0.82354 0.0354,0.31947 0.0108,0.40025 -0.0505,0.10817 -0.3144,0.22212 -0.23725,0.11323 -0.71393,0.25965 -0.47667,0.14642 -1.32618,0.32963 -0.0931,-1.46609 -0.27343,-2.20886 -0.18104,-0.76947 -0.37649,-1.08459 -0.22358,-0.36778 -0.46372,-0.36128 -0.23725,0.11323 -0.41969,0.27839 -0.18317,0.13847 -0.31224,0.30217 -0.15504,0.19112 -0.28268,0.4082 -0.0512,0.0815 -0.0966,0.37644 -0.0454,0.29495 -0.0829,0.88341 0.005,0.18678 -0.006,0.77451 0.0159,0.58702 0.0102,1.36154 0.0209,0.77378 0.0174,1.62835 0.0231,0.85384 0.0167,1.60167 0.0195,0.72044 0.007,1.22812 0.0137,0.50697 -0.0108,0.58774 -0.0498,0.13486 -0.25671,0.38078 -0.20696,0.24592 -0.468,0.46661 -0.26176,0.194 -0.49829,0.33392 -0.23726,0.11323 -0.32092,-0.018 -0.0822,-0.0779 -0.17888,-0.6894 -0.0967,-0.61154 -0.22724,-1.48917 -0.10463,-0.90504 -0.24024,-1.96945 -0.13563,-1.0644 -0.24241,-2.0495 -0.1068,-0.98508 -0.1811,-1.75743 -0.0751,-0.79903 -0.11114,-1.14518 -0.0404,-0.50624 -0.0837,-1.11921 -0.0433,-0.61298 -0.0845,-1.14591 -0.0152,-0.56033 -0.026,-0.96056 0.0151,-0.42765 0.093,-0.50987 0.0512,-0.0815 0.34615,-0.0361 0.32091,0.018 0.67139,0.14204 0.37645,0.0966 0.70169,0.27471 0.32525,0.17812 0.43632,0.33532 0.0837,0.13124 0.17093,0.3959 0.49974,-0.28055 0.94757,-0.5063 0.47378,-0.25315 0.8978,-0.37144 0.45072,-0.11901 0.87908,-0.0772 0.42765,0.0151 0.86107,0.2437 z"
         style="font-size:27.3329px;line-height:17.0831px;font-family:'Jolly Lodger';-inkscape-font-specification:'Jolly Lodger';letter-spacing:0px;word-spacing:0px;fill:url(#linearGradient171076);stroke-width:1.98506;paint-order:stroke markers fill"
         id="path171037" />
      <path
         d="m 347.40639,140.38874 q 0.42257,-0.17167 0.95117,-0.37289 0.55456,-0.22863 1.05718,-0.40246 0.50191,-0.2005 0.89854,-0.34475 0.39662,-0.14425 0.58124,-0.22936 -0.0346,-0.29278 -0.0981,-0.66489 -0.0375,-0.39951 -0.1003,-0.74494 -0.0635,-0.37211 -0.15075,-0.63677 -0.0873,-0.26466 -0.16876,-0.31585 -0.21563,-0.0743 -0.72404,-0.11391 -0.48245,-0.0671 -1.01321,0.0541 -0.50408,0.12046 -0.92305,0.42552 -0.41898,0.30507 -0.455,0.9469 -0.0418,0.42836 0.002,1.06802 0.044,0.63966 0.14286,1.33124 z m 5.80165,0.27013 q -0.0252,0.0541 -0.63459,0.2308 -0.60937,0.17671 -1.45815,0.38661 -0.8495,0.18321 -1.80501,0.396 -0.95625,0.1861 -1.6471,0.31162 0.16231,1.06369 0.37221,1.91248 0.20918,0.82209 0.34837,1.03194 0.13847,0.18316 0.35627,0.33748 0.19038,0.12836 0.46083,0.25454 0.29639,0.0988 0.69808,0.14131 0.29567,0.0721 0.55454,-0.22863 0.20624,-0.27261 0.34828,-0.944 0.16871,-0.67212 0.12969,-2.11298 0.82354,-0.15581 1.27643,-0.19477 0.47956,-0.0397 0.69374,-0.0188 0.26755,0.0195 0.32236,0.0714 0.0289,0.0794 0.0108,0.40023 -0.018,0.32092 -0.11174,0.80409 -0.0678,0.45578 -0.186,1.01972 -0.0923,0.53654 -0.23865,1.04785 -0.14709,0.48461 -0.32303,0.88991 -0.17666,0.37861 -0.38579,0.54449 -0.62737,0.49762 -1.58794,0.52363 -0.9613,-6.8e-4 -1.90169,-0.21552 -0.94111,-0.24155 -1.69761,-0.56819 -0.75722,-0.35332 -0.95051,-0.58841 -0.13774,-0.15648 -0.26181,-0.79397 -0.1248,-0.66417 -0.23014,-1.59589 -0.0787,-0.93244 -0.1357,-2.05238 -0.057,-1.11995 -0.0326,-2.1887 0.0512,-1.06946 0.15999,-1.98028 0.13553,-0.91153 0.38718,-1.47909 0.37856,-0.81132 1.27203,-1.34285 0.89348,-0.53154 1.90237,-0.74576 1.00888,-0.21424 1.91969,-0.10541 0.9375,0.10813 1.40338,0.54945 0.27406,0.2596 0.50919,1.05429 0.23441,0.76802 0.31813,1.88724 0.003,0.10672 0.0433,0.61298 0.0404,0.50624 0.0563,1.09325 0.0419,0.55961 0.0556,1.06658 0.0137,0.50697 -0.0108,0.58774 z"
         style="font-size:27.3329px;line-height:17.0831px;font-family:'Jolly Lodger';-inkscape-font-specification:'Jolly Lodger';letter-spacing:0px;word-spacing:0px;fill:url(#linearGradient171078);stroke-width:1.98506;paint-order:stroke markers fill"
         id="path171039" />
      <path
         d="m 373.51804,135.24914 q 0.27116,0.15287 0.52286,0.57329 0.2784,0.41969 0.50702,0.97424 0.22791,0.52788 0.37866,1.16464 0.15004,0.61009 0.16521,1.17041 0.0101,0.37356 -0.0764,1.12356 -0.0872,0.72332 -0.22348,1.60818 -0.13697,0.85817 -0.29919,1.77044 -0.16221,0.91225 -0.30208,1.66371 -0.13986,0.75144 -0.25954,1.26202 -0.11968,0.51058 -0.14493,0.56466 -0.0512,0.0815 -0.31729,0.1154 -0.23942,0.0332 -0.53438,-0.0122 -0.26827,-0.0462 -0.5113,-0.14636 -0.24303,-0.10023 -0.30074,-0.25888 -0.0296,-0.10601 -0.0448,-0.66634 0.0108,-0.58773 0.0158,-1.38893 0.0317,-0.80193 0.0598,-1.73726 0.0548,-0.93605 0.0865,-1.73797 0.031,-0.82861 0.0418,-1.41634 0.0375,-0.58846 0.0346,-0.6952 0.0151,-0.42764 -0.10247,-0.82498 -0.0916,-0.42476 -0.25965,-0.71393 -0.14136,-0.2899 -0.33247,-0.44493 -0.16443,-0.15576 -0.32308,-0.0981 -0.2387,0.0599 -0.47668,0.14641 -0.21128,0.0859 -0.36994,0.14353 -0.21129,0.0859 -0.36922,0.17022 0.0268,1.97523 0.0247,3.87113 -0.002,1.8959 -0.0409,3.41897 -0.0396,1.49639 -0.12103,2.43317 -0.0555,0.90937 -0.16149,0.93894 -0.21274,0.0325 -0.48534,-0.17378 -0.24592,-0.20696 -0.49474,-0.52064 -0.24809,-0.28701 -0.44426,-0.62882 -0.16948,-0.34254 -0.22936,-0.58124 -0.28426,-2.6091 -0.47331,-4.66004 -0.18977,-2.07763 -0.31316,-3.6764 -0.12342,-1.59879 -0.20856,-2.77137 -0.0585,-1.17331 -0.0809,-2.00047 -0.0794,-1.9471 -0.0196,-2.69637 0.0916,-0.56323 0.45138,-1.08031 0.35911,-0.54377 0.77519,-0.95556 0.44276,-0.41253 0.81126,-0.60941 0.39446,-0.2243 0.53076,-0.12118 0.0822,0.0779 0.15364,0.74349 0.0974,0.63821 0.15369,1.73147 0.0556,1.06658 0.0939,2.48075 0.0376,1.38749 0.0528,2.9358 1.05574,-0.45581 1.96006,-0.58711 0.931,-0.13202 1.50072,0.19968 z"
         style="font-size:27.3329px;line-height:17.0831px;font-family:'Jolly Lodger';-inkscape-font-specification:'Jolly Lodger';letter-spacing:0px;word-spacing:0px;fill:url(#linearGradient171082);stroke-width:1.98506;paint-order:stroke markers fill"
         id="path171043" />
      <path
         d="m 382.0967,132.56026 q 0.19112,0.15503 0.3635,0.6043 0.19906,0.44855 0.34981,1.08531 0.15075,0.63677 0.27771,1.38099 0.12696,0.74422 0.22651,1.46248 0.0996,0.71826 0.14358,1.35791 0.07,0.61226 0.10753,1.01177 0.0397,0.47956 0.0541,1.01322 0.0404,0.50624 0.0267,0.98725 0.0123,0.4536 -0.031,0.8286 -0.0166,0.37429 -0.0916,0.56322 -0.14925,0.40458 -0.54516,0.57551 -0.36994,0.14353 -0.84878,0.2099 -0.23942,0.0332 -0.82643,0.0491 -0.56106,-0.0115 -1.22885,-0.0201 -0.64182,-0.036 -1.23028,-0.0735 -0.58846,-0.0375 -0.88341,-0.0829 -0.59063,-0.11751 -0.86323,-0.32375 -0.24593,-0.20695 -0.4969,-0.60069 -0.0844,-0.15792 -0.15509,-0.79686 -0.0714,-0.66561 -0.1227,-1.5721 -0.0253,-0.93389 -0.0275,-2.00191 -0.002,-1.06802 0.0252,-2.03004 0.0541,-0.96274 0.11458,-1.68533 0.0872,-0.72332 0.24081,-0.96779 0.25671,-0.38078 0.88842,-0.71832 0.6584,-0.33825 1.18699,-0.53947 0.26466,-0.0873 0.69085,-0.12552 0.45216,-0.0657 0.93389,-0.0253 0.50769,0.013 0.96491,0.13408 0.45649,0.0944 0.75577,0.29997 z m -1.27024,8.31204 q 0.0505,-0.10818 0.0894,-0.64328 0.0649,-0.5625 0.0706,-1.33701 0.0324,-0.77524 0.009,-1.65577 0.003,-0.88124 -0.0174,-1.62835 -0.0202,-0.74711 -0.0873,-1.25263 -0.0678,-0.53221 -0.15003,-0.61008 -0.1363,-0.10312 -0.4024,-0.0692 -0.24014,0.007 -0.50481,0.0938 -0.26537,0.0606 -0.47595,0.1731 -0.21129,0.0859 -0.28916,0.16804 -0.33893,0.3029 -0.34755,0.97068 0.005,0.18678 -0.0245,1.06875 -0.004,0.85456 0.0239,1.8685 0.0267,0.98725 0.0765,1.84037 0.0765,0.8524 0.21496,1.03556 0.13847,0.18317 0.3815,0.28339 0.26899,0.0728 0.53582,0.0656 0.29351,-0.008 0.53148,-0.0945 0.26393,-0.11395 0.36633,-0.27693 z"
         style="font-size:27.3329px;line-height:17.0831px;font-family:'Jolly Lodger';-inkscape-font-specification:'Jolly Lodger';letter-spacing:0px;word-spacing:0px;fill:url(#linearGradient171084);stroke-width:1.98506;paint-order:stroke markers fill"
         id="path171045" />
      <path
         d="m 392.51532,135.696 q 0.0116,0.42693 -0.0735,1.23028 -0.0584,0.80265 -0.19246,1.76756 -0.13481,0.93822 -0.29413,1.95721 -0.13337,0.99159 -0.29774,1.82381 -0.13771,0.83149 -0.25595,1.39544 -0.0915,0.56321 -0.11679,0.6173 -0.0512,0.0815 -0.29061,0.11468 -0.21346,0.006 -0.50842,-0.0396 -0.26827,-0.0462 -0.5113,-0.14636 -0.21635,-0.10095 -0.27405,-0.2596 -0.0296,-0.10601 -0.0469,-0.74639 0.009,-0.6411 0.0122,-1.52235 0.0288,-0.90865 0.0547,-1.92403 0.0252,-1.04206 0.0547,-1.92403 0.0555,-0.90937 0.0648,-1.55048 0.036,-0.64182 0.0324,-0.77524 -0.013,-0.48028 -0.13129,-0.90431 -0.0924,-0.45143 -0.23442,-0.76801 -0.14208,-0.31658 -0.33319,-0.47162 -0.16515,-0.18244 -0.29712,-0.12546 -0.34543,0.0628 -0.58196,0.20267 -0.23725,0.11323 -0.39373,0.25098 -0.18244,0.16516 -0.2834,0.38151 -0.0252,0.0541 -0.0981,0.32307 -0.0462,0.26828 -0.0368,0.61515 0.003,0.10673 0.021,0.77379 0.0173,0.64038 0.0152,1.54831 0.0246,0.9072 0.0268,1.97522 0.0282,1.04062 0.0261,1.94855 0.0238,0.88053 0.0145,1.52163 -0.009,0.6411 -0.0339,0.72187 -0.0491,0.16154 -0.25454,0.46083 -0.20624,0.2726 -0.46656,0.51998 -0.26032,0.24736 -0.49685,0.38728 -0.23726,0.11323 -0.32164,-0.0447 -0.0822,-0.0779 -0.18105,-0.76946 -0.0996,-0.71825 -0.23373,-1.7293 -0.10825,-1.03845 -0.24748,-2.23627 -0.13996,-1.22451 -0.25035,-2.34301 -0.11041,-1.1185 -0.18833,-2.02426 -0.0779,-0.90576 -0.11547,-1.30527 -0.0419,-0.55961 -0.0873,-1.25264 -0.0462,-0.7197 -0.0895,-1.33267 -0.0173,-0.64039 -0.0296,-1.09399 0.0137,-0.48101 0.0908,-0.58991 0.0505,-0.10816 0.34543,-0.0628 0.32164,0.0447 0.67284,0.1954 0.37717,0.1233 0.70314,0.32809 0.32525,0.1781 0.43703,0.36199 0.0577,0.15865 0.14353,0.36994 0.0851,0.18461 0.15075,0.63677 0.44638,-0.27911 0.97426,-0.50701 0.52714,-0.25461 1.03122,-0.37505 0.53003,-0.14787 1.01176,-0.10753 0.48102,0.0137 0.86107,0.2437 0.2452,0.18028 0.49763,0.62738 0.2791,0.44638 0.4825,1.05502 0.23008,0.60791 0.35559,1.29877 0.15148,0.66345 0.1681,1.27715 z"
         style="font-size:27.3329px;line-height:17.0831px;font-family:'Jolly Lodger';-inkscape-font-specification:'Jolly Lodger';letter-spacing:0px;word-spacing:0px;fill:url(#linearGradient171086);stroke-width:1.98506;paint-order:stroke markers fill"
         id="path171047" />
      <path
         d="m 398.22403,137.46397 q 0.22357,0.36778 0.67072,1.10333 0.47383,0.73482 1.00537,1.6283 0.53153,0.89348 1.09119,1.8396 0.55966,0.94612 0.98157,1.73576 0.42192,0.78963 0.64983,1.31751 0.25459,0.52714 0.17599,0.58268 -0.13125,0.0837 -0.39807,0.0909 -0.26755,-0.0195 -0.5625,-0.0649 -0.29568,-0.0721 -0.56539,-0.17161 -0.24376,-0.12691 -0.35338,-0.23075 -0.94044,-1.20283 -1.68905,-2.22394 -0.72192,-1.02183 -1.27652,-1.78117 -0.63754,-0.8639 -1.13806,-1.59802 -0.0461,1.25625 -0.0958,2.37908 -0.0497,1.12284 -0.1059,2.00553 -0.0569,0.85601 -0.14921,1.39254 -0.0663,0.50914 -0.14564,0.53799 -0.21274,0.0325 -0.45794,-0.14781 -0.24592,-0.20696 -0.46733,-0.49469 -0.22213,-0.3144 -0.41759,-0.62954 -0.16948,-0.34254 -0.20266,-0.58196 -0.22585,-2.42377 -0.38459,-4.34202 -0.13282,-1.94565 -0.25331,-3.43771 -0.0938,-1.49278 -0.15015,-2.58603 -0.0303,-1.12067 -0.0513,-1.89446 -0.0498,-1.84109 0.0381,-2.53773 0.0923,-0.53654 0.45283,-1.02694 0.38652,-0.5178 0.83,-0.90364 0.44349,-0.38584 0.83867,-0.58346 0.39518,-0.19761 0.53076,-0.12118 0.1089,0.0772 0.1587,0.93028 0.0498,0.85311 0.0593,2.18797 0.0354,1.30744 0.0261,2.93652 -0.009,1.62907 -0.0186,3.25815 0.46079,-0.73343 0.89487,-1.46615 0.43337,-0.75939 0.81772,-1.35724 0.38362,-0.62453 0.66629,-1.03272 0.30935,-0.4089 0.46728,-0.49329 0.18388,-0.11179 0.58268,-0.17599 0.42475,-0.0916 0.85095,-0.12985 0.4262,-0.0383 0.77452,0.006 0.375,0.0433 0.45866,0.1745 0.0822,0.0779 -0.27545,0.67501 -0.35838,0.57044 -0.94968,1.41422 -0.59131,0.84377 -1.36504,1.8527 -0.77374,1.00893 -1.54893,1.96449 z"
         style="font-size:27.3329px;line-height:17.0831px;font-family:'Jolly Lodger';-inkscape-font-specification:'Jolly Lodger';letter-spacing:0px;word-spacing:0px;fill:url(#linearGradient171088);stroke-width:1.98506;paint-order:stroke markers fill"
         id="path171049" />
      <path
         d="m 410.47327,133.26049 q 0.0346,0.29278 -0.0822,0.91009 -0.0901,0.61659 -0.31364,1.2368 -0.19684,0.61947 -0.55811,1.08319 -0.33459,0.463 -0.7882,0.47528 -0.32019,0.009 -0.54737,-0.49253 -0.20051,-0.5019 -0.3253,-1.16608 -0.0989,-0.69158 -0.17026,-1.35719 -0.0714,-0.66562 -0.13202,-0.93099 -0.0837,-0.13126 -0.32669,-0.23149 -0.21708,-0.12763 -0.43053,-0.12185 -0.21346,0.006 -0.47089,0.35988 -0.25744,0.3541 -0.51198,0.81493 -0.22786,0.4601 -0.40236,0.91877 -0.14781,0.45793 -0.11535,0.67067 0.004,0.16009 0.36205,0.55094 0.35771,0.39085 0.87985,0.93745 0.5481,0.5192 1.15246,1.14369 0.63031,0.59707 1.15462,1.22372 0.52359,0.59998 0.88563,1.15091 0.38873,0.55022 0.42624,0.94974 0.0397,0.47956 -0.23358,1.23462 -0.24659,0.75434 -0.65473,1.45964 -0.40814,0.7053 -0.8747,1.22528 -0.46655,0.51997 -0.83938,0.55676 -0.37283,0.0368 -1.10482,-0.37061 -0.70603,-0.43481 -1.44235,-1.00232 -0.71036,-0.59491 -1.28659,-1.16675 -0.54955,-0.57257 -0.63682,-0.83723 -0.0866,-0.23798 -0.12407,-0.63749 -0.0108,-0.40023 0.005,-0.8012 0.0426,-0.40168 0.14203,-0.6714 0.0988,-0.29639 0.25889,-0.30073 0.16009,-0.004 0.65555,0.543 0.49473,0.52064 1.07385,1.19921 0.5784,0.65189 1.12721,1.19778 0.54811,0.51919 0.78825,0.51269 0.13341,-0.004 0.28845,-0.19472 0.15432,-0.2178 0.2805,-0.48823 0.12619,-0.27045 0.19901,-0.53944 0.0988,-0.29639 0.0944,-0.45649 -0.0332,-0.23942 -0.44571,-0.68218 -0.41251,-0.44277 -1.04139,-0.98648 -0.62887,-0.54371 -1.36591,-1.13791 -0.73777,-0.62087 -1.36663,-1.16459 -0.62888,-0.54371 -1.0414,-0.98647 -0.41252,-0.44277 -0.44571,-0.68218 -0.0332,-0.23942 0.13987,-0.75146 0.17233,-0.5387 0.44922,-1.16035 0.27616,-0.64832 0.63165,-1.3255 0.38218,-0.67791 0.76724,-1.24907 0.38507,-0.57117 0.74923,-0.92816 0.39012,-0.38439 0.68364,-0.39234 0.58701,-0.0159 1.39616,0.28261 0.83582,0.2978 1.59593,0.75785 0.7594,0.43338 1.30678,0.9259 0.54738,0.49251 0.5849,0.89202 z"
         style="font-size:27.3329px;line-height:17.0831px;font-family:'Jolly Lodger';-inkscape-font-specification:'Jolly Lodger';letter-spacing:0px;word-spacing:0px;fill:url(#linearGradient171090);stroke-width:1.98506;paint-order:stroke markers fill"
         id="path171051" />
      <path
         style="display:inline;fill:#121c2d;fill-opacity:1;stroke:none;stroke-width:0.209799px;stroke-linecap:butt;stroke-linejoin:miter;stroke-opacity:1"
         d="m 322.2923,147.17558 c 2.25224,-1.22127 5.61734,-1.04194 6.63216,-0.17929 l 2.96698,-0.38502 c 0.59313,-1.15116 3.27701,-1.58334 4.93807,-0.82978 2.2096,-1.81829 4.55617,-1.27228 6.14707,0.16301 l 1.73232,0.33006 c 1.54301,-0.63868 6.91143,-1.33563 10.14206,-0.14261 l 3.23333,0.32329 c 1.80288,-0.89027 5.85268,-1.62331 8.4784,-0.13835 1.99012,-1.12836 5.59804,-1.91773 8.75335,-0.24062 l 1.45663,-3.36364 c 1.73318,-0.8168 4.14341,-1.33811 7.63634,-0.39712 2.21073,-0.25476 4.73847,-1.36311 8.3836,0.71484 0.0898,-1.09689 6.40455,1.58246 10.06254,1.003 0.86934,-0.13771 7.46191,-3.8606 10.10789,-1.69742 l 1.6272,8.69266 -91.62413,2.94532 z"
         id="path1649612"
         sodipodi:nodetypes="cccccccccccccscccc" />
      <path
         style="display:inline;fill:#1a2941;fill-opacity:1;stroke:none;stroke-width:0.209799px;stroke-linecap:butt;stroke-linejoin:miter;stroke-opacity:1"
         d="m 322.25824,147.40471 c 3.0676,-0.95366 4.93174,-0.63576 6.78029,-0.30138 l 2.79402,-0.2575 c 1.64713,-1.22861 3.34241,-1.14737 5.04201,-0.79772 3.01955,-1.7181 3.47793,-1.02897 7.65089,0.54737 3.42558,-0.74318 6.91981,-0.93637 10.43866,-0.22252 l 3.23263,0.23851 c 2.55,-0.68179 5.21477,-1.07441 8.40593,-0.14078 2.99301,-0.9737 4.80609,-1.32352 8.35889,-0.44357 0.79593,0.1998 1.138,-2.61816 1.75627,-3.15497 1.73318,-0.81679 3.83517,-0.76507 7.74811,-0.36418 2.21073,-0.25475 4.05383,-0.83414 8.35785,0.7595 -0.11884,-0.81342 11.6384,1.34074 11.09197,0.89645 -0.39014,-0.31722 8.06193,-3.01119 9.40317,-1.60251 l 1.34161,9.05037 -98.27455,3.12539 c 1.00142,-3.07961 3.30826,-5.29152 5.87225,-7.3325 z"
         id="path1649326"
         sodipodi:nodetypes="ccccccccccccsccccc" />
    </g>
  </g>
</svg>
