<?xml version="1.0" encoding="UTF-8" standalone="no"?>
<!-- Created with Inkscape (http://www.inkscape.org/) -->

<svg
   width="42.348999mm"
   height="40.900002mm"
   viewBox="0 0 42.349 40.900003"
   version="1.1"
   id="svg162186"
   inkscape:version="1.1.2 (0a00cf5339, 2022-02-04)"
   sodipodi:docname="ShonkDumpster.svg"
   xmlns:inkscape="http://www.inkscape.org/namespaces/inkscape"
   xmlns:sodipodi="http://sodipodi.sourceforge.net/DTD/sodipodi-0.dtd"
   xmlns:xlink="http://www.w3.org/1999/xlink"
   xmlns="http://www.w3.org/2000/svg"
   xmlns:svg="http://www.w3.org/2000/svg">
  <sodipodi:namedview
     id="namedview162188"
     pagecolor="#505050"
     bordercolor="#eeeeee"
     borderopacity="1"
     inkscape:pageshadow="0"
     inkscape:pageopacity="0"
     inkscape:pagecheckerboard="0"
     inkscape:document-units="mm"
     showgrid="false"
     inkscape:zoom="0.41476498"
     inkscape:cx="710.04066"
     inkscape:cy="284.49847"
     inkscape:window-width="1920"
     inkscape:window-height="1011"
     inkscape:window-x="0"
     inkscape:window-y="0"
     inkscape:window-maximized="1"
     inkscape:current-layer="g169161" />
  <defs
     id="defs162183">
    <radialGradient
       inkscape:collect="always"
       xlink:href="#linearGradient116710"
       id="radialGradient1097791"
       gradientUnits="userSpaceOnUse"
       gradientTransform="matrix(-0.13021844,0.00218249,0.00218249,0.13021844,215.4907,210.91024)"
       cx="140.80722"
       cy="418.87277"
       fx="140.80722"
       fy="418.87277"
       r="4.6054859" />
    <linearGradient
       inkscape:collect="always"
       id="linearGradient116710">
      <stop
         style="stop-color:#294068;stop-opacity:1;"
         offset="0.72505134"
         id="stop116706" />
      <stop
         style="stop-color:#3f678a;stop-opacity:1;"
         offset="0.84288925"
         id="stop119267" />
      <stop
         style="stop-color:#6aafca;stop-opacity:1;"
         offset="1"
         id="stop116708" />
    </linearGradient>
  </defs>
  <g
     inkscape:label="Layer 1"
     inkscape:groupmode="layer"
     id="layer1">
    <g
       id="g169161"
       transform="translate(-316.38599,-125.54939)">
      <g
         id="g2215832"
         inkscape:label="Dumpster,Shonk, Flame"
         style="display:inline"
         transform="translate(121.74367,-118.40383)">
        <g
           id="g2215763"
           inkscape:label="Dumpster 01">
          <path
             style="fill:#1e2e4b;fill-opacity:1;stroke:#0c121c;stroke-width:0.173339;stroke-linecap:butt;stroke-linejoin:miter;stroke-dasharray:none;stroke-opacity:1"
             d="m 208.83499,269.75575 -0.79998,0.71123 c -0.14733,0.13098 -0.13829,0.26347 -0.0231,0.39304 l 1.3662,1.53667 c 0.11395,0.12817 0.30131,0.11524 0.50876,-0.0692 l 0.75779,-0.67373 z"
             id="path151487"
             sodipodi:nodetypes="ccccccc"
             inkscape:label="Wagen0001" />
          <path
             style="fill:#1a2941;fill-opacity:1;stroke:#0c121c;stroke-width:0.173339;stroke-linecap:butt;stroke-linejoin:miter;stroke-dasharray:none;stroke-opacity:1"
             d="m 209.91068,272.31306 0.22029,0.24779 c 0.0999,0.11236 0.20203,0.13874 0.3359,0.0197 l 0.44354,-0.39433 -0.39405,-0.44321 z"
             id="path153247"
             sodipodi:nodetypes="cccccc"
             inkscape:label="Wagen0002" />
          <path
             style="display:inline;fill:#1a2941;fill-opacity:1;stroke:#0c121c;stroke-width:0.173339;stroke-linecap:butt;stroke-linejoin:miter;stroke-dasharray:none;stroke-opacity:1"
             d="m 208.16406,270.34851 -0.2203,-0.24779 c -0.0999,-0.11236 -0.11414,-0.21688 0.0197,-0.3359 l 0.44353,-0.39433 0.39405,0.44321 z"
             id="path153245"
             sodipodi:nodetypes="cccccc"
             inkscape:label="Wagen0003" />
        </g>
        <g
           id="g3606611"
           style="display:inline"
           inkscape:label="Hai">
          <path
             style="color:#000000;fill:#4a7888;stroke-width:0.215763"
             d="m 212.33269,270.0059 c 0.004,0.46541 0.34416,1.27121 0.73963,1.50091 0.48854,0.27612 0.11216,0.49139 -0.27187,0.58478 -2.28854,0.1767 -4.42989,-0.55019 -4.67957,-1.37316 z"
             id="path1097673" />
          <path
             style="color:#000000;fill:#2e4a54;stroke-width:0.628156"
             d="m 212.43924,269.87867 10e-4,0.12609 c 0.002,0.20693 0.0834,0.51807 0.21293,0.79478 0.12955,0.27671 0.31136,0.51976 0.47334,0.61383 0.13185,0.0747 0.21869,0.14921 0.26164,0.24399 0.0431,0.0951 0.0166,0.20704 -0.0414,0.27855 -0.1159,0.14304 -0.31809,0.21133 -0.52072,0.2606 l -0.008,0.003 -0.009,-1.1e-4 c -1.15818,0.0894 -2.27715,-0.0495 -3.14475,-0.31657 -0.43378,-0.13363 -0.80541,-0.2982 -1.08911,-0.4874 -0.28371,-0.18918 -0.48401,-0.40215 -0.55758,-0.64466 l -0.036,-0.11744 z m -0.18259,0.24958 -3.93801,0.66514 c 0.0757,0.13957 0.16939,0.28318 0.37683,0.42148 0.25952,0.17306 0.61376,0.33352 1.03257,0.46246 0.83521,0.25738 1.92895,0.39067 3.05595,0.30489 0.1769,-0.0449 0.35036,-0.12645 0.39546,-0.18209 0.0231,-0.0285 0.0243,-0.0281 0.0125,-0.0539 -0.0117,-0.0259 -0.0608,-0.0819 -0.17255,-0.14499 l -10e-4,-3.6e-4 3.7e-4,-0.001 c -0.23348,-0.13564 -0.42037,-0.4098 -0.56081,-0.70977 -0.12112,-0.25871 -0.17901,-0.52444 -0.20121,-0.76171 z"
             id="path1097675" />
          <path
             style="color:#000000;fill:#487584;stroke-width:0.183426;stroke-linecap:round;stroke-linejoin:round"
             d="m 206.2113,260.55124 c 1.1196,0.54271 3.71144,0.49584 3.6288,0.81955 -0.5528,1.35506 -2.1054,1.52881 -3.31187,2.09093 -0.47556,-0.85969 -0.28058,-1.91962 -0.31693,-2.91048 z"
             id="path1097709" />
          <path
             style="color:#000000;fill:#2e4a54;stroke-width:0.628156;stroke-linecap:round;stroke-linejoin:round"
             d="m 209.79318,261.18189 c 0.0394,0.0186 0.0736,0.0395 0.10201,0.0735 0.0284,0.034 0.0457,0.0905 0.0334,0.13846 a 0.09172241,0.09172241 0 0 1 -0.004,0.0117 c -0.28722,0.70406 -0.83852,1.10326 -1.45687,1.39113 -0.61832,0.28787 -1.30783,0.4716 -1.90069,0.74783 a 0.09172241,0.09172241 0 0 1 -0.11932,-0.0377 c -0.49615,-0.89691 -0.29273,-1.97511 -0.32853,-2.95157 a 0.09172241,0.09172241 0 0 1 0.13167,-0.0868 c 0.53387,0.25878 1.4601,0.38697 2.237,0.4835 0.38845,0.0482 0.73934,0.0896 0.99481,0.14054 0.12775,0.0254 0.23115,0.0522 0.3101,0.0893 z m -0.0788,0.1658 c -0.0514,-0.0243 -0.14583,-0.051 -0.26705,-0.0749 -0.24223,-0.0483 -0.59359,-0.0898 -0.98271,-0.13812 -0.73376,-0.0911 -1.57438,-0.2218 -2.1622,-0.47224 0.0198,0.94035 -0.10265,1.89717 0.28807,2.67629 0.58827,-0.26103 1.23393,-0.44443 1.80004,-0.70797 0.58816,-0.27383 1.07793,-0.63804 1.34666,-1.26955 -0.007,-0.005 -0.009,-0.007 -0.0228,-0.0135 z"
             id="path1097711" />
          <path
             style="fill:#23202c;fill-opacity:1;stroke:none;stroke-width:0.0876007px;stroke-linecap:butt;stroke-linejoin:miter;stroke-opacity:1"
             d="m 203.74409,254.649 c -0.0783,-1.23082 -0.0953,-1.50316 -0.94154,-2.44548 -0.44128,-0.48783 -0.92977,-0.93066 -1.30651,-1.26547 -0.54503,-0.46965 -1.1245,-1.13866 -1.57725,-1.86361 -0.3407,0.002 -0.57727,-0.10782 -0.6669,-0.37608 -0.44746,0.34692 -0.41274,0.94966 -0.57045,1.06067 -0.39899,0.33562 -0.56949,0.78947 -0.78541,1.22242 -0.004,-1.34454 0.48457,-3.44419 0.96798,-3.83499 1.49062,-1.32283 2.89144,-0.78269 3.10305,-0.38671 0.25704,0.42925 0.7519,0.74381 1.24369,0.66574 0.40064,-0.017 0.50969,0.21385 0.83952,0.55253 1.07465,0.33632 1.91494,0.72713 2.79033,1.14376 1.64805,0.21063 -2.78557,5.06421 -3.09651,5.52722 z"
             id="path1097713"
             sodipodi:nodetypes="ccccccccccccc" />
          <path
             class="cls-5"
             d="m 203.40372,255.74113 c 0.25304,-0.46294 9.01125,-1.77636 8.56133,-4.93353 0.0205,-0.0867 -0.61241,-0.50046 -0.66399,-0.57219 -0.86554,-0.59962 -1.05884,-0.13305 -1.16606,-0.0105 -0.51667,0.51815 -1.00542,1.85647 -1.56983,2.32229 -2.45592,2.02645 -5.20355,2.30645 -8.34863,1.82199 -0.28206,-0.0435 -0.79931,-0.37393 -0.93351,-0.1219 -0.1471,0.27753 0.5062,0.85946 0.78601,1.00305 1.98337,1.01785 2.59011,0.35973 3.49977,0.51293"
             id="path1097715"
             sodipodi:nodetypes="ccccccccc"
             style="fill:#171717;fill-opacity:1;stroke-width:0.0196385" />
          <path
             style="color:#000000;fill:#4a7888;stroke-width:0.183426;stroke-linecap:round;stroke-linejoin:round"
             d="m 201.04027,256.24857 c -1.4642,0.69359 -4.68096,2.44055 -6.26306,7.40843 -0.25798,1.64114 0.71468,1.25455 0.91828,1.02631 1.11323,-0.85552 2.18194,-1.28699 3.17739,-1.02096 z"
             id="path1097717" />
          <path
             style="color:#000000;fill:#2e4a54;stroke-width:0.628156;stroke-linecap:round;stroke-linejoin:round"
             d="m 201.10005,256.17924 a 0.09172241,0.09172241 0 0 1 0.0288,0.0947 l -2.16788,7.41445 a 0.09172241,0.09172241 0 0 1 -0.11133,0.0622 c -0.95575,-0.2554 -1.99537,0.15871 -3.09794,1.00602 l 0.0129,-0.0127 c -0.0665,0.0745 -0.17453,0.14456 -0.3036,0.19215 -0.12907,0.0476 -0.28148,0.0716 -0.4275,0.0222 -0.14609,-0.0491 -0.2732,-0.17861 -0.33759,-0.39028 -0.0644,-0.21167 -0.0748,-0.50652 -0.009,-0.92499 a 0.09172241,0.09172241 0 0 1 0.003,-0.0144 c 1.59111,-4.99621 4.84044,-6.76589 6.31151,-7.46274 a 0.09172241,0.09172241 0 0 1 0.0985,0.0134 z m -0.21035,0.2565 c -1.51753,0.73766 -4.50203,2.47963 -6.02153,7.2395 -0.0622,0.39905 -0.0486,0.67028 0.003,0.83977 0.0518,0.17028 0.13157,0.2385 0.22192,0.26907 0.0903,0.0308 0.20242,0.0179 0.30493,-0.0199 0.10249,-0.0378 0.1939,-0.10214 0.22921,-0.14173 a 0.09172241,0.09172241 0 0 1 0.0125,-0.0115 c 1.09033,-0.8379 2.15309,-1.25823 3.16093,-1.0317 z"
             id="path1097719" />
          <path
             style="color:#000000;fill:#4a7888;stroke-width:0.183426"
             d="m 208.84516,271.84915 c -0.0992,0.38303 0.003,1.1196 0.27711,1.39524 0.34042,0.33422 -0.016,0.42818 -0.35191,0.42038 -1.91815,-0.35846 -3.5166,-1.42651 -3.54055,-2.15722 z"
             id="path1097721" />
          <path
             style="color:#000000;fill:#2e4a54;stroke-width:0.628156"
             d="m 208.96155,271.76806 -0.0279,0.10437 c -0.0441,0.1703 -0.0458,0.44324 -2.9e-4,0.69897 0.0455,0.25573 0.14203,0.49569 0.25434,0.60859 0.0914,0.0901 0.14705,0.16999 0.16145,0.25704 0.0145,0.0875 -0.0319,0.1738 -0.0953,0.21978 -0.12665,0.092 -0.30839,0.10354 -0.48567,0.0994 l -0.008,2.6e-4 -0.007,-0.002 c -0.97072,-0.1814 -1.85887,-0.54084 -2.51254,-0.95106 -0.32683,-0.20513 -0.5947,-0.42218 -0.78605,-0.63995 -0.19135,-0.21777 -0.30933,-0.43786 -0.31639,-0.65318 l -0.003,-0.10354 z m -0.20535,0.1644 -3.38035,-0.3179 c 0.0318,0.13084 0.0767,0.26913 0.21591,0.42757 0.17504,0.19921 0.43083,0.408 0.74637,0.60604 0.62903,0.39478 1.49739,0.74656 2.44121,0.92418 0.15609,0.002 0.3175,-0.0278 0.36705,-0.0638 0.0252,-0.0183 0.0254,-0.0171 0.0215,-0.0409 -0.004,-0.0238 -0.0318,-0.0814 -0.10963,-0.15785 l -10e-4,-3.6e-4 c -0.16188,-0.16275 -0.25485,-0.42868 -0.30417,-0.7059 -0.0426,-0.23929 -0.0308,-0.47129 0.003,-0.6711 z"
             id="path1097723" />
          <path
             style="fill:#558a9c;fill-opacity:1;stroke:none;stroke-width:0.227492;stroke-linecap:butt;stroke-linejoin:miter;stroke-dasharray:none;stroke-opacity:1"
             d="m 218.42959,261.6976 c 0.14627,-0.49892 0.32816,-0.8338 -0.68711,-0.71887 -1.07183,0.16088 -1.81993,0.67497 -2.83374,1.41269 -1.27188,0.9197 -1.44986,4.23632 -2.0997,5.49512 -0.89215,1.05305 -5.03101,1.14477 -6.15265,-1.6352 -1.21116,-3.16356 -0.14107,-4.84291 2.01539,-7.27023 0.0994,-0.11262 0.0705,-0.64727 0.38,-1.06456 0.61889,-0.8346 1.01809,-0.70836 1.11179,-0.82018 1.03226,-1.23192 1.42241,-2.01976 1.75157,-3.61481 0.45521,-2.07464 -1.09144,-2.5363 -1.82199,-2.56252 -1.9963,-0.14646 -6.3932,1.59323 -8.64137,4.49851 -1.0126,1.30858 -2.26055,3.79846 -2.48023,4.75653 -0.64251,3.9151 0.007,5.53246 1.70795,7.946 2.46699,2.82662 4.81265,4.27888 8.14346,3.95079 3.34121,-0.63449 4.13297,-1.45245 5.23494,-2.58008 1.72142,0.0288 3.64824,0.33918 5.32835,-1.029 0.51338,-0.45384 1.27319,-1.06545 1.43369,-1.50316 0.0994,-0.28224 0.12152,-0.50003 -0.21414,-0.44788 -1.64168,0.27639 -3.20159,0.33271 -3.50143,0.0462 -0.84477,-0.91195 0.79803,-3.19251 1.32524,-4.85931 z"
             id="path1097725"
             sodipodi:nodetypes="ccccccssccsccccccccc" />
          <path
             id="ellipse1097727"
             style="fill:#2f152f;stroke-width:0.142437;stroke-linecap:round;stroke-linejoin:round;stroke-dashoffset:2.84519;paint-order:stroke markers fill"
             transform="matrix(0.48245412,-0.87592124,-0.87592124,-0.48245412,0,0)"
             d="m -122.3992,-303.43146 a 0.80845094,0.76907051 0 0 1 -0.80845,0.76907 0.80845094,0.76907051 0 0 1 -0.80845,-0.76907 0.80845094,0.76907051 0 0 1 0.80845,-0.76907 0.80845094,0.76907051 0 0 1 0.80845,0.76907 z" />
          <path
             style="color:#000000;fill:#2e4a54;stroke-width:0.628156;stroke-linecap:round;stroke-linejoin:round"
             d="m 204.50117,254.51147 a 0.10272951,0.10272951 0 0 1 0.11368,0.0898 c 0.0513,0.42085 0.1402,0.88113 0.35203,1.23869 0.21181,0.35756 0.53494,0.6179 1.10308,0.66866 a 0.10272951,0.10272951 0 0 1 0.0941,0.11208 0.10272951,0.10272951 0 0 1 -0.11172,0.0929 c -0.62577,-0.0559 -1.0242,-0.36822 -1.26208,-0.76976 -0.23788,-0.40155 -0.32683,-0.88695 -0.37928,-1.31754 a 0.10272951,0.10272951 0 0 1 0.0902,-0.11487 z"
             id="path1097729" />
          <path
             style="fill:#e6e7e7;fill-opacity:1;stroke:none;stroke-width:0.029148px;stroke-linecap:butt;stroke-linejoin:miter;stroke-opacity:1"
             d="m 212.51567,268.37377 c -2.1929,2.34286 -8.30572,0.72008 -8.02754,-3.8197 0.10874,-1.19999 0.53968,-7.9925 3.81116,-10.3893 1.54675,-1.47534 2.60207,-1.30662 3.66313,-1.1571 0.0492,1.44323 -0.74617,2.76071 -1.88259,4.17652 -0.32064,0.0354 -0.84723,0.40672 -1.02046,0.60681 -0.15725,0.18162 -0.4274,0.6671 -0.42703,1.28657 -0.99169,1.54917 -2.08957,2.31426 -2.20149,3.7956 -0.30615,4.05158 1.00218,6.25753 6.0848,5.50059 z"
             id="path1097731"
             sodipodi:nodetypes="cccccscsc" />
          <path
             style="color:#000000;fill:#2e4a54;stroke-width:0.628156;stroke-linecap:round;stroke-linejoin:round"
             d="m 203.48827,256.38563 a 0.09171324,0.09171324 0 0 1 0.12108,0.0446 c 0.1675,0.35853 0.28458,0.73306 0.51031,1.00991 0.22572,0.27685 0.55412,0.46987 1.19342,0.46919 a 0.09171324,0.09171324 0 0 1 0.0924,0.0924 0.09171324,0.09171324 0 0 1 -0.092,0.0912 c -0.67797,7.2e-4 -1.07927,-0.22249 -1.33566,-0.53695 -0.25639,-0.31446 -0.37457,-0.70561 -0.53458,-1.04809 a 0.09171324,0.09171324 0 0 1 0.045,-0.12225 z"
             id="path1097733" />
          <path
             style="color:#000000;fill:#2e4a54;stroke-width:0.628156;stroke-linecap:round;stroke-linejoin:round"
             d="m 202.9361,257.8385 a 0.09171324,0.09171324 0 0 1 0.0505,0.0488 c 0.1926,0.44439 0.41242,0.79242 0.69667,1.01287 0.28425,0.22047 0.63391,0.32218 1.11879,0.26814 a 0.09171324,0.09171324 0 0 1 0.10104,0.0809 0.09171324,0.09171324 0 0 1 -0.0809,0.10103 c -0.52076,0.058 -0.92954,-0.0566 -1.25094,-0.30587 -0.3214,-0.24928 -0.55433,-0.62513 -0.75322,-1.084 a 0.09171324,0.09171324 0 0 1 0.047,-0.12036 0.09171324,0.09171324 0 0 1 0.071,-0.001 z"
             id="path1097735" />
          <path
             style="color:#000000;fill:#2e4a54;stroke-width:0.628156;stroke-linecap:round;stroke-linejoin:round"
             d="m 214.87268,268.22104 a 0.09171324,0.09171324 0 0 1 0.0554,0.11694 c -0.16495,0.45423 -0.4559,0.86226 -0.84271,1.23214 a 0.09171324,0.09171324 0 0 1 -0.13007,-0.002 0.09171324,0.09171324 0 0 1 0.004,-0.12972 c 0.37137,-0.35512 0.64346,-0.73918 0.79679,-1.16149 a 0.09171324,0.09171324 0 0 1 0.11694,-0.0554 z"
             id="path1097737" />
          <path
             style="color:#000000;fill:#2e4954;fill-opacity:0.211765;stroke-width:0.183426;stroke-linecap:round;stroke-linejoin:round"
             d="m 214.45161,266.41926 c -0.58242,0.65059 -1.10887,1.37191 -1.92456,1.72769"
             id="path1097739" />
          <path
             style="color:#000000;fill:#2e4a54;stroke-width:0.628156;stroke-linecap:round;stroke-linejoin:round"
             d="m 214.51299,266.3515 a 0.09171324,0.09171324 0 0 1 0.007,0.12906 c -0.57827,0.64595 -1.11234,1.38239 -1.95642,1.75055 a 0.09171324,0.09171324 0 0 1 -0.12035,-0.047 0.09171324,0.09171324 0 0 1 0.0473,-0.12153 c 0.78731,-0.3434 1.30582,-1.04943 1.8924,-1.70465 a 0.09171324,0.09171324 0 0 1 0.13023,-0.006 z"
             id="path1097741" />
          <path
             style="color:#000000;fill:#2e4a54;stroke-width:0.628156"
             d="m 210.78708,250.92998 c 0.2523,0.0835 0.51228,0.21529 0.73725,0.41727 0.44955,0.40358 0.73556,1.09315 0.50292,2.15693 -0.30349,1.47067 -0.9188,2.62371 -1.87315,3.70635 -0.18109,0.20544 -0.41324,0.196 -0.54116,0.20563 -0.0221,0.002 -0.10053,0.0406 -0.18471,0.12196 -0.0842,0.0813 -0.1778,0.19618 -0.26422,0.31959 -0.17287,0.24684 -0.32325,0.5409 -0.35374,0.64247 l -3.6e-4,10e-4 -3.7e-4,0.001 c -0.0565,0.17451 -0.05,0.34261 -0.0475,0.50885 0.003,0.16626 0.002,0.34313 -0.11786,0.48739 -0.92947,1.114 -1.67164,2.0906 -2.04351,3.13363 -0.37186,1.04303 -0.38286,2.15524 0.16183,3.57798 0.54288,1.34341 1.81399,1.99521 3.07282,2.184 0.62969,0.0944 1.25466,0.0704 1.77065,-0.0397 0.51239,-0.10927 0.91109,-0.3093 1.10816,-0.53805 0.32451,-0.60718 0.48333,-1.68387 0.73525,-2.75538 0.25335,-1.0775 0.60426,-2.15742 1.38947,-2.75977 l 0.002,-8.4e-4 0.002,-8.4e-4 c 1.015,-0.73859 1.7839,-1.26822 2.88321,-1.43323 l 0.003,-4.7e-4 0.002,-8.3e-4 c 0.25958,-0.0294 0.44689,-0.0314 0.59018,-0.005 0.14328,0.0268 0.25511,0.094 0.30509,0.19824 0.05,0.10427 0.0369,0.21378 0.013,0.32335 -0.0239,0.10956 -0.0622,0.22532 -0.0982,0.34715 l -3.6e-4,0.001 -3.7e-4,10e-4 c -0.26933,0.85158 -0.81432,1.8382 -1.18165,2.72183 -0.18368,0.44181 -0.32162,0.85725 -0.36279,1.20665 -0.0411,0.34754 0.0122,0.61857 0.19251,0.81549 0.0395,0.0363 0.17358,0.0921 0.37603,0.12126 0.20438,0.0293 0.47486,0.0412 0.78718,0.0349 0.62464,-0.0127 1.42132,-0.0959 2.2376,-0.23333 l 0.001,3.7e-4 c 0.0956,-0.0148 0.17575,-0.015 0.24834,0.0142 0.0726,0.0292 0.12885,0.0962 0.1486,0.16462 0.0395,0.13692 -0.007,0.27221 -0.0587,0.41949 l -3.7e-4,10e-4 c -0.0944,0.25724 -0.33398,0.51968 -0.61233,0.78806 -0.27837,0.26837 -0.59807,0.53558 -0.85288,0.76085 l -0.002,0.002 -0.002,8.4e-4 c -1.70655,1.3897 -3.66113,1.08708 -5.36124,1.0545 -1.08314,1.10777 -1.93631,1.94833 -5.2526,2.57809 l -0.006,9.4e-4 -0.004,0.001 c -3.36857,0.33181 -5.7624,-1.15073 -8.24018,-3.98972 l -0.004,-0.004 -0.004,-0.005 c -1.70706,-2.42195 -2.3723,-4.09824 -1.72699,-8.03036 l -1e-4,-0.004 0.001,-0.004 c 0.11552,-0.50385 0.48421,-1.3632 0.95255,-2.27351 0.46835,-0.91031 1.03416,-1.8627 1.54798,-2.52672 1.13932,-1.47233 2.81465,-2.64044 4.45694,-3.4262 1.64065,-0.78497 3.24247,-1.19139 4.27958,-1.11634 3.3e-4,1e-5 5.8e-4,2.6e-4 0.001,3.6e-4 0.193,0.007 0.43627,0.0408 0.68817,0.12397 z m -0.69826,0.10256 -0.002,8.3e-4 -0.002,-7.3e-4 c -0.9593,-0.0704 -2.55151,0.31992 -4.16878,1.0937 -1.61727,0.77379 -3.26518,1.92747 -4.37402,3.36042 -0.49877,0.64456 -1.06344,1.59074 -1.52714,2.49204 -0.46347,0.90083 -0.82784,1.76501 -0.93221,2.21943 -5e-5,2.2e-4 -3.8e-4,10e-4 -3.7e-4,10e-4 -0.63712,3.89011 -0.003,5.45045 1.68903,7.85203 0.001,9.7e-4 6.5e-4,0.002 0.002,0.003 2.4524,2.80721 4.74793,4.22589 8.03576,3.903 7.1e-4,-1.7e-4 0.001,-2.3e-4 0.003,-4.7e-4 3.3152,-0.63131 4.06392,-1.41967 5.16455,-2.54594 l 0.0348,-0.0343 0.0485,6.8e-4 c 1.73238,0.0289 3.61154,0.33169 5.25123,-1.00083 l 0.003,-0.002 c 2.5e-4,-2e-4 1.9e-4,-10e-4 3.7e-4,-10e-4 0.258,-0.22797 0.57331,-0.49197 0.84226,-0.75128 0.27001,-0.26031 0.4909,-0.52311 0.55708,-0.70357 0.0466,-0.13347 0.0614,-0.24961 0.053,-0.27885 -0.004,-0.0147 4.2e-4,-0.01 -0.0144,-0.0159 -0.0145,-0.006 -0.057,-0.0122 -0.12926,-9.5e-4 -0.82479,0.13879 -1.62874,0.22234 -2.26898,0.2353 -0.32034,0.006 -0.59881,-0.005 -0.82254,-0.0367 -0.22374,-0.0321 -0.3942,-0.0757 -0.50611,-0.18261 l -0.002,-0.003 -0.003,-0.002 c -0.23975,-0.25882 -0.29843,-0.61382 -0.25276,-1.00062 0.0457,-0.3868 0.19265,-0.81614 0.37984,-1.26686 0.37438,-0.90058 0.91475,-1.88658 1.17286,-2.70142 l 7.3e-4,-0.002 c 0.0373,-0.1264 0.0753,-0.23834 0.0947,-0.32769 0.0196,-0.09 0.016,-0.14998 0.003,-0.17744 -0.0132,-0.0275 -0.0368,-0.0543 -0.14044,-0.0736 -0.10281,-0.0192 -0.274,-0.0203 -0.51909,0.007 -1.04432,0.15676 -1.77076,0.65501 -2.78336,1.39185 -0.70416,0.54164 -1.05516,1.56739 -1.30509,2.63031 -0.25017,1.06397 -0.39575,2.15108 -0.76213,2.8267 l -0.005,0.0113 -0.008,0.009 c -0.25055,0.29574 -0.69789,0.50078 -1.24391,0.61722 -0.546,0.11645 -1.1938,0.13947 -1.85055,0.041 -1.31352,-0.197 -2.67118,-0.88996 -3.25033,-2.32537 l -0.001,-3.7e-4 3.7e-4,-10e-4 c -0.55943,-1.46121 -0.55238,-2.64574 -0.16358,-3.73628 0.38879,-1.09054 1.14938,-2.08418 2.08249,-3.20255 0.0602,-0.0722 0.0683,-0.17732 0.0659,-0.33778 -0.002,-0.16014 -0.0137,-0.36308 0.0572,-0.58284 0.0502,-0.16673 0.20175,-0.4422 0.38551,-0.7046 0.092,-0.13139 0.19186,-0.25609 0.29247,-0.35331 0.1006,-0.0972 0.19872,-0.17578 0.32589,-0.18536 0.15662,-0.0118 0.2664,0.007 0.3871,-0.12948 0.93366,-1.05916 1.52437,-2.1662 1.82038,-3.6006 l 3.7e-4,-0.001 3.6e-4,-10e-4 c 0.22145,-1.00925 -0.0396,-1.58816 -0.43176,-1.94026 -0.3922,-0.3521 -0.93961,-0.47159 -1.28385,-0.48394 z"
             id="path1097743" />
          <path
             class="cls-11"
             d="m 209.8999,249.74612 c -0.66442,0.003 -1.72546,0.78098 -2.77094,1.40154 -0.31389,0.18575 -0.62782,0.37286 -0.95136,0.54217 -0.78036,0.4087 -1.60986,0.71492 -2.43658,1.02006 -1.33385,0.66913 -2.92836,0.64085 -3.70643,1.01933 -0.36901,0.20188 -1.11251,0.45454 -0.62473,0.84775 0.0741,0.0558 0.16511,0.0842 0.25513,0.10698 0.4127,0.10158 0.84381,0.0904 1.26866,0.0786 l 2.3644,-0.0665 c 0.50922,-0.014 1.01942,-0.0282 1.52548,-0.0876 0.8894,-0.10432 1.76838,-0.35206 2.54918,-0.79081 0.78079,-0.43875 1.46024,-1.07375 1.89114,-1.85894 0.23057,-0.42086 0.38938,-0.88053 0.64672,-1.28574 0.25735,-0.40521 1.18157,-0.66559 2.01976,0.11202 0.25432,0.24534 -0.43538,-0.86594 -2.03042,-1.03883 z"
             id="path1097745"
             sodipodi:nodetypes="ccccccccccscscc"
             style="fill:#23202c;fill-opacity:1;stroke-width:0.0196385" />
          <path
             class="cls-12"
             d="m 208.401,250.21012 c -0.35728,-0.21019 -0.65755,-0.50479 -0.8745,-0.85801 -0.0277,-0.0454 -0.0557,-0.0933 -0.10136,-0.12137 -0.11551,-0.0702 -0.25804,0.0242 -0.36105,0.11122 -1.45135,1.22576 -3.11366,1.94043 -5.01648,2.01327 -0.37762,-0.0416 -0.3292,0.14177 -0.31309,0.44298 0.0248,0.45341 0.0889,0.90407 0.19195,1.34686 0.0162,0.0699 0.0344,0.14286 0.0829,0.19679 0.0622,0.0701 0.16085,0.0945 0.25389,0.10889 0.48571,0.0756 0.76978,-0.0171 1.24386,-0.14683 1.92604,-0.53004 3.67341,-1.56991 5.05789,-3.01"
             id="path1097747"
             sodipodi:nodetypes="ccccccscccc"
             style="fill:#e6e7e7;fill-opacity:1;stroke-width:0.0196385" />
          <path
             style="color:#000000;fill:#558a9c;stroke-width:0.205459;stroke-linecap:round;stroke-linejoin:round"
             d="m 201.77879,260.88203 c 0.0143,-0.12157 2.07412,0.29034 3.41879,1.30045 1.40249,1.05355 3.34747,1.18364 3.37917,1.56718 0.12475,1.50939 -4.46043,1.93471 -4.69887,1.67634"
             id="path1097749" />
          <path
             style="color:#000000;fill:#2e4a54;stroke-width:0.628156;stroke-linecap:round;stroke-linejoin:round"
             d="m 203.01918,261.01023 c 0.6926,0.21651 1.55345,0.57385 2.24057,1.09001 0.68463,0.51429 1.50944,0.80786 2.17237,1.01919 0.33145,0.10569 0.62156,0.19024 0.83802,0.2761 0.10828,0.0428 0.19892,0.0852 0.27014,0.13624 0.0712,0.0511 0.13138,0.11843 0.13888,0.20911 0.0177,0.21461 -0.0505,0.41388 -0.17585,0.58513 -0.12537,0.17124 -0.30654,0.31853 -0.52252,0.44733 -0.43197,0.25759 -1.00801,0.44416 -1.59461,0.57695 -0.58657,0.13278 -1.18273,0.21054 -1.65028,0.23802 -0.23377,0.0138 -0.43501,0.0141 -0.58981,0.004 -0.0774,-0.005 -0.14241,-0.013 -0.19742,-0.0256 -0.055,-0.0128 -0.10146,-0.0215 -0.14655,-0.0704 a 0.10272951,0.10272951 0 0 1 0.006,-0.14569 0.10272951,0.10272951 0 0 1 0.14569,0.006 c -0.0153,-0.0166 0.002,10e-4 0.0406,0.01 0.0382,0.009 0.0961,0.0165 0.16665,0.0213 0.1411,0.01 0.33535,0.009 0.56302,-0.004 0.45534,-0.0268 1.04273,-0.10296 1.61666,-0.23289 0.57391,-0.12992 1.13491,-0.31547 1.53503,-0.55407 0.20007,-0.1193 0.35943,-0.25152 0.46187,-0.39144 0.10244,-0.13991 0.14985,-0.28435 0.13637,-0.4471 -3.3e-4,-0.005 -0.007,-0.0252 -0.0539,-0.0587 -0.0467,-0.0336 -0.12443,-0.0724 -0.22488,-0.1122 -0.20092,-0.0795 -0.49106,-0.16567 -0.82511,-0.27216 -0.66812,-0.21298 -1.51585,-0.51017 -2.2337,-1.04944 -0.65756,-0.49395 -1.50102,-0.84778 -2.17807,-1.0594 -0.3385,-0.10588 -0.63556,-0.17678 -0.84571,-0.21304 -0.10508,-0.0181 -0.18867,-0.027 -0.2402,-0.0283 -0.022,-8.1e-4 -0.0345,-3e-5 -0.04,6.1e-4 a 0.10272951,0.10272951 0 0 1 -0.0659,0.0184 0.10272951,0.10272951 0 0 1 -0.0899,-0.11334 c 0.005,-0.0401 0.0333,-0.0717 0.0541,-0.0848 0.0208,-0.0131 0.037,-0.0168 0.0523,-0.02 0.0306,-0.006 0.0596,-0.007 0.0942,-0.006 0.0691,0.002 0.15907,0.0119 0.27013,0.0311 0.22212,0.0383 0.52558,0.11151 0.87188,0.21977 z"
             id="path1097751" />
          <path
             style="fill:#c2b0ac;fill-opacity:1;stroke-width:0.0324227"
             d="m 208.25582,256.77602 -0.0271,0.25038 c -0.0133,0.12105 0.12057,0.20199 0.2216,0.13444 l 0.18359,-0.12299 0.014,0.21644 c 0.009,0.14314 0.17764,0.21446 0.28712,0.12212 l 0.1096,-0.0924 -0.0207,0.0764 c -0.007,0.12881 0.0764,0.21755 0.16696,0.18747 -0.7733,0.83748 -0.67163,1.66217 -0.67163,1.66217 0.0136,8.7e-4 -0.38565,-0.15453 -0.75385,-0.40065 -0.1414,-0.0946 -0.30407,-0.18715 -0.46832,-0.29782 0.0239,-0.0272 0.0469,-0.0544 0.0693,-0.0815 l 0.34077,0.29388 0.0977,-0.39811 c 0.0252,-0.10411 -0.0821,-0.19068 -0.17851,-0.14327 l -0.1144,0.0564 c 0.34561,-0.49445 0.42675,-0.95074 0.35898,-1.35476 0.0427,0.0506 0.1198,0.0693 0.18383,0.0264 z"
             id="path1097753"
             sodipodi:nodetypes="cccccsccccsccccccccc" />
          <path
             style="fill:#c2b0ac;fill-opacity:1;stroke-width:0.0324227"
             d="m 207.85785,256.60721 -0.0155,0.14324 c -0.0102,-0.0401 -0.0215,-0.0798 -0.0344,-0.11876 z"
             id="path1097755" />
          <path
             style="fill:#e1bcb3;fill-opacity:1;stroke-width:0.0324227"
             d="m 207.4841,256.02554 c 0.0297,0.04 0.0583,0.0812 0.0859,0.12322 l -0.12193,-0.10561 z"
             id="path1097757" />
          <path
             style="fill:#e1bcb3;fill-opacity:1;stroke-width:0.0324227"
             d="m 206.94825,255.5975 c 0.038,0.0262 0.084,-0.17661 0.53107,0.42171 l -0.4217,-0.36534 -0.10567,0.42656 c -0.023,0.0926 0.0731,0.16966 0.15867,0.12775 l 0.14769,-0.0723 -0.0369,0.14914 c -0.0295,0.1187 0.0932,0.21763 0.2029,0.16386 l 0.14028,-0.0686 -0.0392,0.15868 c -0.0259,0.10419 0.0818,0.19094 0.178,0.14382 l 0.1045,-0.0511 c 0.0129,0.039 0.0242,0.0786 0.0344,0.11876 l -0.003,0.0296 c -0.005,0.0411 0.009,0.0774 0.0317,0.10451 0.0676,0.40391 -0.0136,0.86005 -0.35911,1.35433 l -0.16054,0.0792 0.11892,-0.29278 c 0.0444,-0.10941 -0.0589,-0.22093 -0.17129,-0.18486 l -0.25449,0.082 0.11957,-0.24108 c 0.054,-0.10896 -0.0436,-0.23125 -0.16164,-0.20273 l -0.28586,0.069 0.18424,-0.28056 c 0.0788,-0.12008 -0.0123,-0.27841 -0.15563,-0.2705 l -0.24943,0.0137 0.23146,-0.21137 c 0.10924,-0.0997 0.0506,-0.27498 -0.0849,-0.2989 -0.0114,-0.002 -0.0235,-0.003 -0.0361,-0.003 l -0.39504,0.009 0.18689,0.5093 -0.10744,0.006 0.34377,0.651 0.0509,-0.0776 0.31254,0.42108 0.005,-0.0105 0.29374,0.33926 -0.0184,0.009 0.088,0.0761 c -0.03,0.0365 -0.0612,0.0731 -0.0942,0.10992 -2.44494,2.11004 -0.82814,-2.65764 -0.32372,-2.94249 z"
             id="path1097759"
             sodipodi:nodetypes="ccccsccccccccccccccccccccccscccccccccccccc" />
          <path
             id="path1097761"
             style="display:inline;fill:#ffffff;stroke-width:0.0324228"
             d="m 207.05762,255.65387 0.42804,0.37089 -0.0376,0.0184 0.16459,0.14252 0.0108,-0.0441 0.42698,0.3697 0.30381,0.19906 -2.3e-4,1.7e-4 0.26994,0.17698 -0.007,-0.11779 0.66623,0.31353 -0.0215,0.018 0.26202,0.13199 -0.26619,0.27025 c -0.11125,0.11539 -0.24164,0.0171 -0.23342,-0.14311 l 0.0207,-0.0764 -0.1096,0.0924 c -0.10948,0.0923 -0.27808,0.021 -0.28712,-0.12212 l -0.014,-0.21645 -0.1836,0.12298 c -0.10103,0.0676 -0.23483,-0.0134 -0.22159,-0.13442 l 0.0271,-0.25039 -0.20133,0.13462 c -0.0983,0.0657 -0.22792,-0.0131 -0.21539,-0.13059 l 0.0188,-0.17286 -0.1544,0.0756 c -0.0962,0.0471 -0.20384,-0.0396 -0.178,-0.14382 l 0.0392,-0.15869 -0.14028,0.0686 c -0.10971,0.0538 -0.23237,-0.0452 -0.2029,-0.16386 l 0.0369,-0.14915 -0.14769,0.0723 c -0.0856,0.0419 -0.18159,-0.0351 -0.15868,-0.12776 z m -0.41554,0.84612 c 0.13552,0.0239 0.19412,0.19922 0.0849,0.2989 l -0.23146,0.21136 0.24942,-0.0137 c 0.14328,-0.008 0.23441,0.15043 0.15563,0.2705 l -0.18423,0.28057 0.28585,-0.069 c 0.11808,-0.0285 0.21562,0.0937 0.16164,0.20273 l -0.11957,0.24108 0.25449,-0.082 c 0.11243,-0.0361 0.21569,0.0754 0.17129,0.18486 l -0.11892,0.29277 0.27495,-0.13553 c 0.0964,-0.0474 0.20389,0.0392 0.1785,0.14329 l -0.0977,0.39811 -0.4288,-0.36998 0.0184,-0.009 -0.29375,-0.33925 -0.005,0.0105 -0.31254,-0.42108 -0.0509,0.0776 -0.34377,-0.651 0.10745,-0.006 -0.1869,-0.5093 0.39504,-0.009 c 0.0125,-1.4e-4 0.0246,7.4e-4 0.0361,0.003 z" />
          <path
             id="path1097763"
             style="display:inline;fill:#ffffff;stroke-width:0.0324228"
             d="m 208.03877,258.45772 c 0.085,0.0127 0.15678,0.0879 0.14958,0.18637 l -0.0246,0.33478 0.21614,-0.19935 c 0.048,-0.0443 0.12199,-0.0514 0.17182,-0.0261 -0.0258,0.23741 -0.0257,0.39701 -0.0239,0.45715 l -0.34422,-0.16416 c -0.1222,-0.0655 -0.26466,-0.14489 -0.41831,-0.23705 -0.0435,-0.0261 -0.0882,-0.0534 -0.13378,-0.0817 -0.0687,-0.0695 -0.0959,-0.11778 -0.0957,-0.15139 l 0.17119,0.14768 0.0437,-0.11483 c 0.0703,-0.001 0.14739,-0.11149 0.17011,-0.12574 0.038,-0.024 0.0794,-0.0314 0.118,-0.0257 z"
             sodipodi:nodetypes="sccccccscccccss" />
          <path
             style="fill:#e6e7e7;fill-opacity:1;stroke:none;stroke-width:0.104367px;stroke-linecap:butt;stroke-linejoin:miter;stroke-opacity:1"
             d="m 208.51988,259.20586 c -0.94274,-0.68664 -1.87911,-1.26164 -2.2103,-2.50785 l -0.28077,0.85356 -0.48901,1.4719 0.54298,0.25355 z"
             id="path1097765"
             sodipodi:nodetypes="cccccc" />
          <path
             style="fill:#e6e7e7;fill-opacity:1;stroke:none;stroke-width:0.104367px;stroke-linecap:butt;stroke-linejoin:miter;stroke-opacity:1"
             d="m 209.52264,257.23093 c -1.06063,-0.32416 -1.83638,-0.95564 -2.63184,-1.60889 l 0.46783,-0.27765 1.58579,1.11373 c 0.45254,0.24708 0.877,0.46318 0.57822,0.77281 z"
             id="path1097767"
             sodipodi:nodetypes="ccccc" />
          <path
             style="fill:#558a9c;fill-opacity:1;stroke:none;stroke-width:0.104367px;stroke-linecap:butt;stroke-linejoin:miter;stroke-opacity:1"
             d="m 206.91845,255.61713 c -0.18508,0.28482 -0.26952,0.48212 -0.624,1.12391 -0.0745,0.0671 -0.11534,-0.14937 -0.15938,-0.26272 l 0.54157,-1.1119 z"
             id="path1097769"
             sodipodi:nodetypes="ccccc" />
          <path
             style="color:#000000;display:inline;opacity:0.828327;fill:url(#radialGradient1097791);stroke-width:0.0742348;stroke-linecap:round;stroke-linejoin:round"
             d="m 198.44536,265.80145 c -0.0163,-0.0859 -0.0293,-0.109 -0.0929,-0.14252"
             id="path1097771" />
        </g>
        <g
           id="g4311924"
           inkscape:label="DumpsterBG+HL">
          <path
             style="display:inline;opacity:1;fill:#1a2941;fill-opacity:1;stroke:none;stroke-width:0.173339;stroke-linecap:butt;stroke-linejoin:miter;stroke-dasharray:none;stroke-opacity:1"
             d="m 233.5735,276.29013 -9.50892,8.45407 -4.82036,-3.17371 -12.11365,-13.62513 0.0209,-0.35557 6.57188,-5.84283 12.40137,13.94878"
             id="path2135340"
             sodipodi:nodetypes="cccccc"
             sodipodi:insensitive="true" />
          <path
             style="opacity:1;fill:#1a2941;fill-opacity:1;stroke:none;stroke-width:0.173339;stroke-linecap:butt;stroke-linejoin:miter;stroke-dasharray:none;stroke-opacity:1"
             d="m 213.68538,261.74591 c -0.38625,-0.43444 0.4627,-1.12461 0.81687,-0.72625 l 12.01392,13.51296 7.61503,0.55003 c 0.74322,0.0436 0.42672,1.28415 -0.38044,1.23675 l -7.80307,-0.62833 z"
             id="path2135342"
             sodipodi:nodetypes="ccccccc" />
        </g>
        <g
           id="g1433067"
           transform="matrix(0.7376255,0.19764616,-0.19764616,0.7376255,-190.23641,32.455091)"
           style="opacity:1"
           inkscape:label="Flame">
          <path
             id="path219163"
             style="fill:#fe5551;fill-opacity:1;stroke:none;stroke-width:0.420411;stroke-linecap:round;stroke-linejoin:round;stroke-dasharray:none;stroke-dashoffset:2.84519;stroke-opacity:1;paint-order:stroke markers fill"
             d="m 585.86524,149.00453 c 3.007,10.00462 13.555,15.67731 23.55962,12.6703 5.00647,-8.66382 6.47122,-6.65742 1.49898,-4.2604 -9.09457,2.73348 -18.78573,-2.76471 -21.64578,-12.28052 -1.70141,-5.66188 -0.63576,-11.76128 2.85067,-16.31618 -6.00321,4.82604 -8.48052,12.81022 -6.26349,20.1868 z"
             sodipodi:nodetypes="cccccc" />
          <path
             id="path219165"
             style="fill:#fe8b5d;fill-opacity:1;stroke:none;stroke-width:0.385489;stroke-linecap:round;stroke-linejoin:round;stroke-dasharray:none;stroke-dashoffset:2.84519;stroke-opacity:1;paint-order:stroke markers fill"
             d="m 588.73513,147.88306 c 0.13388,0.41125 0.28308,0.81734 0.4473,1.21744 3.63762,8.86142 13.7701,13.09612 22.6315,9.45847 5.20206,-2.13924 6.15853,-3.64462 7.42045,-9.12598 -11.87933,16.68948 -36.54472,-13.24978 -18.03818,-23.78799 -0.87177,0.20823 -1.7261,0.48373 -2.55529,0.82401 -8.39626,3.44669 -12.71541,12.7837 -9.90578,21.41405 z"
             sodipodi:nodetypes="scccccs" />
          <path
             id="path219179"
             style="fill:#ffbb52;fill-opacity:1;stroke:none;stroke-width:0.2863;stroke-linecap:round;stroke-linejoin:round;stroke-dasharray:none;stroke-dashoffset:2.84519;stroke-opacity:1;paint-order:stroke markers fill"
             d="m 600.77233,135.24239 c -3.00396,3.27883 -4.10413,7.87499 -2.91067,12.15871 1.90989,6.85305 9.01375,10.8601 15.86681,8.95019 3.8803,-1.08463 3.95673,-2.48489 5.43831,-6.23163 -4.42949,3.37808 -9.89494,2.45564 -13.87584,-0.55761 0.25552,-0.42663 0.51011,-0.86624 0.77407,-1.13497 -1.39329,-3.17817 -3.88961,-5.39923 -5.63133,-9.61417 -0.0306,2.51818 0.83172,4.9603 1.67982,7.4405 -2.18863,-3.16523 -3.02578,-7.17556 -1.34117,-11.01102 z" />
          <path
             style="fill:#fe8b5d;fill-opacity:1;stroke:none;stroke-width:0.385489;stroke-linecap:round;stroke-linejoin:round;stroke-dasharray:none;stroke-dashoffset:2.84519;stroke-opacity:1;paint-order:stroke markers fill"
             d="m 601.30505,130.8872 c 11.88596,4.9336 7.82349,17.88406 -0.3097,24.03203 0.0799,0.14115 0.1593,0.27332 0.23832,0.39304 1.45077,3.20328 16.86165,7.31354 14.54424,-4.00555 -0.27542,-1.34526 -0.0879,-2.57437 -0.48921,-4.43391 -2.26432,-7.74687 -5.33129,-13.28935 -9.87458,-15.01303 -0.47934,-0.1769 -0.96984,-0.33533 -1.47167,-0.47169 -0.86496,-0.23494 -1.74654,-0.40226 -2.6374,-0.50089 z"
             id="path221034"
             sodipodi:nodetypes="cccsccsc" />
          <path
             style="fill:#ffbb52;fill-opacity:1;stroke:none;stroke-width:0.2863;stroke-linecap:round;stroke-linejoin:round;stroke-dasharray:none;stroke-dashoffset:2.84519;stroke-opacity:1;paint-order:stroke markers fill"
             d="m 603.37311,139.68303 c 2.68868,4.50523 0.90489,9.41638 -2.77931,12.79137 2.78141,4.71406 6.48723,3.33836 7.1741,-1.08696 0.65357,-4.39857 -1.00777,-8.82299 -4.39479,-11.70441 z"
             id="path221036"
             sodipodi:nodetypes="cccc" />
        </g>
        <g
           id="g2215773"
           inkscape:label="Dumpster02">
          <path
             style="display:inline;opacity:0.5;fill:#4fbfc1;fill-opacity:1;stroke:#0c121c;stroke-width:0.173339;stroke-linecap:butt;stroke-linejoin:miter;stroke-dasharray:none;stroke-opacity:1"
             d="m 233.5735,276.29013 -9.50892,8.45407 -4.82036,-3.17371 -12.11365,-13.62513 0.0209,-0.35557 6.57188,-5.84283 12.40137,13.94878"
             id="path140976"
             sodipodi:nodetypes="cccccc"
             inkscape:label="WagenBG" />
          <path
             style="display:inline;fill:none;stroke:#0c121c;stroke-width:0.173339;stroke-linecap:round;stroke-linejoin:round;stroke-dasharray:none;stroke-opacity:1"
             d="m 209.45074,267.45281 10.63193,11.95852"
             id="path156807"
             inkscape:label="Wagen0004" />
          <path
             style="opacity:1;fill:#1a2941;fill-opacity:1;stroke:#0c121c;stroke-width:0.173339;stroke-linecap:round;stroke-linejoin:round;stroke-dasharray:none;stroke-opacity:1"
             d="m 234.36723,275.09207 -5.80161,-6.52551 -7.80837,-0.45854 5.80764,6.53229 z"
             id="path2137762"
             inkscape:label="Wagen0005" />
          <path
             style="opacity:0.5;fill:#67658d;fill-opacity:1;stroke:#0c121c;stroke-width:0.173339;stroke-linecap:round;stroke-linejoin:round;stroke-dasharray:none;stroke-opacity:1"
             d="m 234.36723,275.09207 -5.80161,-6.52551 -7.80837,-0.45854 5.80764,6.53229 z"
             id="path144465"
             inkscape:label="Wagen0006" />
          <path
             id="path147961"
             style="color:#000000;fill:#0c121c;stroke-linecap:round;stroke-linejoin:round;-inkscape-stroke:none"
             d="m 213.39576,263.84488 a 0.0866695,0.0866695 0 0 0 -0.0403,0.0202 0.0866695,0.0866695 0 0 0 -0.008,0.12351 l 10.63243,11.95689 a 0.0866695,0.0866695 0 0 0 0.12299,0.008 0.0866695,0.0866695 0 0 0 0.006,-0.12299 L 213.47844,263.8733 a 0.0866695,0.0866695 0 0 0 -0.0827,-0.0284 z m -0.77101,0.70383 a 0.0866695,0.0866695 0 0 0 -0.062,0.0217 0.0866695,0.0866695 0 0 0 -0.006,0.12093 l 10.63088,11.95896 a 0.0866695,0.0866695 0 0 0 0.12299,0.008 0.0866695,0.0866695 0 0 0 0.008,-0.12299 L 212.6862,264.57635 a 0.0866695,0.0866695 0 0 0 -0.061,-0.0274 z m -0.81339,0.70538 a 0.0866695,0.0866695 0 0 0 -0.0398,0.0191 0.0866695,0.0866695 0 0 0 -0.008,0.12351 l 10.63088,11.95896 a 0.0866695,0.0866695 0 0 0 0.12299,0.008 0.0866695,0.0866695 0 0 0 0.008,-0.12299 l -10.63295,-11.95896 a 0.0866695,0.0866695 0 0 0 -0.0811,-0.0274 z m -0.79272,0.70487 a 0.0866695,0.0866695 0 0 0 -0.0403,0.0196 0.0866695,0.0866695 0 0 0 -0.008,0.12299 l 10.63294,11.95896 a 0.0866695,0.0866695 0 0 0 0.12092,0.006 0.0866695,0.0866695 0 0 0 0.008,-0.12144 l -10.63242,-11.95896 a 0.0866695,0.0866695 0 0 0 -0.0811,-0.0274 z m -0.79271,0.70435 a 0.0866695,0.0866695 0 0 0 -0.0403,0.0202 0.0866695,0.0866695 0 0 0 -0.008,0.12299 l 10.63294,11.95741 a 0.0866695,0.0866695 0 0 0 0.12299,0.008 0.0866695,0.0866695 0 0 0 0.006,-0.12299 l -10.63088,-11.95689 a 0.0866695,0.0866695 0 0 0 -0.0827,-0.0284 z m 12.17238,2.17661 a 0.0866695,0.0866695 0 0 0 -0.0915,0.0801 0.0866695,0.0866695 0 0 0 0.0816,0.0915 l 6.14071,0.36173 a 0.0866695,0.0866695 0 0 0 0.092,-0.0822 0.0866695,0.0866695 0 0 0 -0.0822,-0.092 z m 0.70538,0.79117 a 0.0866695,0.0866695 0 0 0 -0.092,0.0817 0.0866695,0.0866695 0 0 0 0.0801,0.092 l 6.14071,0.36122 a 0.0866695,0.0866695 0 0 0 0.0915,-0.0822 0.0866695,0.0866695 0 0 0 -0.0801,-0.0915 z m 0.7028,0.79271 a 0.0866695,0.0866695 0 0 0 -0.0915,0.0822 0.0866695,0.0866695 0 0 0 0.0816,0.0915 l 6.14071,0.35966 a 0.0866695,0.0866695 0 0 0 0.092,-0.0801 0.0866695,0.0866695 0 0 0 -0.0822,-0.092 z m 0.70539,0.79324 a 0.0866695,0.0866695 0 0 0 -0.092,0.0817 0.0866695,0.0866695 0 0 0 0.0822,0.092 l 6.14071,0.35915 a 0.0866695,0.0866695 0 0 0 0.0915,-0.0817 0.0866695,0.0866695 0 0 0 -0.0816,-0.0899 z m 0.70486,0.79271 a 0.0866695,0.0866695 0 0 0 -0.092,0.0801 0.0866695,0.0866695 0 0 0 0.0822,0.092 l 6.14071,0.36121 a 0.0866695,0.0866695 0 0 0 0.092,-0.0822 0.0866695,0.0866695 0 0 0 -0.0822,-0.0915 z m 0.70332,0.79117 a 0.0866695,0.0866695 0 0 0 -0.0899,0.0816 0.0866695,0.0866695 0 0 0 0.0801,0.092 l 6.14071,0.36122 a 0.0866695,0.0866695 0 0 0 0.0915,-0.0817 0.0866695,0.0866695 0 0 0 -0.0801,-0.092 z m 0.70487,0.79272 a 0.0866695,0.0866695 0 0 0 -0.092,0.0822 0.0866695,0.0866695 0 0 0 0.0822,0.092 l 6.14071,0.35915 a 0.0866695,0.0866695 0 0 0 0.092,-0.0801 0.0866695,0.0866695 0 0 0 -0.0822,-0.092 z m 2.72076,2.96881 a 0.0866695,0.0866695 0 0 0 -0.0625,0.0217 l -6.79855,6.04459 a 0.0866695,0.0866695 0 0 0 -0.008,0.12299 0.0866695,0.0866695 0 0 0 0.12299,0.006 l 6.79907,-6.0451 a 0.0866695,0.0866695 0 0 0 0.008,-0.12093 0.0866695,0.0866695 0 0 0 -0.0605,-0.0294 z m -1.74201,0.12919 a 0.0866695,0.0866695 0 0 0 -0.0625,0.0212 l -5.77381,5.13302 a 0.0866695,0.0866695 0 0 0 -0.006,0.12299 0.0866695,0.0866695 0 0 0 0.12092,0.008 l 5.77329,-5.13251 a 0.0866695,0.0866695 0 0 0 0.008,-0.12299 0.0866695,0.0866695 0 0 0 -0.0605,-0.0294 z"
             inkscape:label="Wagen0007" />
          <path
             style="display:inline;opacity:0.5;fill:#4fbfc1;fill-opacity:1;stroke:#0c121c;stroke-width:0.173339;stroke-linecap:butt;stroke-linejoin:miter;stroke-dasharray:none;stroke-opacity:1"
             d="m 213.68538,261.74591 c -0.38625,-0.43444 0.4627,-1.12461 0.81687,-0.72625 l 12.01392,13.51296 7.61503,0.55003 c 0.74322,0.0436 0.42672,1.28415 -0.38044,1.23675 l -7.80307,-0.62833 z"
             id="path136903"
             sodipodi:nodetypes="ccccccc"
             inkscape:label="Wagen0022" />
          <path
             style="display:inline;opacity:0.255168;fill:#999785;fill-opacity:0.403305;stroke:none;stroke-width:0.264583px;stroke-linecap:butt;stroke-linejoin:miter;stroke-opacity:1"
             d="m 213.55806,259.88875 14.89945,16.6354 c -10.66863,-1.3215 -13.28313,-6.74095 -14.89945,-16.6354 z"
             id="path223833"
             sodipodi:nodetypes="ccc"
             inkscape:label="WagenLight" />
          <path
             style="opacity:0.454103;fill:#604648;fill-opacity:0.584623;stroke:none;stroke-width:0.264583px;stroke-linecap:butt;stroke-linejoin:miter;stroke-opacity:1"
             d="m 221.00779,268.20645 5.54532,6.2308 -0.34036,0.56379 c -2.83319,0.1777 -4.18306,0.66743 -6.31362,2.02497 0,0 2.57297,0.91487 2.78539,0.94268 0.21244,0.0278 4.60207,1.59217 4.82221,1.59217 0.22013,0 1.23361,-0.53988 1.23361,-0.53988 0,0 2.42061,-1.85536 2.60091,-1.82771 0.1803,0.0276 3.28765,-1.65314 3.28765,-1.65314 l 0.27217,-2.40824 -2.63183,-2.53529 -2.38025,-0.41648 -1.3725,-1.52553 z"
             id="path217161"
             sodipodi:nodetypes="ccccsscscccccc"
             inkscape:label="WagenLight" />
        </g>
      </g>
    </g>
  </g>
</svg>
