<?xml version="1.0" encoding="UTF-8" standalone="no"?>
<!-- Created with Inkscape (http://www.inkscape.org/) -->

<svg
   width="340"
   height="92.374001"
   viewBox="0 0 89.95833 24.440621"
   version="1.1"
   id="svg171928"
   xmlns:xlink="http://www.w3.org/1999/xlink"
   xmlns="http://www.w3.org/2000/svg"
   xmlns:svg="http://www.w3.org/2000/svg">
  <defs
     id="defs171925">
    <filter
       style="color-interpolation-filters:sRGB"
       id="filter1733772"
       x="-0.012270187"
       y="-0.10502762"
       width="1.0245404"
       height="1.2100552">
      <feGaussianBlur
         stdDeviation="0.4628334"
         id="feGaussianBlur1733774" />
    </filter>
    <linearGradient
       xlink:href="#linearGradient124493"
       id="linearGradient1521683"
       gradientUnits="userSpaceOnUse"
       gradientTransform="matrix(0.99660008,0,0,0.99660008,7.0751742,39.262953)"
       x1="221.97623"
       y1="434.97144"
       x2="234.3083"
       y2="379.4502" />
    <linearGradient
       id="linearGradient124493">
      <stop
         style="stop-color:#e7ac00;stop-opacity:1;"
         offset="0"
         id="stop124489" />
      <stop
         style="stop-color:#e74900;stop-opacity:1;"
         offset="1"
         id="stop124491" />
    </linearGradient>
  </defs>
  <g
     id="layer1">
    <g
       id="g30062"
       transform="matrix(0.79842407,-0.02162067,0.02161972,0.79845918,-145.10856,-350.70658)"
       style="display:inline;stroke-width:1.00032">
      <path
         style="display:none;mix-blend-mode:normal;fill:#121c2d;fill-opacity:1;stroke:none;stroke-width:0.209865px;stroke-linecap:butt;stroke-linejoin:miter;stroke-opacity:1;filter:url(#filter1733772)"
         d="m 10.797708,275.84754 c 1.786713,-1.47219 5.236953,-1.13946 6.228045,-0.24966 l 2.976317,-0.30457 c 0.624075,-1.13468 3.31867,-1.49405 4.958718,-0.69581 2.258007,-1.75781 4.588943,-1.14848 6.140413,0.32934 l 1.722742,0.37683 c 1.559734,-0.59668 6.945056,-1.14806 10.142206,0.13197 l 3.223395,0.41069 c 1.82632,-0.84114 5.894473,-1.46429 8.479035,0.0912 2.019943,-1.07408 5.512354,-1.88283 8.62111,-0.12093 l 0.833932,-3.15839 c 1.754654,-0.76958 5.026871,-1.27272 8.493048,-0.23753 2.216819,-0.19483 4.773631,-1.23435 8.361181,0.9415 0.119512,-1.09405 6.359369,1.75524 10.031705,1.27501 0.872751,-0.11413 6.800597,-3.47014 9.387055,-1.23613 l 0.92948,8.30822 -90.445369,0.70239 z"
         id="path1733770"
         transform="matrix(1.2611266,0,0,1.2611266,155.61453,123.53707)" />
      <text
         xml:space="preserve"
         style="font-style:normal;font-weight:normal;font-size:34.4703px;line-height:21.5439px;font-family:sans-serif;letter-spacing:0px;word-spacing:0px;display:inline;fill:#e6e7e7;fill-opacity:1;stroke:#121c2d;stroke-width:2.5042;stroke-dasharray:none;stroke-opacity:1;paint-order:stroke markers fill"
         x="169.98329"
         y="473.11145"
         id="text100263"><tspan
           id="tspan100261"
           style="font-style:normal;font-variant:normal;font-weight:normal;font-stretch:normal;font-family:'Jolly Lodger';-inkscape-font-specification:'Jolly Lodger';fill:#e6e7e7;fill-opacity:1;stroke:#121c2d;stroke-width:2.5042;stroke-dasharray:none;stroke-opacity:1;paint-order:stroke markers fill"
           x="169.98329"
           y="473.11145">Fire<tspan
   style="letter-spacing:-3.96875px;stroke-width:2.5042"
   id="tspan195841"> </tspan>Shonks</tspan></text>
      <g
         aria-label="Fire Shonks"
         id="text124479"
         style="font-size:34.4703px;line-height:21.5439px;letter-spacing:0px;word-spacing:0px;display:inline;fill:url(#linearGradient1521683);stroke-width:2.5042;paint-order:stroke markers fill">
        <path
           d="m 174.66237,462.60878 q 0,0.43761 -0.0337,1.38016 0,0.94255 -0.0337,2.12073 -0.0337,1.17818 -0.10099,2.45736 -0.0337,1.2455 -0.13465,2.28904 -0.10098,1.00987 -0.23563,1.68312 -0.10099,0.67325 -0.2693,0.67325 -0.50494,0 -0.97621,-0.70691 -0.43761,-0.74058 -0.90889,-1.58214 -0.10098,-0.20197 -0.23563,-1.17818 -0.10099,-1.00987 -0.23564,-2.52468 -0.10099,-1.51481 -0.20197,-3.36624 -0.10099,-1.85143 -0.20198,-3.77019 -0.10099,-1.91876 -0.16831,-3.77019 -0.0337,-1.85143 -0.0673,-3.33258 -0.0337,-1.48114 0,-2.45735 0.0337,-1.00987 0.13465,-1.17819 0.13465,-0.23563 0.94255,-0.33662 0.8079,-0.13465 1.95242,-0.13465 1.17818,0 2.52468,0.0673 1.3465,0.0673 2.49102,0.20197 1.17818,0.10099 1.95242,0.23564 0.80789,0.13465 0.90888,0.23563 0.13465,0.13465 0.0337,0.74058 -0.0673,0.57226 -0.26929,1.27917 -0.16832,0.67325 -0.43762,1.27917 -0.23563,0.60592 -0.40394,0.77423 -0.16832,0.16832 -1.58214,-0.0337 -1.38016,-0.20197 -4.44343,-0.47127 v 5.62162 q 2.35636,0.20197 3.6692,0.37029 1.34649,0.16831 1.41382,0.23563 0.13465,0.13465 0.10099,0.5386 -0.0337,0.40395 -0.16832,0.87522 -0.13465,0.43761 -0.33662,0.84156 -0.20198,0.37029 -0.40395,0.50494 -0.10099,0.0673 -1.21185,0.20197 -1.07719,0.13465 -3.06327,0.23564 z"
           style="font-family:'Jolly Lodger';-inkscape-font-specification:'Jolly Lodger'"
           id="path172620" />
        <path
           d="m 185.1987,458.63662 q 0.0673,0.16831 0.0673,1.07719 0.0337,0.87523 0,2.1544 0,1.24551 -0.0673,2.69299 -0.0673,1.41382 -0.16832,2.69299 -0.0673,1.24551 -0.16831,2.1544 -0.10098,0.87522 -0.20197,1.04353 -0.30296,0.47127 -0.90889,0.60592 -0.60592,0.10099 -0.87522,0.0337 -0.13465,0 -0.30296,-0.77424 -0.13465,-0.77423 -0.2693,-1.95242 -0.13465,-1.17818 -0.23564,-2.55834 -0.10098,-1.38016 -0.16831,-2.62567 -0.0673,-1.27917 -0.0673,-2.22172 0,-0.94254 0.0673,-1.21184 0.10099,-0.43761 0.57226,-0.77424 0.50494,-0.33662 1.04354,-0.50493 0.57226,-0.16832 1.04353,-0.13465 0.50494,0 0.63959,0.30296 z m 0.16831,-5.45331 q 0.13465,0.2693 0.10099,0.74057 0,0.47128 -0.10099,0.97621 -0.10099,0.50494 -0.2693,0.97621 -0.16831,0.47127 -0.33662,0.74057 -0.33663,0.47128 -1.00988,0.60593 -0.63958,0.10098 -0.94254,0.0337 -0.23564,-0.0337 -0.47128,-0.30296 -0.23563,-0.30296 -0.40395,-0.70691 -0.16831,-0.43761 -0.23563,-0.94255 -0.0673,-0.50494 0.0337,-0.94255 0.10099,-0.43761 0.63959,-0.77423 0.53859,-0.37029 1.14452,-0.5386 0.60592,-0.20198 1.14452,-0.16831 0.5386,0 0.70691,0.30296 z"
           style="font-family:'Jolly Lodger';-inkscape-font-specification:'Jolly Lodger'"
           id="path172622" />
        <path
           d="m 195.1291,454.76544 q 0.2693,0.16831 0.50494,0.67325 0.2693,0.47127 0.47127,1.11086 0.23564,0.60592 0.37029,1.31283 0.16831,0.70691 0.2693,1.31284 0.13465,0.60592 0.16831,1.04353 0.0337,0.40395 0,0.50494 -0.0673,0.13465 -0.40395,0.2693 -0.30296,0.13465 -0.90888,0.30296 -0.60592,0.16831 -1.68312,0.37028 -0.0673,-1.85143 -0.2693,-2.79398 -0.20198,-0.97621 -0.43761,-1.38015 -0.2693,-0.47128 -0.57226,-0.47128 -0.30296,0.13465 -0.5386,0.33663 -0.23564,0.16831 -0.40395,0.37028 -0.20197,0.23564 -0.37029,0.50494 -0.0673,0.10099 -0.13465,0.47127 -0.0673,0.37029 -0.13465,1.11086 0,0.23564 -0.0337,0.97621 0,0.74057 -0.0337,1.71678 0,0.97621 -0.0337,2.05341 0,1.0772 -0.0337,2.01974 0,0.90889 -0.0337,1.54847 0,0.63959 -0.0337,0.74058 -0.0673,0.16831 -0.33662,0.47127 -0.2693,0.30296 -0.60593,0.57226 -0.33662,0.23564 -0.63958,0.40395 -0.30296,0.13465 -0.40395,-0.0337 -0.10099,-0.10099 -0.20198,-0.87522 -0.10098,-0.77424 -0.23563,-1.8851 -0.10099,-1.14452 -0.23564,-2.49102 -0.13465,-1.34649 -0.23564,-2.592 -0.10098,-1.24551 -0.16831,-2.22172 -0.0673,-1.00987 -0.10099,-1.44748 -0.0337,-0.63959 -0.0673,-1.41382 -0.0337,-0.77424 -0.0673,-1.44749 0,-0.70691 0,-1.21184 0.0337,-0.5386 0.13465,-0.63959 0.0673,-0.10099 0.43762,-0.0337 0.40394,0.0337 0.84156,0.20197 0.47127,0.13465 0.87522,0.37029 0.40395,0.23564 0.5386,0.43761 0.10098,0.16831 0.20197,0.50494 0.63959,-0.33663 1.21185,-0.60593 0.60592,-0.30296 1.14452,-0.43761 0.57226,-0.13465 1.11086,-0.0673 0.5386,0.0337 1.07719,0.33662 z"
           style="font-family:'Jolly Lodger';-inkscape-font-specification:'Jolly Lodger'"
           id="path172624" />
        <path
           d="m 200.61608,463.38302 q 0.53859,-0.20198 1.21184,-0.43761 0.70691,-0.2693 1.3465,-0.47128 0.63958,-0.23564 1.14452,-0.40395 0.50494,-0.16831 0.74057,-0.2693 -0.0337,-0.37028 -0.10098,-0.84156 -0.0337,-0.50493 -0.10099,-0.94254 -0.0673,-0.47128 -0.16831,-0.8079 -0.10099,-0.33663 -0.20198,-0.40395 -0.2693,-0.10099 -0.90888,-0.16831 -0.60593,-0.10099 -1.27917,0.0337 -0.63959,0.13465 -1.17819,0.50494 -0.5386,0.37028 -0.60592,1.17818 -0.0673,0.5386 -0.0337,1.3465 0.0337,0.80789 0.13465,1.68312 z m 7.30474,0.53859 q -0.0337,0.0673 -0.8079,0.2693 -0.77424,0.20198 -1.85143,0.43762 -1.0772,0.20197 -2.28905,0.43761 -1.21184,0.20197 -2.08706,0.33662 0.16831,1.3465 0.40394,2.42369 0.23564,1.04354 0.40395,1.31284 0.16832,0.23563 0.43761,0.43761 0.23564,0.16831 0.57227,0.33662 0.37028,0.13465 0.87522,0.20198 0.37028,0.10098 0.70691,-0.2693 0.2693,-0.33663 0.47127,-1.17819 0.23564,-0.84156 0.23564,-2.65933 1.04353,-0.16831 1.61579,-0.20197 0.60593,-0.0337 0.87523,0 0.33662,0.0337 0.40394,0.10099 0.0337,0.10098 0,0.50493 -0.0337,0.40395 -0.16831,1.00987 -0.10098,0.57227 -0.2693,1.27918 -0.13465,0.67324 -0.33662,1.31283 -0.20197,0.60592 -0.43761,1.11086 -0.23564,0.47127 -0.50494,0.67325 -0.8079,0.60592 -2.01974,0.60592 -1.21185,-0.0337 -2.39003,-0.33662 -1.17819,-0.33663 -2.12073,-0.77424 -0.94255,-0.47127 -1.17819,-0.77423 -0.16831,-0.20198 -0.30296,-1.00988 -0.13465,-0.84156 -0.23564,-2.01974 -0.0673,-1.17818 -0.10098,-2.59201 -0.0337,-1.41382 0.0337,-2.76031 0.10099,-1.3465 0.2693,-2.49102 0.20197,-1.14452 0.5386,-1.85143 0.50493,-1.00987 1.64945,-1.64946 1.14453,-0.63959 2.4237,-0.87522 1.27917,-0.23564 2.42369,-0.0673 1.17818,0.16831 1.75045,0.74058 0.33662,0.33662 0.60592,1.34649 0.2693,0.97621 0.33662,2.39003 0,0.13465 0.0337,0.77424 0.0337,0.63958 0.0337,1.38016 0.0337,0.70691 0.0337,1.34649 0,0.63959 -0.0337,0.74057 z"
           style="font-family:'Jolly Lodger';-inkscape-font-specification:'Jolly Lodger'"
           id="path172626" />
        <path
           d="m 224.38514,452.7457 q 0.0337,0.50493 -0.13465,1.51481 -0.13465,1.00987 -0.47127,2.01974 -0.33662,1.00987 -0.87522,1.78411 -0.50494,0.74057 -1.17819,0.74057 -0.33662,0 -0.57226,-0.40395 -0.23563,-0.40395 -0.40395,-1.04353 -0.16831,-0.63959 -0.2693,-1.41382 -0.10098,-0.8079 -0.20197,-1.54847 -0.0673,-0.74058 -0.13465,-1.3465 -0.0337,-0.63959 -0.0673,-0.94255 -0.13465,-0.20197 -0.50494,-0.40395 -0.33662,-0.23563 -0.60592,-0.23563 -0.30296,0 -0.74058,0.57226 -0.40394,0.57226 -0.77423,1.34649 -0.37029,0.77424 -0.60592,1.54847 -0.23564,0.74058 -0.20198,1.14453 0,0.26929 0.50494,0.94254 0.5386,0.67325 1.31283,1.58214 0.77424,0.90888 1.68312,1.98608 0.90889,1.04353 1.68312,2.08707 0.77424,1.04353 1.31283,1.98608 0.5386,0.94254 0.57227,1.61579 0.0673,0.8079 -0.37029,2.08707 -0.40395,1.24551 -1.04354,2.42369 -0.63958,1.17819 -1.38015,2.05341 -0.70691,0.84156 -1.27918,0.87522 -0.37028,0.0337 -0.9762,-0.33662 -0.60593,-0.33662 -1.31284,-0.90889 -0.70691,-0.57226 -1.44748,-1.2455 -0.70691,-0.70691 -1.3465,-1.38016 -0.60592,-0.67325 -1.04353,-1.21185 -0.40395,-0.57226 -0.47128,-0.84156 -0.13465,-0.40395 -0.16831,-1.0772 0,-0.70691 0.0673,-1.34649 0.10098,-0.67325 0.23563,-1.14452 0.16832,-0.50494 0.40395,-0.50494 0.16831,0 0.5386,0.43761 0.40395,0.43761 0.90889,1.11086 0.50493,0.67325 1.07719,1.48115 0.60593,0.77423 1.14452,1.44748 0.5386,0.67325 0.97621,1.14452 0.43762,0.43761 0.70691,0.40395 0.20198,0 0.43762,-0.30296 0.23563,-0.33663 0.43761,-0.77424 0.20197,-0.47127 0.33662,-0.94254 0.13465,-0.47128 0.13465,-0.74058 -0.0337,-0.40395 -0.67325,-1.14452 -0.60592,-0.77423 -1.54847,-1.71678 -0.90888,-0.97621 -1.98608,-2.01974 -1.04353,-1.04354 -1.98608,-1.98609 -0.90889,-0.97621 -1.54847,-1.75044 -0.60592,-0.77424 -0.63959,-1.17819 -0.0337,-0.40394 0.23564,-1.2455 0.2693,-0.87523 0.70691,-1.95242 0.47127,-1.0772 1.04353,-2.18806 0.57227,-1.11086 1.17819,-2.05341 0.60592,-0.94254 1.17818,-1.5148 0.57226,-0.60593 1.00987,-0.60593 0.57227,0 1.31284,0.2693 0.74057,0.23564 1.51481,0.67325 0.80789,0.40395 1.54847,0.94255 0.77423,0.5386 1.38016,1.11086 0.60592,0.53859 0.9762,1.11086 0.37029,0.53859 0.40395,1.00987 z"
           style="font-family:'Jolly Lodger';-inkscape-font-specification:'Jolly Lodger'"
           id="path172628" />
        <path
           d="m 233.70963,457.79506 q 0.33662,0.20197 0.63959,0.74057 0.33662,0.5386 0.60592,1.24551 0.2693,0.67325 0.43761,1.48114 0.16831,0.77424 0.16831,1.48115 0,0.47127 -0.13465,1.41382 -0.13465,0.90889 -0.33662,2.01975 -0.20198,1.07719 -0.43761,2.22171 -0.23564,1.14453 -0.43761,2.08707 -0.20198,0.94255 -0.37029,1.58214 -0.16831,0.63958 -0.20197,0.70691 -0.0673,0.10098 -0.40395,0.13465 -0.30296,0.0337 -0.67325,-0.0337 -0.33662,-0.0673 -0.63959,-0.20197 -0.30296,-0.13465 -0.37028,-0.33663 -0.0337,-0.13464 -0.0337,-0.84156 0.0337,-0.74057 0.0673,-1.75044 0.0673,-1.00987 0.13465,-2.18806 0.10099,-1.17818 0.16831,-2.18805 0.0673,-1.04354 0.10099,-1.78411 0.0673,-0.74057 0.0673,-0.87522 0.0337,-0.5386 -0.10098,-1.04354 -0.10099,-0.53859 -0.30297,-0.90888 -0.16831,-0.37029 -0.40394,-0.57226 -0.20198,-0.20198 -0.40395,-0.13465 -0.30296,0.0673 -0.60593,0.16831 -0.2693,0.10099 -0.47127,0.16831 -0.2693,0.10099 -0.47127,0.20198 -0.0337,2.49101 -0.10099,4.88105 -0.0673,2.39003 -0.16831,4.30878 -0.10099,1.8851 -0.23564,3.06328 -0.10099,1.14452 -0.23564,1.17819 -0.2693,0.0337 -0.60592,-0.23564 -0.30296,-0.2693 -0.60592,-0.67325 -0.30296,-0.37029 -0.5386,-0.8079 -0.20198,-0.43761 -0.2693,-0.74057 -0.2693,-3.29892 -0.43761,-5.89092 -0.16831,-2.62567 -0.2693,-4.64541 -0.10099,-2.01975 -0.16831,-3.50089 -0.0337,-1.48115 -0.0337,-2.52468 -0.0337,-2.45736 0.0673,-3.3999 0.13465,-0.70691 0.60592,-1.3465 0.47128,-0.67325 1.00987,-1.17818 0.57227,-0.50494 1.04354,-0.74058 0.50494,-0.2693 0.67325,-0.13465 0.10098,0.10099 0.16831,0.94255 0.10099,0.8079 0.13465,2.18806 0.0337,1.34649 0.0337,3.1306 0,1.75044 -0.0337,3.70286 1.34649,-0.53859 2.49102,-0.67324 1.17818,-0.13465 1.88509,0.30296 z"
           style="font-family:'Jolly Lodger';-inkscape-font-specification:'Jolly Lodger'"
           id="path172630" />
        <path
           d="m 244.61625,454.69812 q 0.23564,0.20197 0.43761,0.77423 0.23564,0.57226 0.40395,1.38016 0.16831,0.8079 0.30296,1.75045 0.13465,0.94254 0.23564,1.85143 0.10099,0.90888 0.13465,1.71678 0.0673,0.77424 0.10099,1.27917 0.0337,0.60592 0.0337,1.27917 0.0337,0.63959 0,1.24551 0,0.57226 -0.0673,1.04354 -0.0337,0.47127 -0.13464,0.70691 -0.20198,0.50493 -0.70692,0.70691 -0.47127,0.16831 -1.07719,0.23563 -0.30296,0.0337 -1.04354,0.0337 -0.70691,-0.0337 -1.54847,-0.0673 -0.80789,-0.0673 -1.54847,-0.13465 -0.74057,-0.0673 -1.11086,-0.13465 -0.74057,-0.16831 -1.07719,-0.43761 -0.30297,-0.2693 -0.60593,-0.77423 -0.10098,-0.20198 -0.16831,-1.00988 -0.0673,-0.84156 -0.10099,-1.98608 0,-1.17818 0.0337,-2.52468 0.0337,-1.34649 0.10098,-2.55834 0.10099,-1.21185 0.20198,-2.12073 0.13465,-0.90889 0.33662,-1.21185 0.33663,-0.47127 1.14452,-0.87522 0.84156,-0.40395 1.51481,-0.63959 0.33663,-0.10098 0.87522,-0.13465 0.57226,-0.0673 1.17819,0 0.63958,0.0337 1.21184,0.20198 0.57227,0.13465 0.94255,0.40395 z m -1.88509,10.43534 q 0.0673,-0.13465 0.13465,-0.8079 0.10098,-0.70691 0.13465,-1.68312 0.0673,-0.97621 0.0673,-2.08707 0.0337,-1.11085 0.0337,-2.0534 0,-0.94255 -0.0673,-1.58213 -0.0673,-0.67325 -0.16831,-0.77424 -0.16832,-0.13465 -0.50494,-0.10099 -0.30296,0 -0.63958,0.10099 -0.33663,0.0673 -0.60593,0.20197 -0.2693,0.10099 -0.37028,0.20198 -0.43762,0.37029 -0.47128,1.21185 0,0.23563 -0.0673,1.34649 -0.0337,1.0772 -0.0337,2.35637 0,1.24551 0.0337,2.32271 0.0673,1.07719 0.23563,1.31283 0.16832,0.23564 0.47128,0.37029 0.33662,0.10098 0.67325,0.10098 0.37028,0 0.67324,-0.10098 0.33663,-0.13465 0.47128,-0.33663 z"
           style="font-family:'Jolly Lodger';-inkscape-font-specification:'Jolly Lodger'"
           id="path172632" />
        <path
           d="m 257.6436,459.0069 q 0,0.5386 -0.13465,1.54847 -0.10099,1.00988 -0.30296,2.22172 -0.20197,1.17819 -0.43761,2.45736 -0.20198,1.24551 -0.43761,2.28904 -0.20198,1.04354 -0.37029,1.75045 -0.13465,0.70691 -0.16831,0.77423 -0.0673,0.10099 -0.37029,0.13465 -0.2693,0 -0.63958,-0.0673 -0.33663,-0.0673 -0.63959,-0.20198 -0.2693,-0.13465 -0.33662,-0.33662 -0.0337,-0.13465 -0.0337,-0.94255 0.0337,-0.8079 0.0673,-1.91876 0.0673,-1.14452 0.13465,-2.42369 0.0673,-1.31283 0.13465,-2.42369 0.10099,-1.14452 0.13465,-1.95242 0.0673,-0.8079 0.0673,-0.97621 0,-0.60592 -0.13465,-1.14452 -0.10098,-0.57226 -0.2693,-0.97621 -0.16831,-0.40395 -0.40394,-0.60593 -0.20198,-0.23563 -0.37029,-0.16831 -0.43761,0.0673 -0.74057,0.23564 -0.30297,0.13465 -0.50494,0.30296 -0.23564,0.20198 -0.37029,0.47127 -0.0337,0.0673 -0.13465,0.40395 -0.0673,0.33663 -0.0673,0.77424 0,0.13465 0,0.97621 0,0.8079 -0.0337,1.95242 0,1.14452 -0.0337,2.49102 0,1.31283 -0.0337,2.45735 0,1.11086 -0.0337,1.91876 -0.0337,0.8079 -0.0673,0.90888 -0.0673,0.20198 -0.33662,0.57226 -0.2693,0.33663 -0.60592,0.63959 -0.33663,0.30296 -0.63959,0.47127 -0.30296,0.13465 -0.40395,-0.0673 -0.10098,-0.10099 -0.20197,-0.97621 -0.10099,-0.90889 -0.23564,-2.18806 -0.10099,-1.31283 -0.23563,-2.82764 -0.13465,-1.54847 -0.23564,-2.96229 -0.10099,-1.41382 -0.16831,-2.55834 -0.0673,-1.14453 -0.10099,-1.64946 -0.0337,-0.70691 -0.0673,-1.58213 -0.0337,-0.90889 -0.0673,-1.68312 0,-0.8079 0,-1.38016 0.0337,-0.60593 0.13465,-0.74058 0.0673,-0.13464 0.43761,-0.0673 0.40395,0.0673 0.84156,0.2693 0.47127,0.16831 0.87522,0.43761 0.40395,0.23564 0.5386,0.47127 0.0673,0.20198 0.16831,0.47128 0.10099,0.23563 0.16832,0.8079 0.57226,-0.33663 1.2455,-0.60593 0.67325,-0.30296 1.31284,-0.43761 0.67325,-0.16831 1.27917,-0.10099 0.60592,0.0337 1.0772,0.33663 0.30296,0.23563 0.60592,0.8079 0.33662,0.57226 0.57226,1.34649 0.2693,0.77424 0.40395,1.64946 0.16831,0.84156 0.16831,1.61579 z"
           style="font-family:'Jolly Lodger';-inkscape-font-specification:'Jolly Lodger'"
           id="path172634" />
        <path
           d="m 264.78003,461.4306 q 0.2693,0.47127 0.8079,1.41382 0.57226,0.94255 1.21184,2.08707 0.63959,1.14452 1.31284,2.35636 0.67324,1.21185 1.17818,2.22172 0.50494,1.00988 0.77424,1.68312 0.30296,0.67325 0.20197,0.74058 -0.16831,0.10098 -0.50494,0.10098 -0.33662,-0.0337 -0.70691,-0.10098 -0.37028,-0.10099 -0.70691,-0.23564 -0.30296,-0.16831 -0.43761,-0.30296 -1.14452,-1.54847 -2.0534,-2.86131 -0.87523,-1.31283 -1.54848,-2.28904 -0.77423,-1.11086 -1.38015,-2.05341 -0.10099,1.58214 -0.20198,2.99596 -0.10099,1.41382 -0.20197,2.52468 -0.10099,1.07719 -0.23564,1.75044 -0.10099,0.63959 -0.20197,0.67325 -0.2693,0.0337 -0.57226,-0.20197 -0.30297,-0.2693 -0.57227,-0.63959 -0.26929,-0.40395 -0.50493,-0.8079 -0.20198,-0.43761 -0.23564,-0.74057 -0.20197,-3.06328 -0.33662,-5.48697 -0.10099,-2.45736 -0.20198,-4.34245 -0.0673,-1.8851 -0.10098,-3.26525 0,-1.41382 0,-2.39003 0,-2.32271 0.13465,-3.19793 0.13465,-0.67325 0.60592,-1.27917 0.50493,-0.63959 1.0772,-1.11086 0.57226,-0.47128 1.07719,-0.70691 0.50494,-0.23564 0.67325,-0.13465 0.13465,0.10098 0.16831,1.17818 0.0337,1.0772 0,2.76032 0,1.64946 -0.0673,3.70286 -0.0673,2.05341 -0.13465,4.10681 0.60592,-0.90888 1.17818,-1.81776 0.57226,-0.94255 1.0772,-1.68312 0.50494,-0.77424 0.87522,-1.27918 0.40395,-0.50493 0.60592,-0.60592 0.23564,-0.13465 0.74058,-0.20197 0.5386,-0.10099 1.07719,-0.13465 0.5386,-0.0337 0.97621,0.0337 0.47128,0.0673 0.57226,0.23564 0.10099,0.10098 -0.37028,0.84156 -0.47128,0.70691 -1.24551,1.75044 -0.77424,1.04354 -1.78411,2.28904 -1.00987,1.24551 -2.01974,2.4237 z"
           style="font-family:'Jolly Lodger';-inkscape-font-specification:'Jolly Lodger'"
           id="path172636" />
        <path
           d="m 280.36572,456.54955 q 0.0337,0.37029 -0.13465,1.14452 -0.13465,0.77424 -0.43761,1.54847 -0.2693,0.77424 -0.74058,1.3465 -0.43761,0.57226 -1.00987,0.57226 -0.40395,0 -0.67325,-0.63959 -0.23563,-0.63958 -0.37028,-1.48114 -0.10099,-0.87523 -0.16832,-1.71679 -0.0673,-0.84156 -0.13464,-1.17818 -0.10099,-0.16831 -0.40395,-0.30296 -0.2693,-0.16831 -0.5386,-0.16831 -0.2693,0 -0.60593,0.43761 -0.33662,0.43761 -0.67324,1.00987 -0.30297,0.57226 -0.5386,1.14452 -0.20198,0.57226 -0.16831,0.84156 0,0.20198 0.43761,0.70691 0.43761,0.50494 1.07719,1.21185 0.67325,0.67325 1.41383,1.48114 0.77423,0.77424 1.41382,1.58214 0.63958,0.77423 1.07719,1.48114 0.47128,0.70691 0.50494,1.21185 0.0337,0.60592 -0.33663,1.54847 -0.33662,0.94255 -0.87522,1.81777 -0.5386,0.87522 -1.14452,1.51481 -0.60592,0.63958 -1.0772,0.67324 -0.47127,0.0337 -1.38015,-0.50493 -0.87523,-0.57226 -1.78411,-1.31283 -0.87522,-0.77424 -1.58213,-1.51481 -0.67325,-0.74058 -0.77424,-1.0772 -0.10099,-0.30296 -0.13465,-0.8079 0,-0.50493 0.0337,-1.00987 0.0673,-0.50494 0.20198,-0.84156 0.13465,-0.37029 0.33662,-0.37029 0.20198,0 0.8079,0.70691 0.60592,0.67325 1.31283,1.54848 0.70691,0.84156 1.38016,1.54847 0.67325,0.67324 0.97621,0.67324 0.16831,0 0.37029,-0.23563 0.20197,-0.2693 0.37028,-0.60593 0.16832,-0.33662 0.2693,-0.67324 0.13465,-0.37029 0.13465,-0.57227 -0.0337,-0.30296 -0.5386,-0.87522 -0.50493,-0.57226 -1.27917,-1.27917 -0.77423,-0.70691 -1.68312,-1.48114 -0.90888,-0.8079 -1.68312,-1.51481 -0.77423,-0.70691 -1.27917,-1.27917 -0.50493,-0.57226 -0.5386,-0.87523 -0.0337,-0.30296 0.20198,-0.94254 0.23563,-0.67325 0.60592,-1.44749 0.37029,-0.80789 0.84156,-1.64945 0.50494,-0.84156 1.00987,-1.54847 0.50494,-0.70692 0.97621,-1.14453 0.50494,-0.47127 0.87522,-0.47127 0.74058,0 1.75045,0.40395 1.04353,0.40395 1.98608,1.00987 0.94255,0.57226 1.6158,1.21185 0.67324,0.63958 0.70691,1.14452 z"
           style="font-family:'Jolly Lodger';-inkscape-font-specification:'Jolly Lodger'"
           id="path172638" />
      </g>
      <path
         style="display:none;fill:#121c2d;fill-opacity:1;stroke:none;stroke-width:0.209865px;stroke-linecap:butt;stroke-linejoin:miter;stroke-opacity:1"
         d="m 9.9898749,276.53168 c 2.2522321,-1.22127 5.6173391,-1.04194 6.6321531,-0.17929 l 2.966982,-0.38502 c 0.593133,-1.15116 3.277013,-1.58334 4.938067,-0.82978 2.209599,-1.81829 4.556175,-1.27228 6.147078,0.16301 l 1.732311,0.33006 c 1.543011,-0.63868 6.911435,-1.33563 10.142062,-0.14261 l 3.23333,0.32329 c 1.802883,-0.89027 5.852678,-1.62331 8.478397,-0.13835 1.99013,-1.12836 5.598049,-1.91773 8.753357,-0.24062 l 1.456623,-3.36364 c 1.73318,-0.8168 4.143412,-1.33811 7.63634,-0.39712 2.210733,-0.25476 4.73847,-1.36311 8.383602,0.71484 0.08985,-1.09689 6.404549,1.58246 10.062541,1.003 0.869342,-0.13771 7.461916,-3.8606 10.107892,-1.69742 l 1.6272,8.69266 -91.624126,2.94532 z"
         id="path1649612"
         transform="matrix(1.2606645,0.03413627,-0.03413627,1.2606645,165.56979,122.12695)" />
      <path
         style="display:none;fill:#1a2941;fill-opacity:1;stroke:none;stroke-width:0.209865px;stroke-linecap:butt;stroke-linejoin:miter;stroke-opacity:1"
         d="m 9.9558119,276.76081 c 3.0675961,-0.95366 4.9317351,-0.63576 6.7802861,-0.30138 l 2.794024,-0.2575 c 1.647131,-1.22861 3.342411,-1.14737 5.042012,-0.79772 3.019545,-1.7181 3.477925,-1.02897 7.650883,0.54737 3.425578,-0.74318 6.919811,-0.93637 10.438666,-0.22252 l 3.232624,0.23851 c 2.550003,-0.68179 5.214772,-1.07441 8.405933,-0.14078 2.993008,-0.9737 4.806092,-1.32352 8.358895,-0.44357 0.795929,0.1998 1.137996,-2.61816 1.756264,-3.15497 1.73318,-0.81679 3.83517,-0.76507 7.74811,-0.36418 2.210734,-0.25475 4.053834,-0.83414 8.357853,0.7595 -0.118841,-0.81342 11.6384,1.34074 11.091969,0.89645 -0.390143,-0.31722 8.061933,-3.01119 9.403169,-1.60251 l 1.34161,9.05037 -98.274548,3.12539 c 1.0014176,-3.07961 3.3082563,-5.29152 5.8722489,-7.3325 z"
         id="path1649326"
         transform="matrix(1.2606645,0.03413627,-0.03413627,1.2606645,165.56979,122.12695)" />
    </g>
  </g>
</svg>
