<?xml version="1.0" encoding="UTF-8" standalone="no"?>
<!-- Created with Inkscape (http://www.inkscape.org/) -->

<svg
   width="813.53998"
   height="106.593"
   viewBox="0 0 215.24911 28.202732"
   version="1.1"
   id="svg150028"
   inkscape:version="1.2.2 (b0a8486541, 2022-12-01)"
   sodipodi:docname="guru-medition.svg"
   xmlns:inkscape="http://www.inkscape.org/namespaces/inkscape"
   xmlns:sodipodi="http://sodipodi.sourceforge.net/DTD/sodipodi-0.dtd"
   xmlns="http://www.w3.org/2000/svg"
   xmlns:svg="http://www.w3.org/2000/svg">
  <sodipodi:namedview
     id="namedview150030"
     pagecolor="#505050"
     bordercolor="#ffffff"
     borderopacity="1"
     inkscape:showpageshadow="0"
     inkscape:pageopacity="0"
     inkscape:pagecheckerboard="1"
     inkscape:deskcolor="#505050"
     inkscape:document-units="mm"
     showgrid="false"
     inkscape:zoom="0.59829999"
     inkscape:cx="399.46516"
     inkscape:cy="274.94568"
     inkscape:current-layer="layer1" />
  <defs
     id="defs150025" />
  <g
     inkscape:label="Layer 1"
     inkscape:groupmode="layer"
     id="layer1">
    <path
       d="M 8.6703546,10.05264 H 9.7286845 V 8.9943096 H 8.6703546 Z m 0,-3.1749903 H 9.7286845 V 4.7609898 H 8.6703546 Z M 9.7286845,11.11097 H 12.903674 V 10.05264 H 9.7286845 Z m 0,-3.1749903 h 3.1749895 v -1.05833 H 9.7286845 Z m 0,-3.1749899 h 3.1749895 v -1.05833 H 9.7286845 Z M 12.903674,10.05264 h 1.05833 V 7.9359797 h -1.05833 z m 0,-4.2333203 h 1.05833 V 4.7609898 h -1.05833 z"
       style="font-size:10.5833px;line-height:1.25;font-family:Connection;-inkscape-font-specification:Connection;letter-spacing:0px;word-spacing:0px;fill:#ff0000;stroke-width:0.264583"
       id="path150635" />
    <path
       d="m 15.020338,6.8776497 h 1.05833 V 10.05264 h 1.05833 v 1.05833 h 2.11666 v -1.05833 h -2.11666 V 6.8776497 h 2.11666 v -1.05833 h -2.11666 V 3.7026598 h -1.05833 v 2.1166599 h -1.05833 z"
       style="font-size:10.5833px;line-height:1.25;font-family:Connection;-inkscape-font-specification:Connection;letter-spacing:0px;word-spacing:0px;fill:#ff0000;stroke-width:0.264583"
       id="path150637" />
    <path
       d="m 20.311989,11.11097 h 1.05833 V 7.9359797 h 1.058329 v -1.05833 h 2.11666 v -1.05833 h -2.11666 v 1.05833 h -1.058329 v -1.05833 h -1.05833 z"
       style="font-size:10.5833px;line-height:1.25;font-family:Connection;-inkscape-font-specification:Connection;letter-spacing:0px;word-spacing:0px;fill:#ff0000;stroke-width:0.264583"
       id="path150639" />
    <path
       d="m 25.603637,10.05264 h 1.05833 v 1.05833 h 3.17499 v -1.05833 h -3.17499 V 8.9943096 h 4.23332 V 6.8776497 h -1.05833 v -1.05833 h -3.17499 v 1.05833 h -1.05833 z m 1.05833,-2.1166603 v -1.05833 h 3.17499 v 1.05833 z"
       style="font-size:10.5833px;line-height:1.25;font-family:Connection;-inkscape-font-specification:Connection;letter-spacing:0px;word-spacing:0px;fill:#ff0000;stroke-width:0.264583"
       id="path150641" />
    <path
       d="m 31.953623,10.05264 h 1.058329 v 1.05833 h 3.17499 v -1.05833 h -3.17499 V 6.8776497 h 4.23332 v -1.05833 h -4.23332 v 1.05833 h -1.058329 z m 4.233319,0 h 1.05833 v 1.05833 h 1.05833 V 6.8776497 h -1.05833 v 2.1166599 h -1.05833 z"
       style="font-size:10.5833px;line-height:1.25;font-family:Connection;-inkscape-font-specification:Connection;letter-spacing:0px;word-spacing:0px;fill:#ff0000;stroke-width:0.264583"
       id="path150643" />
    <path
       d="m 39.36194,11.11097 h 1.05833 V 7.9359797 h 1.05833 v -1.05833 h 2.11666 V 11.11097 h 1.05833 V 6.8776497 h -1.05833 v -1.05833 H 41.4786 v 1.05833 h -1.05833 v -1.05833 h -1.05833 z m 5.29165,-4.2333203 h 2.11666 v -1.05833 h -2.11666 z m 2.11666,4.2333203 h 1.05833 V 6.8776497 h -1.05833 z"
       style="font-size:10.5833px;line-height:1.25;font-family:Connection;-inkscape-font-specification:Connection;letter-spacing:0px;word-spacing:0px;fill:#ff0000;stroke-width:0.264583"
       id="path150645" />
    <path
       d="m 53.120222,11.11097 h 1.05833 V 7.9359797 h 3.17499 v -1.05833 h -3.17499 V 4.7609898 h 4.23332 v -1.05833 h -5.29165 z"
       style="font-size:10.5833px;line-height:1.25;font-family:Connection;-inkscape-font-specification:Connection;letter-spacing:0px;word-spacing:0px;fill:#ff0000;stroke-width:0.264583"
       id="path150647" />
    <path
       d="m 58.411871,10.05264 h 1.05833 v 1.05833 h 3.17499 v -1.05833 h -3.17499 V 6.8776497 h 4.233319 v -1.05833 h -4.233319 v 1.05833 h -1.05833 z m 4.23332,0 h 1.058329 v 1.05833 h 1.05833 V 6.8776497 h -1.05833 v 2.1166599 h -1.058329 z"
       style="font-size:10.5833px;line-height:1.25;font-family:Connection;-inkscape-font-specification:Connection;letter-spacing:0px;word-spacing:0px;fill:#ff0000;stroke-width:0.264583"
       id="path150649" />
    <path
       d="m 65.820188,11.11097 h 1.05833 V 5.8193197 h -1.05833 z m 0,-6.3499802 h 1.05833 v -1.05833 h -1.05833 z"
       style="font-size:10.5833px;line-height:1.25;font-family:Connection;-inkscape-font-specification:Connection;letter-spacing:0px;word-spacing:0px;fill:#ff0000;stroke-width:0.264583"
       id="path150651" />
    <path
       d="m 67.936857,11.11097 h 1.05833 V 3.7026598 h -1.05833 z"
       style="font-size:10.5833px;line-height:1.25;font-family:Connection;-inkscape-font-specification:Connection;letter-spacing:0px;word-spacing:0px;fill:#ff0000;stroke-width:0.264583"
       id="path150653" />
    <path
       d="m 70.053526,10.05264 h 1.05833 v 1.05833 h 2.11666 v -1.05833 h 1.058329 v 1.05833 h 1.05833 V 5.8193197 h -1.05833 V 8.9943096 H 73.228516 V 10.05264 h -2.11666 V 5.8193197 h -1.05833 z"
       style="font-size:10.5833px;line-height:1.25;font-family:Connection;-inkscape-font-specification:Connection;letter-spacing:0px;word-spacing:0px;fill:#ff0000;stroke-width:0.264583"
       id="path150655" />
    <path
       d="m 76.403509,11.11097 h 1.05833 V 7.9359797 h 1.05833 v -1.05833 h 2.11666 v -1.05833 h -2.11666 v 1.05833 h -1.05833 v -1.05833 h -1.05833 z"
       style="font-size:10.5833px;line-height:1.25;font-family:Connection;-inkscape-font-specification:Connection;letter-spacing:0px;word-spacing:0px;fill:#ff0000;stroke-width:0.264583"
       id="path150657" />
    <path
       d="m 81.695158,10.05264 h 1.05833 v 1.05833 h 3.17499 v -1.05833 h -3.17499 V 8.9943096 h 4.23332 V 6.8776497 h -1.05833 v -1.05833 h -3.17499 v 1.05833 h -1.05833 z m 1.05833,-2.1166603 v -1.05833 h 3.17499 v 1.05833 z"
       style="font-size:10.5833px;line-height:1.25;font-family:Connection;-inkscape-font-specification:Connection;letter-spacing:0px;word-spacing:0px;fill:#ff0000;stroke-width:0.264583"
       id="path150659" />
    <path
       d="m 88.045141,11.11097 h 1.05833 v -1.05833 h -1.05833 z"
       style="font-size:10.5833px;line-height:1.25;font-family:Connection;-inkscape-font-specification:Connection;letter-spacing:0px;word-spacing:0px;fill:#ff0000;stroke-width:0.264583"
       id="path150661" />
    <path
       d="m 93.865965,11.11097 h 1.05833 V 7.9359797 h 3.174989 v -1.05833 H 94.924295 V 4.7609898 h 3.174989 v -1.05833 h -4.233319 z m 4.233319,-4.2333203 h 1.05833 V 4.7609898 h -1.05833 z"
       style="font-size:10.5833px;line-height:1.25;font-family:Connection;-inkscape-font-specification:Connection;letter-spacing:0px;word-spacing:0px;fill:#ff0000;stroke-width:0.264583"
       id="path150663" />
    <path
       d="m 100.21596,11.11097 h 1.05833 V 7.9359797 h 1.05833 v -1.05833 h 2.11666 v -1.05833 h -2.11666 v 1.05833 h -1.05833 v -1.05833 h -1.05833 z"
       style="font-size:10.5833px;line-height:1.25;font-family:Connection;-inkscape-font-specification:Connection;letter-spacing:0px;word-spacing:0px;fill:#ff0000;stroke-width:0.264583"
       id="path150665" />
    <path
       d="m 105.5076,10.05264 h 1.05833 v 1.05833 h 3.17499 v -1.05833 h -3.17499 V 8.9943096 h 4.23332 V 6.8776497 h -1.05833 v -1.05833 h -3.17499 v 1.05833 h -1.05833 z m 1.05833,-2.1166603 v -1.05833 h 3.17499 v 1.05833 z"
       style="font-size:10.5833px;line-height:1.25;font-family:Connection;-inkscape-font-specification:Connection;letter-spacing:0px;word-spacing:0px;fill:#ff0000;stroke-width:0.264583"
       id="path150667" />
    <path
       d="m 111.85759,11.11097 h 4.23332 v -1.05833 h -4.23332 z m 0,-3.1749903 h 1.05833 v -1.05833 h -1.05833 z m 1.05833,1.0583299 h 3.17499 V 7.9359797 h -3.17499 z m 0,-2.1166599 h 4.23332 v -1.05833 h -4.23332 z m 3.17499,3.1749903 h 1.05833 V 8.9943096 h -1.05833 z"
       style="font-size:10.5833px;line-height:1.25;font-family:Connection;-inkscape-font-specification:Connection;letter-spacing:0px;word-spacing:0px;fill:#ff0000;stroke-width:0.264583"
       id="path150669" />
    <path
       d="m 118.20757,11.11097 h 4.23332 v -1.05833 h -4.23332 z m 0,-3.1749903 h 1.05833 v -1.05833 h -1.05833 z m 1.05833,1.0583299 h 3.17499 V 7.9359797 h -3.17499 z m 0,-2.1166599 h 4.23332 v -1.05833 h -4.23332 z m 3.17499,3.1749903 h 1.05833 V 8.9943096 h -1.05833 z"
       style="font-size:10.5833px;line-height:1.25;font-family:Connection;-inkscape-font-specification:Connection;letter-spacing:0px;word-spacing:0px;fill:#ff0000;stroke-width:0.264583"
       id="path150671" />
    <path
       d="m 128.79087,11.11097 h 1.05833 V 7.9359797 h 3.17499 v -1.05833 H 129.8492 V 4.7609898 h 4.23332 v -1.05833 h -5.29165 z"
       style="font-size:10.5833px;line-height:1.25;font-family:Connection;-inkscape-font-specification:Connection;letter-spacing:0px;word-spacing:0px;fill:#ff0000;stroke-width:0.264583"
       id="path150673" />
    <path
       d="m 135.14085,11.11097 h 4.23332 v -1.05833 h -4.23332 z m 0,-4.2333203 h 1.05833 V 4.7609898 h -1.05833 z m 1.05833,1.05833 h 3.17499 V 10.05264 h 1.05833 V 7.9359797 h -1.05833 v -1.05833 h -3.17499 z m 0,-3.1749899 h 4.23332 v -1.05833 h -4.23332 z"
       style="font-size:10.5833px;line-height:1.25;font-family:Connection;-inkscape-font-specification:Connection;letter-spacing:0px;word-spacing:0px;fill:#ff0000;stroke-width:0.264583"
       id="path150675" />
    <path
       d="m 144.13666,6.8776497 h 1.05833 V 10.05264 h 1.05833 v 1.05833 h 2.11666 v -1.05833 h -2.11666 V 6.8776497 h 2.11666 v -1.05833 h -2.11666 V 3.7026598 h -1.05833 v 2.1166599 h -1.05833 z"
       style="font-size:10.5833px;line-height:1.25;font-family:Connection;-inkscape-font-specification:Connection;letter-spacing:0px;word-spacing:0px;fill:#ff0000;stroke-width:0.264583"
       id="path150677" />
    <path
       d="m 149.4283,10.05264 h 1.05833 V 6.8776497 h -1.05833 z m 1.05833,1.05833 h 3.17499 v -1.05833 h -3.17499 z m 0,-4.2333203 h 3.17499 v -1.05833 h -3.17499 z m 3.17499,3.1749903 h 1.05833 V 6.8776497 h -1.05833 z"
       style="font-size:10.5833px;line-height:1.25;font-family:Connection;-inkscape-font-specification:Connection;letter-spacing:0px;word-spacing:0px;fill:#ff0000;stroke-width:0.264583"
       id="path150679" />
    <path
       d="m 160.01162,10.05264 h 1.05833 V 6.8776497 h -1.05833 z m 1.05833,1.05833 h 4.23332 v -1.05833 h -4.23332 z m 0,-4.2333203 h 4.23332 v -1.05833 h -4.23332 z"
       style="font-size:10.5833px;line-height:1.25;font-family:Connection;-inkscape-font-specification:Connection;letter-spacing:0px;word-spacing:0px;fill:#ff0000;stroke-width:0.264583"
       id="path150681" />
    <path
       d="m 166.36159,10.05264 h 1.05833 V 6.8776497 h -1.05833 z m 1.05833,1.05833 h 3.17499 v -1.05833 h -3.17499 z m 0,-4.2333203 h 3.17499 v -1.05833 h -3.17499 z m 3.17499,3.1749903 h 1.05833 V 6.8776497 h -1.05833 z"
       style="font-size:10.5833px;line-height:1.25;font-family:Connection;-inkscape-font-specification:Connection;letter-spacing:0px;word-spacing:0px;fill:#ff0000;stroke-width:0.264583"
       id="path150683" />
    <path
       d="m 172.71158,11.11097 h 1.05833 V 7.9359797 h 1.05833 v -1.05833 h 2.11666 V 11.11097 h 1.05833 V 6.8776497 h -1.05833 v -1.05833 h -2.11666 v 1.05833 h -1.05833 v -1.05833 h -1.05833 z"
       style="font-size:10.5833px;line-height:1.25;font-family:Connection;-inkscape-font-specification:Connection;letter-spacing:0px;word-spacing:0px;fill:#ff0000;stroke-width:0.264583"
       id="path150685" />
    <path
       d="m 179.06156,6.8776497 h 1.05833 V 10.05264 h 1.05833 v 1.05833 h 2.11666 v -1.05833 h -2.11666 V 6.8776497 h 2.11666 v -1.05833 h -2.11666 V 3.7026598 h -1.05833 v 2.1166599 h -1.05833 z"
       style="font-size:10.5833px;line-height:1.25;font-family:Connection;-inkscape-font-specification:Connection;letter-spacing:0px;word-spacing:0px;fill:#ff0000;stroke-width:0.264583"
       id="path150687" />
    <path
       d="m 184.35322,11.11097 h 1.05833 V 5.8193197 h -1.05833 z m 0,-6.3499802 h 1.05833 v -1.05833 h -1.05833 z"
       style="font-size:10.5833px;line-height:1.25;font-family:Connection;-inkscape-font-specification:Connection;letter-spacing:0px;word-spacing:0px;fill:#ff0000;stroke-width:0.264583"
       id="path150689" />
    <path
       d="m 186.46988,11.11097 h 1.05833 V 7.9359797 h 1.05833 v -1.05833 h 2.11666 V 11.11097 h 1.05833 V 6.8776497 h -1.05833 v -1.05833 h -2.11666 v 1.05833 h -1.05833 v -1.05833 h -1.05833 z"
       style="font-size:10.5833px;line-height:1.25;font-family:Connection;-inkscape-font-specification:Connection;letter-spacing:0px;word-spacing:0px;fill:#ff0000;stroke-width:0.264583"
       id="path150691" />
    <path
       d="m 192.81986,10.05264 h 1.05833 v 1.05833 h 2.11666 v -1.05833 h 1.05833 v 1.05833 h 1.05833 V 5.8193197 h -1.05833 v 3.1749899 h -1.05833 V 10.05264 h -2.11666 V 5.8193197 h -1.05833 z"
       style="font-size:10.5833px;line-height:1.25;font-family:Connection;-inkscape-font-specification:Connection;letter-spacing:0px;word-spacing:0px;fill:#ff0000;stroke-width:0.264583"
       id="path150693" />
    <path
       d="m 199.16985,10.05264 h 1.05833 v 1.05833 h 3.17499 v -1.05833 h -3.17499 V 8.9943096 h 4.23332 V 6.8776497 h -1.05833 v -1.05833 h -3.17499 v 1.05833 h -1.05833 z m 1.05833,-2.1166603 v -1.05833 h 3.17499 v 1.05833 z"
       style="font-size:10.5833px;line-height:1.25;font-family:Connection;-inkscape-font-specification:Connection;letter-spacing:0px;word-spacing:0px;fill:#ff0000;stroke-width:0.264583"
       id="path150695" />
    <path
       d="m 205.51983,11.11097 h 1.05833 v -1.05833 h -1.05833 z"
       style="font-size:10.5833px;line-height:1.25;font-family:Connection;-inkscape-font-specification:Connection;letter-spacing:0px;word-spacing:0px;fill:#ff0000;stroke-width:0.264583"
       id="path150697" />
    <path
       d="m 8.6703546,23.441835 h 1.0583299 v 1.05833 h 4.2333195 v -4.23332 h -3.17499 v 1.05833 h 2.11666 v 2.11666 H 9.7286845 v -5.29165 h 4.2333195 v -1.05833 H 9.7286845 v 1.05833 H 8.6703546 Z"
       style="font-size:10.5833px;line-height:1.25;font-family:Connection;-inkscape-font-specification:Connection;letter-spacing:0px;word-spacing:0px;fill:#ff0000;stroke-width:0.264583"
       id="path150699" />
    <path
       d="m 15.020338,23.441835 h 1.05833 v 1.05833 h 2.11666 v -1.05833 h 1.05833 v 1.05833 h 1.05833 v -5.29165 h -1.05833 v 3.17499 h -1.05833 v 1.05833 h -2.11666 v -4.23332 h -1.05833 z"
       style="font-size:10.5833px;line-height:1.25;font-family:Connection;-inkscape-font-specification:Connection;letter-spacing:0px;word-spacing:0px;fill:#ff0000;stroke-width:0.264583"
       id="path150701" />
    <path
       d="m 21.370322,24.500165 h 1.05833 v -3.17499 h 1.05833 v -1.05833 h 2.11666 v -1.05833 h -2.11666 v 1.05833 h -1.05833 v -1.05833 h -1.05833 z"
       style="font-size:10.5833px;line-height:1.25;font-family:Connection;-inkscape-font-specification:Connection;letter-spacing:0px;word-spacing:0px;fill:#ff0000;stroke-width:0.264583"
       id="path150703" />
    <path
       d="m 26.661972,23.441835 h 1.05833 v 1.05833 h 2.11666 v -1.05833 h 1.05833 v 1.05833 h 1.05833 v -5.29165 h -1.05833 v 3.17499 h -1.05833 v 1.05833 h -2.11666 v -4.23332 h -1.05833 z"
       style="font-size:10.5833px;line-height:1.25;font-family:Connection;-inkscape-font-specification:Connection;letter-spacing:0px;word-spacing:0px;fill:#ff0000;stroke-width:0.264583"
       id="path150705" />
    <path
       d="m 37.245271,24.500165 h 1.05833 v -5.29165 h -1.05833 z m 1.05833,-5.29165 h 1.05833 v -2.11666 h -1.05833 z m 1.05833,2.11666 h 1.05833 v -2.11666 h -1.05833 z m 1.05833,2.11666 h 1.05833 v -2.11666 h 1.05833 v -2.11666 h -1.05833 v 2.11666 h -1.05833 z m 2.11666,-4.23332 h 1.05833 v -2.11666 h -1.05833 z m 1.05833,5.29165 h 1.05833 v -5.29165 h -1.05833 z"
       style="font-size:10.5833px;line-height:1.25;font-family:Connection;-inkscape-font-specification:Connection;letter-spacing:0px;word-spacing:0px;fill:#ff0000;stroke-width:0.264583"
       id="path150707" />
    <path
       d="m 45.711904,23.441835 h 1.05833 v 1.05833 h 3.17499 v -1.05833 h -3.17499 v -1.05833 h 4.23332 v -2.11666 h -1.05833 v -1.05833 h -3.17499 v 1.05833 h -1.05833 z m 1.05833,-2.11666 v -1.05833 h 3.17499 v 1.05833 z"
       style="font-size:10.5833px;line-height:1.25;font-family:Connection;-inkscape-font-specification:Connection;letter-spacing:0px;word-spacing:0px;fill:#ff0000;stroke-width:0.264583"
       id="path150709" />
    <path
       d="m 52.061887,23.441835 h 1.05833 v -3.17499 h -1.05833 z m 1.05833,1.05833 h 3.17499 v -1.05833 h 1.05833 v -6.34998 h -1.05833 v 2.11666 h -3.17499 v 1.05833 h 3.17499 v 3.17499 h -3.17499 z"
       style="font-size:10.5833px;line-height:1.25;font-family:Connection;-inkscape-font-specification:Connection;letter-spacing:0px;word-spacing:0px;fill:#ff0000;stroke-width:0.264583"
       id="path150711" />
    <path
       d="m 58.411871,24.500165 h 1.05833 v -5.29165 h -1.05833 z m 0,-6.34998 h 1.05833 v -1.05833 h -1.05833 z"
       style="font-size:10.5833px;line-height:1.25;font-family:Connection;-inkscape-font-specification:Connection;letter-spacing:0px;word-spacing:0px;fill:#ff0000;stroke-width:0.264583"
       id="path150713" />
    <path
       d="m 60.528539,20.266845 h 1.05833 v 3.17499 h 1.05833 v 1.05833 h 2.11666 v -1.05833 h -2.11666 v -3.17499 h 2.11666 v -1.05833 h -2.11666 v -2.11666 h -1.05833 v 2.11666 h -1.05833 z"
       style="font-size:10.5833px;line-height:1.25;font-family:Connection;-inkscape-font-specification:Connection;letter-spacing:0px;word-spacing:0px;fill:#ff0000;stroke-width:0.264583"
       id="path150715" />
    <path
       d="m 65.820188,23.441835 h 1.05833 v 1.05833 h 3.17499 v -1.05833 h -3.17499 v -3.17499 h 4.23332 v -1.05833 h -4.23332 v 1.05833 h -1.05833 z m 4.23332,0 h 1.05833 v 1.05833 h 1.05833 v -4.23332 h -1.05833 v 2.11666 h -1.05833 z"
       style="font-size:10.5833px;line-height:1.25;font-family:Connection;-inkscape-font-specification:Connection;letter-spacing:0px;word-spacing:0px;fill:#ff0000;stroke-width:0.264583"
       id="path150717" />
    <path
       d="m 73.228506,20.266845 h 1.05833 v 3.17499 h 1.05833 v 1.05833 h 2.11666 v -1.05833 h -2.11666 v -3.17499 h 2.11666 v -1.05833 h -2.11666 v -2.11666 h -1.05833 v 2.11666 h -1.05833 z"
       style="font-size:10.5833px;line-height:1.25;font-family:Connection;-inkscape-font-specification:Connection;letter-spacing:0px;word-spacing:0px;fill:#ff0000;stroke-width:0.264583"
       id="path150719" />
    <path
       d="m 78.520155,24.500165 h 1.05833 v -5.29165 h -1.05833 z m 0,-6.34998 h 1.05833 v -1.05833 h -1.05833 z"
       style="font-size:10.5833px;line-height:1.25;font-family:Connection;-inkscape-font-specification:Connection;letter-spacing:0px;word-spacing:0px;fill:#ff0000;stroke-width:0.264583"
       id="path150721" />
    <path
       d="m 80.636823,23.441835 h 1.05833 v -3.17499 h -1.05833 z m 1.05833,1.05833 h 3.17499 v -1.05833 h -3.17499 z m 0,-4.23332 h 3.17499 v -1.05833 h -3.17499 z m 3.17499,3.17499 h 1.05833 v -3.17499 h -1.05833 z"
       style="font-size:10.5833px;line-height:1.25;font-family:Connection;-inkscape-font-specification:Connection;letter-spacing:0px;word-spacing:0px;fill:#ff0000;stroke-width:0.264583"
       id="path150723" />
    <path
       d="m 86.986807,24.500165 h 1.05833 v -3.17499 h 1.05833 v -1.05833 h 2.116659 v 4.23332 h 1.05833 v -4.23332 h -1.05833 v -1.05833 h -2.116659 v 1.05833 h -1.05833 v -1.05833 h -1.05833 z"
       style="font-size:10.5833px;line-height:1.25;font-family:Connection;-inkscape-font-specification:Connection;letter-spacing:0px;word-spacing:0px;fill:#ff0000;stroke-width:0.264583"
       id="path150725" />
    <path
       d="m 94.395132,24.500165 h 1.05833 v -1.05833 h -1.05833 z m 0,-2.11666 h 1.05833 v 1.05833 h 1.05833 v -1.05833 h 2.11666 v 1.05833 h 1.05833 v -1.05833 h 4.233318 v -1.05833 h -2.11666 v -1.05833 h 3.17499 v -1.05833 h -1.05833 v -1.05833 h -1.05833 v 1.05833 h -2.11666 v -1.05833 h -1.058328 v 1.05833 h -4.23332 v 1.05833 h 2.11666 v 1.05833 h -3.17499 z m 3.17499,2.11666 h 1.05833 v -1.05833 h -1.05833 z m 1.05833,-3.17499 v -1.05833 h 2.116658 v 1.05833 z m 2.116658,-3.17499 h 1.05833 v -1.05833 h -1.05833 z m 3.17499,0 h 1.05833 v -1.05833 h -1.05833 z"
       style="font-size:10.5833px;line-height:1.25;font-family:Connection;-inkscape-font-specification:Connection;letter-spacing:0px;word-spacing:0px;fill:#ff0000;stroke-width:0.264583"
       id="path150727" />
    <path
       d="m 106.03676,23.441835 h 1.05833 v -5.29165 h -1.05833 z m 1.05833,1.05833 h 3.17499 v -1.05833 h -3.17499 z m 0,-6.34998 h 3.17499 v -1.05833 h -3.17499 z m 3.17499,5.29165 h 1.05833 v -5.29165 h -1.05833 z"
       style="font-size:10.5833px;line-height:1.25;font-family:Connection;-inkscape-font-specification:Connection;letter-spacing:0px;word-spacing:0px;fill:#ff0000;stroke-width:0.264583"
       id="path150729" />
    <path
       d="m 112.38675,24.500165 h 3.17499 v -1.05833 h -1.05833 v -6.34998 h -1.05833 v 1.05833 h -1.05833 v 1.05833 h 1.05833 v 4.23332 h -1.05833 z"
       style="font-size:10.5833px;line-height:1.25;font-family:Connection;-inkscape-font-specification:Connection;letter-spacing:0px;word-spacing:0px;fill:#ff0000;stroke-width:0.264583"
       id="path150731" />
    <path
       d="m 116.62006,23.441835 h 1.05833 v -5.29165 h -1.05833 z m 1.05833,1.05833 h 3.17499 v -1.05833 h -3.17499 z m 0,-6.34998 h 3.17499 v -1.05833 h -3.17499 z m 3.17499,5.29165 h 1.05833 v -5.29165 h -1.05833 z"
       style="font-size:10.5833px;line-height:1.25;font-family:Connection;-inkscape-font-specification:Connection;letter-spacing:0px;word-spacing:0px;fill:#ff0000;stroke-width:0.264583"
       id="path150733" />
    <path
       d="m 122.97004,23.441835 h 1.05833 v -5.29165 h -1.05833 z m 1.05833,1.05833 h 3.17499 v -1.05833 h -3.17499 z m 0,-6.34998 h 3.17499 v -1.05833 h -3.17499 z m 3.17499,5.29165 h 1.05833 v -5.29165 h -1.05833 z"
       style="font-size:10.5833px;line-height:1.25;font-family:Connection;-inkscape-font-specification:Connection;letter-spacing:0px;word-spacing:0px;fill:#ff0000;stroke-width:0.264583"
       id="path150735" />
    <path
       d="m 129.32003,23.441835 h 1.05833 v -5.29165 h -1.05833 z m 1.05833,1.05833 h 3.17499 v -1.05833 h -3.17499 z m 0,-6.34998 h 3.17499 v -1.05833 h -3.17499 z m 3.17499,5.29165 h 1.05833 v -5.29165 h -1.05833 z"
       style="font-size:10.5833px;line-height:1.25;font-family:Connection;-inkscape-font-specification:Connection;letter-spacing:0px;word-spacing:0px;fill:#ff0000;stroke-width:0.264583"
       id="path150737" />
    <path
       d="m 135.67001,23.441835 h 1.05833 v -5.29165 h -1.05833 z m 1.05833,1.05833 h 3.17499 v -1.05833 h -3.17499 z m 0,-6.34998 h 3.17499 v -1.05833 h -3.17499 z m 3.17499,5.29165 h 1.05833 v -5.29165 h -1.05833 z"
       style="font-size:10.5833px;line-height:1.25;font-family:Connection;-inkscape-font-specification:Connection;letter-spacing:0px;word-spacing:0px;fill:#ff0000;stroke-width:0.264583"
       id="path150739" />
    <path
       d="m 142.01999,23.441835 h 1.05833 v -5.29165 h -1.05833 z m 1.05833,1.05833 h 3.17499 v -1.05833 h -3.17499 z m 0,-6.34998 h 3.17499 v -1.05833 h -3.17499 z m 3.17499,5.29165 h 1.05833 v -5.29165 h -1.05833 z"
       style="font-size:10.5833px;line-height:1.25;font-family:Connection;-inkscape-font-specification:Connection;letter-spacing:0px;word-spacing:0px;fill:#ff0000;stroke-width:0.264583"
       id="path150741" />
    <path
       d="m 148.36999,23.441835 h 1.05833 v -5.29165 h -1.05833 z m 1.05833,1.05833 h 4.23332 v -1.05833 h -4.23332 z m 0,-6.34998 h 4.23332 v -1.05833 h -4.23332 z"
       style="font-size:10.5833px;line-height:1.25;font-family:Connection;-inkscape-font-specification:Connection;letter-spacing:0px;word-spacing:0px;fill:#ff0000;stroke-width:0.264583"
       id="path150743" />
    <path
       d="m 154.71996,24.500165 h 1.05833 v -1.05833 h -1.05833 z"
       style="font-size:10.5833px;line-height:1.25;font-family:Connection;-inkscape-font-specification:Connection;letter-spacing:0px;word-spacing:0px;fill:#ff0000;stroke-width:0.264583"
       id="path150745" />
    <path
       d="m 156.83663,23.441835 h 1.05833 v -5.29165 h -1.05833 z m 1.05833,1.05833 h 4.23332 v -1.05833 h -4.23332 z m 0,-6.34998 h 4.23332 v -1.05833 h -4.23332 z"
       style="font-size:10.5833px;line-height:1.25;font-family:Connection;-inkscape-font-specification:Connection;letter-spacing:0px;word-spacing:0px;fill:#ff0000;stroke-width:0.264583"
       id="path150747" />
    <path
       d="m 163.18662,23.441835 h 1.05833 v -5.29165 h -1.05833 z m 1.05833,1.05833 h 4.23332 v -1.05833 h -4.23332 z m 0,-6.34998 h 4.23332 v -1.05833 h -4.23332 z"
       style="font-size:10.5833px;line-height:1.25;font-family:Connection;-inkscape-font-specification:Connection;letter-spacing:0px;word-spacing:0px;fill:#ff0000;stroke-width:0.264583"
       id="path150749" />
    <path
       d="m 169.5366,23.441835 h 1.05833 v -5.29165 h -1.05833 z m 1.05833,1.05833 h 3.17499 v -1.05833 h -3.17499 z m 0,-6.34998 h 3.17499 v -1.05833 h -3.17499 z m 3.17499,5.29165 h 1.05833 v -5.29165 h -1.05833 z"
       style="font-size:10.5833px;line-height:1.25;font-family:Connection;-inkscape-font-specification:Connection;letter-spacing:0px;word-spacing:0px;fill:#ff0000;stroke-width:0.264583"
       id="path150751" />
    <path
       d="m 175.88659,23.441835 h 1.05833 v -5.29165 h -1.05833 z m 1.05833,1.05833 h 3.17499 v -1.05833 h -3.17499 z m 0,-6.34998 h 3.17499 v -1.05833 h -3.17499 z m 3.17499,5.29165 h 1.05833 v -5.29165 h -1.05833 z"
       style="font-size:10.5833px;line-height:1.25;font-family:Connection;-inkscape-font-specification:Connection;letter-spacing:0px;word-spacing:0px;fill:#ff0000;stroke-width:0.264583"
       id="path150753" />
    <path
       d="m 182.23656,24.500165 h 1.05833 v -3.17499 h 3.17499 v -1.05833 h -3.17499 v -2.11666 h 4.23332 v -1.05833 h -5.29165 z"
       style="font-size:10.5833px;line-height:1.25;font-family:Connection;-inkscape-font-specification:Connection;letter-spacing:0px;word-spacing:0px;fill:#ff0000;stroke-width:0.264583"
       id="path150755" />
    <path
       d="m 188.58655,24.500165 h 1.05833 v -3.17499 h 3.17499 v -1.05833 h -3.17499 v -2.11666 h 4.23332 v -1.05833 h -5.29165 z"
       style="font-size:10.5833px;line-height:1.25;font-family:Connection;-inkscape-font-specification:Connection;letter-spacing:0px;word-spacing:0px;fill:#ff0000;stroke-width:0.264583"
       id="path150757" />
    <path
       d="m 194.93653,23.441835 h 1.05833 v 1.05833 h 3.17499 v -1.05833 h -3.17499 v -1.05833 h -1.05833 z m 0,-4.23332 h 1.05833 v -1.05833 h -1.05833 z m 1.05833,2.11666 h 3.17499 v 2.11666 h 1.05833 v -2.11666 h -1.05833 v -1.05833 h -3.17499 z m 0,-3.17499 h 3.17499 v -1.05833 h -3.17499 z m 3.17499,2.11666 h 1.05833 v -2.11666 h -1.05833 z"
       style="font-size:10.5833px;line-height:1.25;font-family:Connection;-inkscape-font-specification:Connection;letter-spacing:0px;word-spacing:0px;fill:#ff0000;stroke-width:0.264583"
       id="path150759" />
    <path
       d="m 201.28652,23.441835 h 1.05833 v 1.05833 h 3.17499 v -1.05833 h -3.17499 v -1.05833 h -1.05833 z m 0,-4.23332 h 1.05833 v -1.05833 h -1.05833 z m 1.05833,2.11666 h 3.17499 v 2.11666 h 1.05833 v -2.11666 h -1.05833 v -1.05833 h -3.17499 z m 0,-3.17499 h 3.17499 v -1.05833 h -3.17499 z m 3.17499,2.11666 h 1.05833 v -2.11666 h -1.05833 z"
       style="font-size:10.5833px;line-height:1.25;font-family:Connection;-inkscape-font-specification:Connection;letter-spacing:0px;word-spacing:0px;fill:#ff0000;stroke-width:0.264583"
       id="path150761" />
    <path
       id="rect150259"
       style="fill:none;fill-rule:evenodd;stroke:#ff0000;stroke-width:1.482;stroke-linecap:round;stroke-linejoin:round;stroke-miterlimit:4.8;paint-order:stroke markers fill"
       d="M 0.74100001,0.74099791 H 214.50813 V 27.461814 H 0.74100001 Z" />
  </g>
</svg>
