<?xml version="1.0" encoding="UTF-8" standalone="no"?>
<!-- Created with Inkscape (http://www.inkscape.org/) -->

<svg
   width="445.34201"
   height="800"
   viewBox="0 0 117.83007 211.66667"
   version="1.1"
   id="svg234908"
   xmlns="http://www.w3.org/2000/svg"
   xmlns:svg="http://www.w3.org/2000/svg">
  <defs
     id="defs234905" />
  <g
     id="layer1">
    <g
       id="g235073"
       transform="matrix(0.99919394,0,0,0.99919394,224.89984,237.86665)">
      <path
         id="path2300609-6"
         style="display:inline;mix-blend-mode:normal;fill:#19253c;fill-opacity:1;stroke-width:0.91313"
         d="m -220.04557,-238.05854 -5.0357,5.30043 v 206.53699 h 117.92422 v -17.98272 c -19.94511,-24.51935 -54.73358,-33.71198 -54.73358,-33.71198 l -21.7525,-102.06737 -24.28999,-20.90467 z" />
      <path
         id="path2300613"
         style="display:inline;mix-blend-mode:normal;fill:#1c2e49;fill-opacity:1;stroke-width:0.91313"
         d="m -213.03391,-216.54209 -11.00902,15.52778 12.09489,72.46246 -4.00718,-69.82464 8.02365,-2.51952 z m 29.39233,36.55901 -16.75864,13.89426 v 59.23619 l 0.58942,11.14846 4.72265,-5.21519 -3.81552,6.49949 -0.83532,0.0646 3.6032,68.125 h 5.4841 l 3.50506,-40.43828 25.25807,-11.24714 z" />
      <path
         id="path2300623"
         style="display:inline;mix-blend-mode:normal;fill:#1c2e49;fill-opacity:1;stroke-width:0.91313"
         d="m -225.08127,-103.38577 v 4.1551 h 1.03886 l 11.00902,3.92624 -8.34394,-7.57765 z" />
      <path
         id="path2300617"
         style="display:inline;mix-blend-mode:normal;fill:#203657;fill-opacity:1;stroke-width:0.91313"
         d="m -220.04557,-238.05854 -5.0357,5.29939 v 31.92399 l 1.03886,-0.17927 11.00902,-15.52778 z m 12.114,37.16241 -8.02365,2.51952 8.02365,21.61656 v 4.20831 l 7.53083,6.46332 16.75968,-13.89374 z m -17.1497,100.96184 v 1.64592 l 2.59379,8.9198 h 2.4321 l -3.98703,-9.8621 z" />
      <path
         id="path2300631"
         style="display:inline;mix-blend-mode:normal;fill:#324769;fill-opacity:1;stroke-width:0.91313"
         d="m -203.2394,-168.52567 2.83866,5.83305 2.93939,-5.83305 z m 8.15125,67.60631 -10.90828,7.0471 5.91546,-1.53331 z" />
      <path
         id="path2300617-3"
         style="display:inline;mix-blend-mode:normal;fill:#203657;fill-opacity:1;stroke-width:0.91313"
         d="m -220.04557,-238.05854 -5.0357,5.29939 v 31.92399 l 1.03886,-0.17927 11.00902,-15.52778 z m 12.114,37.16241 -8.02365,2.51952 8.02365,21.61656 v 4.20831 l 7.53083,6.46332 16.75968,-13.89374 z m -17.1497,100.96132 v 1.64644 l 9.98411,34.33088 h 2.06325 l 5.10028,-0.14621 0.003,5.2e-4 11.64751,35.05412 -10.45265,-36.06875 -3.84238,-0.81108 -13.46384,-33.30178 z m 63.19271,22.01951 -25.25807,11.24663 c 0,0 16.71374,27.53176 37.74504,33.62053 21.04046,6.08875 31.6023,4.01664 31.6023,4.01664 l 10.64327,-15.17182 c -27.19281,-29.42138 -54.73254,-33.71198 -54.73254,-33.71198 z" />
      <path
         id="path1786"
         style="display:inline;fill:#172439;fill-opacity:1;stroke-width:0.264583"
         d="m -197.63441,-36.41077 c -1.0663,-0.003 -2.04861,0.0841 -2.35409,0.25417 -0.15967,0.0898 -0.22983,0.17795 -0.23092,0.26347 -10e-6,3.5e-4 1e-5,6.9e-4 0,10e-4 -4e-5,0.006 3.5e-4,0.0124 0.001,0.0186 0.0128,0.13485 0.1956,0.26277 0.47061,0.37816 l 0.0263,0.0103 c 0.74058,0.30154 2.0978,0.51369 2.56331,0.51869 0.52094,0.003 1.9328,-0.1829 2.57571,-0.47374 h 5.2e-4 c 0.0579,-0.0267 0.10981,-0.0547 0.15394,-0.0832 0.0221,-0.0143 0.0422,-0.0287 0.0604,-0.0434 0.0365,-0.0294 0.0649,-0.0597 0.0842,-0.0904 0.003,-0.005 0.006,-0.01 0.009,-0.015 v -5.2e-4 c 0.003,-0.005 0.006,-0.01 0.008,-0.015 v -5.1e-4 c 0.002,-0.005 0.004,-0.0102 0.006,-0.0155 0.002,-0.005 0.003,-0.0107 0.004,-0.016 0.001,-0.005 0.001,-0.0103 0.002,-0.0155 v -5.2e-4 c 5.3e-4,-0.005 0.001,-0.0103 0.001,-0.0155 v -5.2e-4 c -2e-5,-0.005 -4.7e-4,-0.0103 -0.001,-0.0155 v -5.2e-4 c -5.6e-4,-0.005 -10e-4,-0.0104 -0.003,-0.0155 -7e-5,-3.2e-4 8e-5,-7.1e-4 0,-0.001 -0.0107,-0.049 -0.0455,-0.099 -0.10796,-0.15033 -0.38831,-0.3184 -1.89802,-0.47213 -3.26898,-0.47632 z m 72.56414,1.65109 c -0.62076,-3e-5 -1.25619,0.003 -1.8964,0.008 -0.002,2e-5 -0.004,-2e-5 -0.006,0 -0.003,3e-5 -0.007,-3e-5 -0.0103,0 -0.63429,0.005 -1.27332,0.0136 -1.90776,0.0238 -0.005,7e-5 -0.009,-7e-5 -0.0134,0 -0.006,10e-5 -0.0117,4.2e-4 -0.0176,5.2e-4 -1.26902,0.0206 -2.51889,0.0499 -3.67501,0.0868 -0.32403,0.0103 -0.63977,0.0216 -0.94742,0.0331 -0.78118,0.029 -1.50292,0.0611 -2.14075,0.0961 -0.0539,0.003 -0.10643,0.006 -0.15911,0.009 -0.56594,0.0322 -1.05423,0.0663 -1.45574,0.10229 -0.28549,0.0256 -0.53342,0.0521 -0.71858,0.0791 -0.0391,0.006 -0.0737,0.0113 -0.10796,0.0171 -0.0102,0.002 -0.0223,0.003 -0.032,0.005 -7.9e-4,1.4e-4 -0.002,3.8e-4 -0.003,5.2e-4 -0.0838,0.0149 -0.15151,0.0298 -0.20096,0.045 -7.2e-4,2.2e-4 -0.002,2.9e-4 -0.003,5.1e-4 -0.3888,0.11902 -0.17716,0.3041 0.4391,0.51042 1.8832,0.62158 7.52224,1.43367 10.75434,1.12155 1.05533,-0.0979 6.70754,-0.60844 8.90547,-1.27499 0.32798,-0.10051 0.58176,-0.20106 0.73252,-0.30687 0.0186,-0.0185 0.0398,-0.0316 0.061,-0.0501 v -5.1e-4 c 0.007,-0.006 0.013,-0.0123 0.0176,-0.0186 v -5.1e-4 c 0.009,-0.0127 0.0132,-0.0251 0.0124,-0.0372 v -5.2e-4 c -3.9e-4,-0.006 -0.002,-0.0117 -0.005,-0.0176 -0.001,-0.002 -0.004,-0.005 -0.005,-0.007 -0.002,-0.004 -0.004,-0.007 -0.007,-0.0109 -0.002,-0.003 -0.006,-0.006 -0.009,-0.008 -0.0161,-0.0146 -0.0387,-0.0286 -0.0698,-0.0424 -0.0735,-0.0326 -0.18809,-0.0627 -0.3394,-0.0904 -0.20174,-0.037 -0.4693,-0.0698 -0.79244,-0.0987 -0.24236,-0.0217 -0.51616,-0.0411 -0.81725,-0.0584 -0.40145,-0.0231 -0.85115,-0.0425 -1.34003,-0.0584 -1.22221,-0.0397 -2.68726,-0.0578 -4.24377,-0.0579 z m -39.96277,0.17669 c -1.06629,-0.003 -2.0486,0.0836 -2.35409,0.25365 -0.15998,0.09 -0.2301,0.17811 -0.23091,0.26347 -1e-5,3.4e-4 0,6.9e-4 0,10e-4 -2e-5,0.006 3.6e-4,0.0121 0.001,0.0181 0.0127,0.13437 0.19556,0.26221 0.47061,0.37918 l 0.0269,0.008 c 0.74058,0.30153 2.09729,0.51368 2.5628,0.51868 0.52105,0.003 1.9335,-0.18278 2.57622,-0.47373 0.0767,-0.0357 0.14216,-0.0731 0.19424,-0.11159 0.006,-0.005 0.013,-0.01 0.0191,-0.0145 0.0183,-0.0147 0.0344,-0.0294 0.0486,-0.0444 0.005,-0.005 0.009,-0.01 0.0134,-0.0145 9e-5,-1.1e-4 -9e-5,-4.1e-4 0,-5.2e-4 0.004,-0.005 0.008,-0.01 0.0119,-0.015 0.004,-0.005 0.007,-0.0103 0.0103,-0.0155 0.003,-0.005 0.007,-0.01 0.009,-0.015 0.005,-0.0104 0.01,-0.021 0.0129,-0.0315 0.002,-0.005 0.003,-0.01 0.004,-0.015 4e-5,-1.7e-4 -4e-5,-3.5e-4 0,-5.2e-4 0.001,-0.005 0.002,-0.01 0.003,-0.015 4e-5,-3.4e-4 -4e-5,-7e-4 0,-10e-4 5.4e-4,-0.005 9.9e-4,-0.01 10e-4,-0.015 0,-3.4e-4 0,-7e-4 0,-10e-4 1e-5,-0.005 -5.4e-4,-0.01 -10e-4,-0.015 -4e-5,-3.4e-4 4e-5,-7e-4 0,-10e-4 -5.3e-4,-0.005 -0.002,-0.01 -0.003,-0.015 -7e-5,-3.3e-4 7e-5,-7.1e-4 0,-0.001 -0.001,-0.005 -0.002,-0.01 -0.004,-0.015 -0.0139,-0.0439 -0.0473,-0.0889 -0.10332,-0.13484 -0.38831,-0.31839 -1.89802,-0.47212 -3.26897,-0.4763 z" />
    </g>
  </g>
</svg>
