<?xml version="1.0" encoding="UTF-8" standalone="no"?>
<!-- Created with Inkscape (http://www.inkscape.org/) -->

<svg
   width="200"
   height="175"
   viewBox="0 0 52.916665 46.302083"
   version="1.1"
   id="svg235106"
   xml:space="preserve"
   inkscape:version="1.2.2 (b0a8486541, 2022-12-01)"
   sodipodi:docname="sprechblase.svg"
   xmlns:inkscape="http://www.inkscape.org/namespaces/inkscape"
   xmlns:sodipodi="http://sodipodi.sourceforge.net/DTD/sodipodi-0.dtd"
   xmlns:xlink="http://www.w3.org/1999/xlink"
   xmlns="http://www.w3.org/2000/svg"
   xmlns:svg="http://www.w3.org/2000/svg"><sodipodi:namedview
     id="namedview235108"
     pagecolor="#ffffff"
     bordercolor="#666666"
     borderopacity="1.0"
     inkscape:showpageshadow="2"
     inkscape:pageopacity="0.0"
     inkscape:pagecheckerboard="0"
     inkscape:deskcolor="#d1d1d1"
     inkscape:document-units="mm"
     showgrid="false"
     inkscape:zoom="2.8033795"
     inkscape:cx="97.560821"
     inkscape:cy="76.871506"
     inkscape:window-width="1920"
     inkscape:window-height="1048"
     inkscape:window-x="1080"
     inkscape:window-y="473"
     inkscape:window-maximized="1"
     inkscape:current-layer="layer1" /><defs
     id="defs235103"><path
       id="SVGID_1_"
       d="M68.8,692.63C40.71,281.06,625.64,71.34,683.09,376.48c6.89,74.12,35.56,220.84,40.76,271.36      c1.24,12.03-7.27,20.51-16.22,28.64C591.93,777.57,164.91,727.26,68.8,692.63" /><path
       id="SVGID_00000127036315191203794170000004088652038910839969_"
       d="M1285.61-224.48      c-30.63-448.69,607.07-677.33,669.69-344.66c7.51,80.81,38.77,240.75,44.44,295.84c1.35,13.11-7.93,22.36-17.68,31.23      C1855.93-131.88,1390.39-186.73,1285.61-224.48" /><path
       id="SVGID_00000148652843645313422640000013631796443152387750_"
       d="M62.41,686.99C31.77,238.3,669.47,9.66,732.1,342.33      c7.51,80.81,38.77,240.75,44.44,295.84c1.35,13.11-7.93,22.36-17.68,31.23C632.72,779.59,167.18,724.75,62.41,686.99" /><path
       id="SVGID_00000064342402267848175690000005107307401160221334_"
       d="M35.85,726.72       C4.25,263.86,662.07,28.01,726.68,371.18c5.81,62.56,37.17,220.93,45.84,305.17c1.39,13.53-8.18,23.06-18.24,32.21       C624.16,822.23,143.93,765.66,35.85,726.72" /><path
       id="SVGID_00000165199675803209583420000010530103503429188013_"
       d="M54.39,723.73C22.8,260.88,680.62,25.02,745.22,368.19      c5.81,62.56,37.17,220.93,45.84,305.17c1.39,13.53-8.18,23.06-18.24,32.21C642.71,819.25,162.47,762.67,54.39,723.73" /><path
       id="SVGID_00000149361915767551615130000002822380651450687375_"
       d="M378.33,425.46      c-172.64-403.05-507.21,98.33-52.37,340.88c4.69,2.5,44.24-7.18,49.31-8.57C918.89,608.15,598.98,89.31,378.33,425.46" /><path
       id="SVGID_00000137113042842339061360000003678439694328365245_"
       d="M40.89,716.16C9.29,253.31,667.11,17.45,731.72,360.62      c5.81,62.56,37.17,220.93,45.84,305.17c1.39,13.53-8.18,23.06-18.24,32.21C629.2,811.68,148.97,755.1,40.89,716.16" /><path
       id="SVGID_00000036249732040732465800000000724479788446069411_"
       d="M382.07,272.31     c-162.44-531.87-653.02,54.47-112.76,422.64c5.57,3.79,56.77-2.99,63.35-4.05C1038.62,576.76,706.36-121.29,382.07,272.31" /><path
       id="SVGID_00000052794878328389676350000012511233936982365071_"
       d="M382.07,270.53      c-162.44-540.89-653.02,55.39-112.76,429.81c5.57,3.86,56.77-3.04,63.35-4.12C1038.62,580.14,706.36-129.75,382.07,270.53" /><path
       id="SVGID_00000145752378902676467580000010898364768985209218_"
       d="M347.02,380.23     C174.66,4.31-159.37,471.94,294.74,698.16c4.68,2.33,44.17-6.69,49.23-8C886.71,550.62,567.32,66.71,347.02,380.23" /><rect
       id="SVGID_00000082363644324451046990000015456976436195042485_"
       x="-146.37"
       y="-156.28"
       width="974.37"
       height="974.37" /><path
       id="SVGID_00000051349253725486960780000017400042416862095523_"
       d="M133.06,678.49      C113.21,388.59,526.3,240.88,566.87,455.81c4.86,52.21,25.11,155.55,28.79,191.13c0.87,8.47-5.14,14.44-11.45,20.17      C502.5,738.31,200.93,702.88,133.06,678.49" /><path
       id="SVGID_00000126288177730052367590000009661929531068140937_"
       d="M176.26,609.66       c-6.09-289.44,380.87-438.42,419.7-223.49c4.66,52.21,24.04,155.55,27.55,191.13c0.84,8.47-6.97,12.86-10.96,20.17       c-61.09,112-203.52,123.05-271.93,133.42C235.05,746.91,169.02,671.59,176.26,609.66" /><path
       id="SVGID_00000057120011961773568950000009308529782228106122_"
       d="M140.01,568.7       c8.54-291.12,414.81-434.37,418.43-186.4c0.75,51.29,28.74,154.91,32.42,190.5c0.87,8.47,18.99,66.48,11.83,71.1       c-93.76,60.5-283.86,143.18-461.88-5.57" /><rect
       id="SVGID_00000117645425465193255530000010710279520182142364_"
       x="-116.47"
       y="-514.05"
       width="905.54"
       height="905.54" /><path
       id="SVGID_00000029043618780094142090000004691257283865578389_"
       d="M513.46,237.78        c-5.57-66.33-12.69-133.39-35.83-195.81c-9.23-24.9-21.4-49.47-40.86-67.54c-25.89-24.03-63.07-34.15-98.18-30.26        s-68.01,20.89-94.3,44.48c-20.67,18.55-37.46,41-52.67,64.24c-34.79,53.17-62.11,111.77-75.41,173.9        c-1.55,7.22-2.76,15.3,1.2,21.53c4.34,6.82,13.21,8.87,21.18,10.21c101.51,17.11,357.39-4.93,374.87-14.1" /><path
       id="SVGID_00000008148937501820079820000011817406722408372910_"
       d="M513.46,237.78        c-5.57-66.33-12.69-133.39-35.83-195.81c-9.23-24.9-21.4-49.47-40.86-67.54c-25.89-24.03-102.11-65.37-98.18-30.26        c10.25,91.52-55.75,44.58-94.3,44.48c-27.77-0.07-37.46,41-52.67,64.24c-34.79,53.17-62.11,111.77-75.41,173.9        c-1.55,7.22-2.76,15.3,1.2,21.53c4.34,6.82,13.21,8.87,21.18,10.21c101.51,17.11,357.39-4.93,374.87-14.1" /><path
       id="SVGID_00000148634234601320473080000003623006410332760476_"
       d="M109.55,179.7        C90.21-102.8,492.76-246.74,532.29-37.3c4.74,50.88,24.47,151.58,28.05,186.25c0.85,8.26-5.01,14.08-11.16,19.66        C469.56,237.99,175.69,203.46,109.55,179.7" /><path
       id="SVGID_00000037691109933380300130000012757762777763707050_"
       d="M600.56,670.47c-5.86-69.83-13.36-140.43-37.72-206.13     c-9.72-26.22-22.53-52.08-43.02-71.1c-27.25-25.3-66.4-35.95-103.35-31.86s-71.6,21.99-99.27,46.83     c-21.75,19.53-39.44,43.16-55.45,67.63c-36.63,55.97-65.38,117.66-79.39,183.07c-1.63,7.6-2.91,16.1,1.26,22.66     c4.57,7.18,13.9,9.34,22.3,10.75c106.86,18.01,376.23-5.19,394.63-14.85" /><path
       id="SVGID_00000062189766559489436770000000690198618163051910_"
       d="M600.56,670.47c-5.86-69.83-13.36-140.43-37.72-206.13     c-9.72-26.22-22.53-52.08-43.02-71.1c-27.25-25.3-66.4-35.95-103.35-31.86s-71.6,21.99-99.27,46.83     c-21.75,19.53-39.44,43.16-55.45,67.63c-36.63,55.97-65.38,117.66-79.39,183.07c-1.63,7.6-2.91,16.1,1.26,22.66     c4.57,7.18,13.9,9.34,22.3,10.75c106.86,18.01,376.23-5.19,394.63-14.85" /><path
       id="SVGID_00000072250426099447495980000018129794604638771342_"
       d="M-78.43,350.64     c-165.22-385.73-485.41,94.11-50.12,326.23c4.49,2.39,42.34-6.87,47.19-8.2C438.9,525.48,132.74,28.94-78.43,350.64" /><path
       id="SVGID_00000061448181889319293410000010551940268761870493_"
       d="M17.23,731.82C-15.59,251.12,667.61,6.17,734.7,362.57      c8.04,86.57,41.53,257.93,47.61,316.94c1.45,14.05-8.5,23.95-18.94,33.45C628.23,831.03,129.48,772.27,17.23,731.82" /><path
       id="SVGID_00000139997825202270582520000013010989677807521957_"
       d="M14.5,727.42C-18.32,246.71,664.88,1.76,731.97,358.16      c8.04,86.57,41.53,257.93,47.61,316.94c1.45,14.05-8.5,23.95-18.94,33.45C625.5,826.62,126.75,767.86,14.5,727.42" /><path
       id="SVGID_00000075878643636179411200000013455471712676492673_"
       d="M37.53,668.44C6.25,210.26,657.42-23.2,721.37,316.49      c7.67,82.52,39.59,245.84,45.38,302.08c1.38,13.39-8.1,22.83-18.06,31.89C619.89,762.99,144.52,706.99,37.53,668.44" /><path
       id="SVGID_00000150104350412712144360000017538409371969832345_"
       d="M755.97,698.76C745.89,578.67,733,457.26,691.1,344.25      c-16.72-45.09-38.74-89.57-73.98-122.28c-59.41-55.16-98.97-63.51-177.75-54.79c-63.56,7.03-123.14,37.82-170.73,80.54      c-37.41,33.59-67.83,74.24-95.36,116.31C110.28,460.29,60.83,566.38,36.74,678.88c-2.8,13.07-5,27.7,2.17,38.97      c7.86,12.35,23.91,16.06,38.35,18.49c183.78,30.97,647.05-8.92,678.7-25.53" /><path
       id="SVGID_00000007416955269522648690000018421452395501090236_"
       d="M760.94,696.91      c-10.08-120.1-22.97-241.51-64.87-354.51c-16.72-45.09-38.74-89.57-73.98-122.28c-46.87-43.51-114.19-61.83-177.75-54.79      s-123.14,37.82-170.73,80.54c-37.41,33.59-67.83,74.24-95.36,116.31C115.25,458.44,65.8,564.53,41.71,677.02      c-2.8,13.07-5,27.7,2.17,38.97c7.86,12.35,23.91,16.06,38.35,18.49c183.78,30.97,647.05-8.92,678.7-25.53" /><path
       id="SVGID_00000087370030292785779870000004802092133346155920_"
       d="M760.94,696.91      c-10.08-120.1-22.97-241.51-64.87-354.51c-16.72-45.09-38.74-89.57-73.98-122.28c-46.87-43.51-114.19-61.83-177.75-54.79      s-123.14,37.82-170.73,80.54c-37.41,33.59-67.83,74.24-95.36,116.31C115.25,458.44,65.8,564.53,41.71,677.02      c-2.8,13.07-5,27.7,2.17,38.97c7.86,12.35,23.91,16.06,38.35,18.49c183.78,30.97,647.05-8.92,678.7-25.53" /><path
       id="SVGID_00000121989890506512480770000016208458915992647828_"
       d="M685.15,650.07        C713.25,238.5,128.31,28.78,70.87,333.93c-6.89,74.12-35.56,220.84-40.76,271.36c-1.24,12.03,7.27,20.51,16.22,28.64        C162.02,735.01,589.05,684.7,685.15,650.07" /><path
       id="SVGID_00000036217564140272041460000013714595766910036904_"
       d="M137.17,667.64       c102.02,13.55,232.06,24.34,356.05-3.09c30.37-46.06,47.61-95.35,49.94-142.98c2.74-55.81-15.49-108.85-50.01-145.5       c-10.98-11.65-24.44-22.69-42.36-34.74c-18.3-12.3-34.89-21.33-50.71-27.6c-23.05-9.15-48.95-14.28-76.98-15.27       c-14.03-0.49-32.15-0.16-47.84,6.91C250,316.76,231.68,345,220.83,389.31c-5.84,23.84-9.7,48.85-13.44,73.03       c-6.23,40.33-12.67,82.02-28.5,120.89c-7.94,19.5-18.09,37.88-27.87,54.85l-0.25,0.44       C145.28,648.02,139.65,657.78,137.17,667.64z" /><path
       id="SVGID_00000053541252829818544130000006657247821383116697_"
       d="M721.69,727.7c-5.46-142.91-95.4-301.73-207.65-355.48     c-114.63-54.89-356.8-146.41-373.88,164.19c-2.33,42.44-22.36,103.15-24.73,162.95c-0.29,7.37,21.37,24.44,25.8,30.33     c35.77,47.56,241.71,40.56,301.6,47.56C550.71,789.88,691.29,757.28,721.69,727.7" /><path
       id="SVGID_00000019653535899212570860000018180962918963872164_"
       d="M41.72,727.7c5.46-142.91,95.4-301.73,207.65-355.48     C364,317.34,606.16,225.82,623.25,536.41c2.33,42.44,22.36,103.15,24.73,162.95c0.29,7.37-21.37,24.44-25.8,30.33     c-35.77,47.56-241.71,40.56-301.6,47.56C212.7,789.88,72.12,757.28,41.72,727.7" /><path
       id="SVGID_00000045621181751591327000000000733992506235086268_"
       d="M102.86,615.1c-22.65,15.92-21.72,52.16-4.9,74.14     c16.82,21.99,44.22,32.79,70.68,40.93c25.12,7.73,51.02,14.05,77.3,13.74c79.33-0.93,144.47-59.96,200.76-115.87     c38.69-38.43,77.5-77.58,106.02-124.05c42.26-68.85,59.68-150.37,65.16-230.97c2.25-33.01,2.49-66.94-8.18-98.26     s-34.05-59.95-65.83-69.15c-37.89-10.97-79.63,8.23-105.14,38.33s-37.62,69.17-46.13,107.69     c-8.52,38.52-14.18,78.05-29.41,114.44c-35.33,84.42-115.94,139.57-192.53,189.66C137.51,577.41,133.32,586.44,102.86,615.1" /><clipPath
       id="SVGID_00000033360265967811168890000018271566028749572280_">
				<use
   xlink:href="#SVGID_00000148652843645313422640000013631796443152387750_"
   style="overflow:visible"
   id="use37277" />
			</clipPath></defs><g
     inkscape:label="Ebene 1"
     inkscape:groupmode="layer"
     id="layer1"><path
       style="fill:#e6e7e8;fill-rule:evenodd;stroke:none;stroke-width:0.729021;stroke-linecap:square;stroke-linejoin:bevel;stroke-dashoffset:2.84519;paint-order:stroke markers fill;fill-opacity:1"
       d="M 26.449982,-4.3055249e-8 C 24.833142,-4.3055249e-8 22.14811,0.27158942 20.44805,0.60696615 12.142063,2.2455181 5.2838908,7.1018677 2.0224778,13.654443 c -1.010744,2.030712 -1.58366498,3.900581 -1.90711098,6.224226 -0.153496,1.102766 -0.153888,3.503447 -7.45e-4,4.763437 0.605973,4.985688 2.55136198,9.120151 5.91323698,12.567411 4.3936052,4.505198 10.4394982,6.929478 17.2852002,6.930678 1.54066,2.4e-4 2.474095,-0.07745 4.923089,-0.409729 2.379994,-0.322924 3.130024,-0.402787 4.507775,-0.479694 l 1.24482,-0.06947 1.994318,0.444587 c 8.778566,1.956752 11.190647,2.49857 11.580858,2.601531 0.539564,0.142372 0.543702,0.143215 0.543702,0.107798 0,-0.02321 -1.062737,-2.968638 -2.587018,-7.169469 -0.243144,-0.670075 -0.282466,-0.835648 -0.221302,-0.933585 0.04089,-0.06547 0.840466,-1.057542 1.776739,-2.204697 2.303236,-2.822012 2.880569,-3.6494 3.770681,-5.403648 C 55.898957,20.666775 51.438704,9.0782235 40.345079,3.3381277 37.474282,1.852712 34.164355,0.80100162 30.927613,0.34584539 29.746952,0.17981887 27.419507,-4.305525e-8 26.449982,-4.3055249e-8 Z"
       id="path235417" /><path
       style="fill:#ffffff;fill-opacity:1;fill-rule:evenodd;stroke:none;stroke-width:1;stroke-linecap:round;stroke-linejoin:round;stroke-miterlimit:4.8;stroke-opacity:1;paint-order:stroke markers fill"
       d="m 47.404342,14.613062 c -0.163351,-0.0033 -0.44266,0.1615 -0.872299,0.48059 -2.205375,1.637922 -5.535098,2.940755 -9.640238,3.77238 -4.474898,0.906531 -4.941816,1.258875 -5.268929,3.972884 -0.183883,1.525643 -0.943596,4.169015 -1.783354,6.204789 -0.498862,1.209358 -0.583035,1.597596 -0.376721,1.739946 0.377612,0.26054 2.76031,0.0265 3.471106,-0.341065 0.32861,-0.169928 0.719922,-0.456682 0.869714,-0.63717 0.239466,-0.288539 0.171184,-0.328145 -0.565857,-0.328145 -0.489456,0 -0.946827,-0.130647 -1.099157,-0.314193 -0.143486,-0.17289 -0.225864,-0.318827 -0.182935,-0.324528 0.04293,-0.0057 0.832855,-0.0366 1.754932,-0.06821 1.830297,-0.06274 3.151339,-0.567566 3.763078,-1.438155 l 0.333313,-0.47439 -1.927015,-0.104903 c -1.27652,-0.06941 -1.955979,-0.192844 -2.013313,-0.366386 -0.06534,-0.197755 0.422013,-0.261999 1.988509,-0.261999 2.641167,0 3.984858,-0.379793 4.856034,-1.37201 0.356628,-0.406174 0.648023,-0.816833 0.648023,-0.912605 0,-0.09577 -0.400532,-0.09625 -0.890385,-0.0016 -0.489853,0.09476 -1.810407,0.176365 -2.934188,0.181384 -1.68056,0.0075 -2.04277,-0.04686 -2.04277,-0.305407 0,-0.257712 0.367643,-0.314754 2.04277,-0.317294 3.442193,-0.0052 6.149853,-0.922749 6.877616,-2.33009 0.182031,-0.352006 0.289116,-0.681885 0.237712,-0.733288 -0.0514,-0.0514 -0.789337,0.105619 -1.639693,0.348815 -1.969524,0.563276 -6.157709,0.835404 -6.010486,0.390674 0.07036,-0.212521 0.668624,-0.327531 2.178161,-0.420129 5.010162,-0.307334 7.839508,-2.055762 8.357113,-5.164026 0.09813,-0.589293 0.07928,-0.871636 -0.130741,-0.875915 z"
       id="path49355" /><path
       style="fill:#ffffff;fill-opacity:1;fill-rule:evenodd;stroke:none;stroke-width:1;stroke-linecap:round;stroke-linejoin:round;stroke-miterlimit:4.8;stroke-opacity:1;paint-order:stroke markers fill"
       d="m 4.9666219,14.598592 c -0.039233,0 -0.071313,0.31117 -0.071313,0.691948 0,0.965796 0.9303937,2.731269 1.7818034,3.380672 1.4888631,1.135611 4.5207392,2.004529 6.9938882,2.004529 1.3635,0 1.912028,0.135759 1.912028,0.472839 0,0.374212 -4.531965,0.03505 -6.0771483,-0.454753 -0.7491874,-0.23748 -1.4328425,-0.43311 -1.5192871,-0.434598 -0.3719493,-0.0064 -0.1055085,0.687756 0.523999,1.365291 1.0186152,1.09633 2.6532344,1.589535 5.7980954,1.74873 1.797933,0.09101 2.629873,0.212819 2.689759,0.393775 0.103673,0.31326 -3.751108,0.366276 -5.030184,0.06925 -0.989676,-0.229823 -1.062046,0.158034 -0.19172,1.028361 0.832671,0.832669 2.455587,1.259872 4.787822,1.259872 1.596124,0 1.952852,0.05726 1.952852,0.314192 0,0.256132 -0.349395,0.314193 -1.88619,0.314193 -1.037336,0 -1.88619,0.08478 -1.88619,0.188102 0,0.103319 0.324414,0.472514 0.720887,0.820622 0.792805,0.69609 2.492814,1.159371 3.885034,1.05885 0.453833,-0.03277 0.896937,0.01275 0.984953,0.100769 0.245928,0.245926 -0.378351,0.549361 -1.137399,0.552938 -0.805553,0.0038 -0.870484,0.250216 -0.184485,0.699699 1.003515,0.657529 3.22975,0.991951 3.87625,0.582393 0.233366,-0.147838 0.160605,-0.507976 -0.392741,-1.935282 C 21.591238,26.483786 21.115561,24.792128 20.812166,22.82703 20.542494,21.08034 20.251945,20.442029 19.505269,19.952787 19.2453,19.782448 17.381272,19.273978 15.362887,18.822624 11.324688,17.919596 9.336524,17.181927 6.7510091,15.627987 5.8089057,15.061767 5.0058549,14.598592 4.9666219,14.598592 Z"
       id="path49353" /><path
       style="fill:#ffffff;fill-opacity:1;fill-rule:evenodd;stroke:none;stroke-width:1;stroke-linecap:round;stroke-linejoin:round;stroke-miterlimit:4.8;stroke-opacity:1;paint-order:stroke markers fill"
       d="m 4.6927368,13.646712 c 0.2596695,-0.0056 0.6659951,0.238221 1.289327,0.706934 2.3263765,1.749307 5.5246952,3.053752 9.3343142,3.805969 3.958862,0.781687 5.248432,1.340698 5.669421,2.458248 0.120529,0.319954 0.330881,1.336183 0.467155,2.25826 0.220829,1.494209 1.125523,4.454047 2.222603,7.270874 0.210738,0.541088 0.324252,1.042592 0.252181,1.114661 -0.295822,0.295825 -3.223422,0.315492 -3.994071,0.02687 -1.059641,-0.396857 -1.764557,-0.87961 -2.154907,-1.475362 -0.178886,-0.273014 -0.626972,-0.556272 -0.995288,-0.629935 -0.977553,-0.19551 -2.092796,-1.007181 -2.549199,-1.854668 -0.288208,-0.535171 -0.622244,-0.806707 -1.205094,-0.981335 -1.030927,-0.308873 -2.17967,-1.317155 -2.494938,-2.189014 C 10.352773,23.656373 9.9942047,23.324564 9.165332,22.890592 7.994436,22.27755 7.2005941,21.297808 7.2005941,20.465417 c 0,-0.301636 -0.3545048,-0.790383 -0.9704834,-1.337386 C 4.9566629,17.99718 4.2716635,16.54096 4.2689901,14.958777 c -0.0015,-0.884973 0.089886,-1.304913 0.4237467,-1.312065 z"
       id="path49351" /><path
       style="fill:#ffffff;fill-opacity:1;fill-rule:evenodd;stroke:none;stroke-width:1;stroke-linecap:round;stroke-linejoin:round;stroke-miterlimit:4.8;stroke-opacity:1;paint-order:stroke markers fill"
       d="m 47.830672,13.550594 c 0.306511,0 0.440409,1.491596 0.221692,2.46755 -0.298403,1.33153 -0.68788,1.986063 -1.729093,2.904732 -0.65499,0.577901 -0.959304,1.03319 -1.062985,1.589567 -0.186181,0.999104 -0.941121,1.890197 -2.067574,2.441195 -0.652178,0.319009 -1.030601,0.703479 -1.414384,1.436605 -0.438248,0.837164 -0.740466,1.107397 -1.850016,1.653645 -0.814241,0.400865 -1.472769,0.893483 -1.705322,1.275891 -0.513436,0.844274 -1.358967,1.477793 -2.382284,1.784388 -0.503055,0.150718 -1.144562,0.579049 -1.566829,1.046447 -1.045282,1.157003 -2.988897,1.644397 -5.068941,1.271241 -0.288149,-0.05169 -0.600184,-0.16648 -0.692981,-0.255282 -0.0928,-0.0888 0.162782,-0.96225 0.567924,-1.940967 0.947017,-2.287754 1.716509,-4.952678 1.980757,-6.859529 0.334616,-2.414622 1.055604,-3.114978 3.800285,-3.691248 5.855902,-1.229495 8.577185,-2.22178 11.372949,-4.148067 0.779122,-0.536818 1.497743,-0.976168 1.596802,-0.976168 z"
       id="path49349" /><path
       style="fill:#000000;stroke-width:1"
       d="M 19.933492,31.288613 C 18.87385,30.891755 18.168853,30.409142 17.778502,29.81339 17.599616,29.540375 17.151904,29.256729 16.783587,29.183066 15.806033,28.987556 14.690658,28.17628 14.234255,27.328793 13.946046,26.793621 13.61225,26.521621 13.029399,26.346993 11.998471,26.03812 10.849376,25.030262 10.534107,24.158402 10.352639,23.656559 9.9942427,23.324601 9.1653692,22.890629 c -1.1708972,-0.613043 -1.96474,-1.593017 -1.96474,-2.425408 0,-0.301637 -0.3547801,-0.790422 -0.9707593,-1.337425 -1.2734491,-1.130853 -1.9584037,-2.587068 -1.9610771,-4.169253 -0.00266,-1.573287 0.288361,-1.676006 1.7131211,-0.604662 2.3263788,1.749309 5.5248791,3.053273 9.3345021,3.805491 3.958866,0.781688 5.248618,1.340963 5.669608,2.458514 0.120529,0.319954 0.330641,1.336164 0.466915,2.258242 0.220829,1.49421 1.125611,4.453857 2.222693,7.270687 0.210738,0.541088 0.324196,1.042763 0.252125,1.114832 -0.295823,0.295826 -3.223615,0.315591 -3.994265,0.02697 z m 2.956745,-0.532359 C 23.123604,30.608416 23.050452,30.248311 22.497105,28.821003 21.591007,26.483807 21.115497,24.792364 20.812102,22.827264 20.542429,21.080572 20.252146,20.44196 19.50547,19.952718 19.2455,19.782379 17.381389,19.273721 15.363002,18.822366 11.324799,17.919337 9.3365351,17.181819 6.7510176,15.627877 5.8089132,15.061657 5.0060007,14.598384 4.9667677,14.598384 c -0.039233,0 -0.071333,0.311547 -0.071333,0.692325 0,0.965797 0.9304886,2.731012 1.7818992,3.380415 1.4888646,1.135612 4.5206251,2.004591 6.9937771,2.004591 1.363501,0 1.912043,0.135608 1.912043,0.472688 0,0.374212 -4.532146,0.03518 -6.0773304,-0.454622 C 8.7566354,20.4563 8.0729357,20.26078 7.986491,20.259292 c -0.3719497,-0.0064 -0.1056004,0.687648 0.5239078,1.365184 1.0186162,1.096331 2.6536742,1.589396 5.7985382,1.748591 1.797934,0.09101 2.629508,0.212748 2.689394,0.393704 0.103673,0.313261 -3.751063,0.36649 -5.030141,0.06946 -0.989677,-0.229823 -1.061977,0.158183 -0.19165,1.028511 0.832672,0.83267 2.455448,1.259615 4.787685,1.259615 1.596126,0 1.952813,0.05741 1.952813,0.314344 0,0.256132 -0.349272,0.314345 -1.886068,0.314345 -1.037337,0 -1.886069,0.08453 -1.886069,0.187854 0,0.103319 0.324387,0.47267 0.72086,0.820778 0.792806,0.696091 2.492555,1.159391 3.884776,1.05887 0.453834,-0.03277 0.897166,0.01243 0.985182,0.100452 0.245929,0.245926 -0.378553,0.549581 -1.137601,0.553158 -0.805554,0.0038 -0.870496,0.250022 -0.184496,0.699505 1.003516,0.65753 3.230115,0.992149 3.876615,0.582591 z m 6.31452,0.665677 c -0.288149,-0.05169 -0.599834,-0.166643 -0.692631,-0.255445 -0.0928,-0.0888 0.162755,-0.962228 0.567897,-1.940946 0.947018,-2.287757 1.71658,-4.952739 1.980829,-6.859592 0.334616,-2.414624 1.055397,-3.114711 3.800081,-3.690981 5.855908,-1.229496 8.577098,-2.222077 11.372865,-4.148366 0.779122,-0.536818 1.497634,-0.976033 1.596693,-0.976033 0.306511,0 0.440713,1.491813 0.221996,2.467768 -0.298403,1.331532 -0.68792,1.985818 -1.729134,2.904488 -0.65499,0.577902 -0.9595,1.033171 -1.063181,1.589549 -0.186182,0.999105 -0.940968,1.890437 -2.067422,2.441435 -0.652179,0.31901 -1.030422,0.703155 -1.414205,1.436281 -0.438249,0.837165 -0.740779,1.107564 -1.85033,1.653813 -0.814242,0.400865 -1.472703,0.893559 -1.705256,1.275968 -0.513436,0.844274 -1.359076,1.47757 -2.382394,1.784165 -0.503056,0.150718 -1.144384,0.579128 -1.566651,1.046527 -1.045283,1.157004 -2.989111,1.644526 -5.069157,1.271369 z m 3.7291,-0.979278 c 0.32861,-0.169928 0.720028,-0.456636 0.869821,-0.637124 0.239466,-0.288539 0.171139,-0.328163 -0.565902,-0.328163 -0.489457,0 -0.946805,-0.130799 -1.099135,-0.314345 -0.143486,-0.17289 -0.22576,-0.319007 -0.182831,-0.324708 0.04293,-0.0057 0.832477,-0.03622 1.754555,-0.06783 1.830299,-0.06274 3.151649,-0.567744 3.763388,-1.438334 l 0.333294,-0.474323 -1.92687,-0.104782 c -1.276522,-0.06941 -1.956079,-0.193193 -2.013413,-0.366735 -0.06534,-0.197755 0.422018,-0.261954 1.988515,-0.261954 2.64117,0 3.984549,-0.379496 4.855726,-1.371714 0.356628,-0.406175 0.648413,-0.81686 0.648413,-0.912633 0,-0.09577 -0.400789,-0.0966 -0.890643,-0.0019 -0.489853,0.09476 -1.810101,0.176406 -2.933883,0.181425 -1.680562,0.0075 -2.043241,-0.04667 -2.043241,-0.305218 0,-0.257712 0.368112,-0.314902 2.043241,-0.317442 3.442197,-0.0052 6.149713,-0.92238 6.877477,-2.329722 0.182031,-0.352007 0.288907,-0.682071 0.237503,-0.733474 -0.0514,-0.0514 -0.789209,0.105519 -1.639566,0.348716 -1.969526,0.563276 -6.157549,0.835717 -6.010326,0.390987 0.07036,-0.212522 0.668237,-0.327992 2.177776,-0.42059 5.010167,-0.307334 7.839475,-2.05556 8.357081,-5.163827 0.174457,-1.047634 -0.02068,-1.124544 -1.002713,-0.395195 -2.205378,1.637923 -5.534917,2.940896 -9.640061,3.772522 -4.474902,0.906532 -4.941895,1.258628 -5.269008,3.97264 -0.183883,1.525645 -0.943602,4.168826 -1.783361,6.204602 -0.498863,1.209359 -0.582977,1.598009 -0.376663,1.740359 0.377612,0.260541 2.760029,0.02626 3.470826,-0.341303 z"
       id="path49233"
       sodipodi:nodetypes="ssssssssssssssscsssssssssssssscssssssssssscssssssssssssssssssssscsssssscsssssccssssssssssssscc" /></g><style
     type="text/css"
     id="style37135">
	.st0{display:none;}
	.st1{display:inline;}
	.st2{fill:#548B9D;}
	.st3{clip-path:url(#SVGID_00000169540263143036274520000016589815069519938233_);fill:#E6E7E8;}
	.st4{fill:none;}
	.st5{fill:none;stroke:#000000;stroke-width:5;stroke-miterlimit:10;}
	.st6{display:inline;fill:none;stroke:#000000;stroke-width:0.25;stroke-miterlimit:10;}
	.st7{fill:#9B5468;}
	.st8{fill:#781532;}
	.st9{clip-path:url(#SVGID_00000120549780107286300860000011547760231851320962_);fill:#E6E7E8;}
	.st10{clip-path:url(#SVGID_00000182486765922306362780000014672474962032560004_);fill:#E6E7E8;}
	.st11{fill:#301330;}
	.st12{fill:#1C1C1C;}
	.st13{display:none;clip-path:url(#SVGID_00000024687357468556774250000013035157511958493101_);fill:#E6E7E8;}
	.st14{clip-path:url(#SVGID_00000024687357468556774250000013035157511958493101_);}
	.st15{fill:#E6E7E8;}
	.st16{display:none;opacity:0.14;clip-path:url(#SVGID_00000024687357468556774250000013035157511958493101_);}
	.st17{display:inline;opacity:0.93;}
	.st18{fill:#FFFFFF;}
	.st19{opacity:0.42;}
	.st20{display:inline;fill:#548B9D;}
	.st21{display:none;clip-path:url(#SVGID_00000101103203403442123640000010022422247096849284_);fill:#E6E7E8;}
	.st22{clip-path:url(#SVGID_00000101103203403442123640000010022422247096849284_);}
	.st23{display:none;opacity:0.14;clip-path:url(#SVGID_00000101103203403442123640000010022422247096849284_);}
	.st24{display:none;opacity:0.33;clip-path:url(#SVGID_00000101103203403442123640000010022422247096849284_);}
	.st25{display:none;fill:none;stroke:#000000;stroke-width:5;stroke-miterlimit:10;}
	.st26{clip-path:url(#SVGID_00000008125930094897943240000000302066305779170477_);}
	.st27{fill:#DD1584;}
	.st28{fill:#C4D9E3;}
	.st29{fill:#E6BBC5;}
	.st30{fill:#EBE0E1;}
	.st31{opacity:0.08;}
	.st32{fill:#912370;}
	.st33{display:none;clip-path:url(#SVGID_00000168812265759997787790000000633981166150676135_);fill:#E6E7E8;}
	.st34{clip-path:url(#SVGID_00000168812265759997787790000000633981166150676135_);}
	.st35{display:none;opacity:0.14;clip-path:url(#SVGID_00000168812265759997787790000000633981166150676135_);}
	.st36{display:none;clip-path:url(#SVGID_00000168812265759997787790000000633981166150676135_);}
	.st37{display:none;opacity:0.33;clip-path:url(#SVGID_00000168812265759997787790000000633981166150676135_);}
	.st38{clip-path:url(#SVGID_00000067233832143109104730000014858307865032645260_);}
	.st39{fill:#E32026;}
	.st40{fill:#F78C1F;}
	.st41{fill:#108141;}
	.st42{fill:#405FAC;}
	.st43{fill:#732A84;}
	.st44{fill:#FDEC09;}
	.st45{display:none;opacity:0.08;}
	.st46{display:inline;fill:#912370;}
	.st47{display:none;opacity:0.68;clip-path:url(#SVGID_00000067233832143109104730000014858307865032645260_);}
	.st48{display:none;clip-path:url(#SVGID_00000067233832143109104730000014858307865032645260_);}
	.st49{display:inline;clip-path:url(#SVGID_00000112592248702352465870000007917903791442654355_);}
	.st50{fill:#6DCBEF;}
	.st51{fill:#F1ABB9;}
	.st52{clip-path:url(#SVGID_00000112592248702352465870000007917903791442654355_);}
	.st53{display:inline;opacity:0.51;}
	.st54{fill:#EEF5DF;}
	.st55{clip-path:url(#SVGID_00000149367656147435655160000001981074217444869027_);}
	.st56{display:inline;fill:#C51E8E;}
	.st57{clip-path:url(#SVGID_00000171683132369468379990000004781767823604575404_);}
	.st58{display:none;fill:#F8C11F;}
	.st59{fill:#F6C020;}
	.st60{display:none;fill:#4D3F1C;}
	.st61{display:none;fill:#34322B;}
	.st62{display:none;fill:#3A3528;}
	.st63{display:none;fill:#F1ABB9;}
	.st64{display:none;fill:#E7E5E4;}
	.st65{fill:#F7C122;}
	.st66{fill:#A2ADA3;}
	.st67{fill:#EA9443;}
	.st68{fill:#F8C11F;}
	.st69{fill:#3A3529;}
	.st70{fill:#33312D;}
	.st71{clip-path:url(#SVGID_00000161630630916802697410000003452448843650914713_);fill:#E6E7E8;}
	.st72{fill:#310E31;}
	.st73{display:inline;fill:none;stroke:#000000;stroke-width:5;stroke-miterlimit:10;}
	.st74{display:inline;fill:#310E31;}
	.st75{clip-path:url(#SVGID_00000174560389541006125930000006248276063661290882_);fill:#E6E7E8;}
	.st76{fill:#47568F;}
	.st77{fill:#3A3528;}
	.st78{fill:#4D3F1C;}
	.st79{fill:#463B1E;}
	.st80{fill:#493B1D;}
	.st81{fill:#42371E;}
	.st82{fill:#35322A;}
	.st83{fill:#4D3E1D;}
	.st84{fill:#34322B;}
	.st85{clip-path:url(#SVGID_00000051377459648434527560000012035976803041799312_);}
	.st86{clip-path:url(#SVGID_00000167395808520692455540000003337737051760355771_);}
	.st87{display:none;clip-path:url(#SVGID_00000092431482893911047230000012802748503364252041_);}
	.st88{clip-path:url(#SVGID_00000092431482893911047230000012802748503364252041_);}
	.st89{clip-path:url(#SVGID_00000075865662484769207370000018297279497077730178_);fill:#E6E7E8;}
	.st90{display:inline;fill:#F1ABB9;}
	.st91{display:inline;fill:#6CCCF0;}
	.st92{display:inline;fill:#6CCBEF;}
	.st93{display:inline;fill:#F1ABB8;}
	.st94{display:inline;fill:#A4DDF6;}
	.st95{clip-path:url(#SVGID_00000176030711029720723570000007562890427344069045_);}
	.st96{clip-path:url(#SVGID_00000000921662475577244110000007783372313018167949_);}
	.st97{fill:#EE2A7B;}
	.st98{clip-path:url(#SVGID_00000145746833797883393740000002420291398683086509_);}
	.st99{clip-path:url(#SVGID_00000130630387237740483990000004494096191186802562_);fill:#E6E7E8;}
	.st100{fill:#D65A8B;}
	.st101{display:inline;opacity:0.33;}
	.st102{clip-path:url(#SVGID_00000175297697782288682790000009705134565803499936_);fill:#E6E7E8;}
	.st103{clip-path:url(#SVGID_00000021820333380365050750000003560881401616026033_);fill:#E6E7E8;}
	.st104{display:inline;opacity:0.22;}
	.st105{opacity:0.47;}
	.st106{display:inline;clip-path:url(#SVGID_00000150089214973850387240000017034623511381607061_);}
	.st107{clip-path:url(#SVGID_00000181769698181823781400000013370114371463114430_);}
	.st108{clip-path:url(#SVGID_00000052073576826358956010000005078312500833162421_);}
	.st109{display:inline;fill:#E6E7E8;}
	.st110{fill:#F8C01F;}
	.st111{fill:#F1B921;}
	.st112{fill:#100C01;}
	.st113{fill:#251A03;}
	.st114{fill:#F0B921;}
	.st115{fill:#3D392E;}
	.st116{fill:#F5B11F;}
	.st117{fill:#F6B11F;}
	.st118{fill:#3C392E;}
	.st119{fill:#F6A623;}
	.st120{fill:#F4A623;}
	.st121{fill:#ED9429;}
	.st122{fill:#F39B27;}
	.st123{fill:#F1A822;}
	.st124{fill:#E68C2A;}
	.st125{fill:#F4AF20;}
	.st126{fill:#ED9E26;}
	.st127{display:inline;fill:#F7C01B;}
	
		.st128{clip-path:url(#SVGID_00000179628466807139232930000006356655043804914051_);fill:#E6E7E8;stroke:#FFFFFF;stroke-miterlimit:10;}
	.st129{clip-path:url(#SVGID_00000179628466807139232930000006356655043804914051_);}
	.st130{clip-path:url(#SVGID_00000113325009556114792550000001836838236691606657_);}
	.st131{fill:#F7C01B;}
	.st132{fill:#CC4079;}
	.st133{display:inline;opacity:0.57;}
	.st134{fill:#E8E7E8;}
	.st135{fill:#558E9E;}
	.st136{fill:#81A6B3;}
	.st137{fill:#010101;}
	.st138{fill:#D55B8B;}
	.st139{fill:#7DBC43;}
	.st140{clip-path:url(#SVGID_00000168815410886941464330000017344772092177695415_);}
	.st141{fill:#548C3F;}
	.st142{clip-path:url(#SVGID_00000101784006133810700600000015774190040155931521_);}
	.st143{fill:#C74744;}
	.st144{fill:#382722;}
	.st145{fill:#E7554B;}
	.st146{fill:#A7443B;}
	.st147{fill:#D55853;}
	.st148{fill:#E2847E;}
	.st149{fill:#4F170F;}
	.st150{fill:#4E1C15;}
	.st151{fill:#5D2519;}
	.st152{fill:#E55852;}
	.st153{opacity:0.63;clip-path:url(#SVGID_00000020386297540638084110000006002126830551620506_);}
	.st154{fill:#1476AE;}
	.st155{fill:#E4E1E2;}
	.st156{fill:#FEFEFE;}
	.st157{fill:#27709A;}
	.st158{fill:#2A78A5;}
	.st159{fill:#EAF3F7;}
	.st160{fill:#E2EFF5;}
	.st161{fill:#2C779C;}
	.st162{fill:#D1E6F0;}
	.st163{fill:#FDFDFE;}
	.st164{fill:#FBF9F5;}
	.st165{fill:#4E7438;}
	.st166{fill:#9A5525;}
	.st167{fill:#81B841;}
	.st168{fill:#8B5B27;}
	.st169{fill:#E4EBD3;}
	.st170{fill:#8BAF45;}
	.st171{fill:#355226;}
	.st172{fill:#A0CD6A;}
	.st173{fill:#8EB368;}
	.st174{fill:#87B55B;}
	.st175{fill:#6B9C42;}
	.st176{fill:#A6D178;}
	.st177{fill:#E4E2E3;}
	.st178{fill:#B26D39;}
	.st179{display:inline;opacity:0.19;}
</style></svg>
